%TF.GenerationSoftware,Altium Limited,Altium Designer,19.1.6 (110)*%
G04 Layer_Color=32896*
%FSLAX26Y26*%
%MOIN*%
%TF.FileFunction,Other,M12-Top_3D_Body*%
%TF.Part,Single*%
G01*
G75*
%TA.AperFunction,NonConductor*%
%ADD78C,0.003937*%
D78*
X883268Y4035590D02*
G03*
X883268Y4035590I-19685J0D01*
G01*
X1083346Y3624850D02*
G03*
X1083346Y3624850I-19685J0D01*
G01*
X271378Y4782008D02*
G03*
X271378Y4782008I-19685J0D01*
G01*
X1940669Y4809173D02*
Y4830827D01*
X1899331Y4809173D02*
Y4830827D01*
X1940669D01*
X1899331Y4809173D02*
X1940669D01*
X1590663Y4805172D02*
Y4826826D01*
X1549325Y4805172D02*
Y4826826D01*
X1590663D01*
X1549325Y4805172D02*
X1590663D01*
X870827Y3134331D02*
Y3175669D01*
X849173Y3134331D02*
Y3175669D01*
Y3134331D02*
X870827D01*
X849173Y3175669D02*
X870827D01*
X173669Y4533173D02*
Y4554827D01*
X132331Y4533173D02*
Y4554827D01*
X173669D01*
X132331Y4533173D02*
X173669D01*
X710669Y4769173D02*
Y4790827D01*
X669331Y4769173D02*
Y4790827D01*
X710669D01*
X669331Y4769173D02*
X710669D01*
X808347Y4170331D02*
X830000D01*
X808347Y4211669D02*
X830000D01*
Y4170331D02*
Y4211669D01*
X808347Y4170331D02*
Y4211669D01*
X1088820Y4004450D02*
X1208898D01*
X1088820Y3935552D02*
X1208898D01*
X1088820D02*
Y4004450D01*
X1208898Y3935552D02*
Y4004450D01*
X950198Y3948976D02*
Y4071024D01*
X828150Y3948976D02*
Y4071024D01*
Y3948976D02*
X950198D01*
X828150Y4071024D02*
X950198D01*
X868346Y4169330D02*
Y4210670D01*
X890000Y4169330D02*
Y4210670D01*
X868346D02*
X890000D01*
X868346Y4169330D02*
X890000D01*
X950000D02*
Y4210670D01*
X928346Y4169330D02*
Y4210670D01*
Y4169330D02*
X950000D01*
X928346Y4210670D02*
X950000D01*
X1793543Y3985693D02*
Y4072307D01*
X1736457Y3985693D02*
Y4072307D01*
Y3985693D02*
X1793543D01*
X1736457Y4072307D02*
X1793543D01*
X726630Y3917694D02*
Y4004308D01*
X783716Y3917694D02*
Y4004308D01*
X726630D02*
X783716D01*
X726630Y3917694D02*
X783716D01*
X368346Y4711812D02*
X411654D01*
X368346Y4688190D02*
X411654D01*
Y4711812D01*
X368346Y4688190D02*
Y4711812D01*
X106812Y4538346D02*
Y4581654D01*
X83190Y4538346D02*
Y4581654D01*
Y4538346D02*
X106812D01*
X83190Y4581654D02*
X106812D01*
X266190Y4545346D02*
Y4588654D01*
X289812Y4545346D02*
Y4588654D01*
X266190D02*
X289812D01*
X266190Y4545346D02*
X289812D01*
X84174Y4774330D02*
X105828D01*
X84174Y4815670D02*
X105828D01*
Y4774330D02*
Y4815670D01*
X84174Y4774330D02*
Y4815670D01*
X550670Y4809172D02*
Y4830826D01*
X509330Y4809172D02*
Y4830826D01*
X550670D01*
X509330Y4809172D02*
X550670D01*
X839252Y3589418D02*
Y3766582D01*
X1099094Y3589418D02*
Y3766582D01*
X839252D02*
X1099094D01*
X839252Y3589418D02*
X1099094D01*
X216260Y4746574D02*
Y4943426D01*
X373740Y4746574D02*
Y4943426D01*
X216260Y4746574D02*
X373740D01*
X216260Y4943426D02*
X373740D01*
X1174653Y3826189D02*
Y3849811D01*
X1131346Y3826189D02*
Y3849811D01*
X1174653D01*
X1131346Y3826189D02*
X1174653D01*
X1230173Y4228669D02*
X1251827D01*
X1230173Y4187331D02*
X1251827D01*
X1230173D02*
Y4228669D01*
X1251827Y4187331D02*
Y4228669D01*
X267173Y4642331D02*
X288827D01*
X267173Y4683669D02*
X288827D01*
Y4642331D02*
Y4683669D01*
X267173Y4642331D02*
Y4683669D01*
X1174173Y4187331D02*
X1195827D01*
X1174173Y4228669D02*
X1195827D01*
Y4187331D02*
Y4228669D01*
X1174173Y4187331D02*
Y4228669D01*
%TF.MD5,67d86483a270a8f4e83563c8f857fb20*%
M02*
