%TF.GenerationSoftware,Altium Limited,Altium Designer,19.1.6 (110)*%
G04 Layer_Color=32896*
%FSLAX26Y26*%
%MOIN*%
%TF.FileFunction,Legend,Bot*%
%TF.Part,Single*%
G01*
G75*
%TA.AperFunction,NonConductor*%
%ADD51C,0.009842*%
%ADD52C,0.023622*%
%ADD53C,0.007874*%
%ADD54C,0.005906*%
G36*
X2179365Y2972247D02*
Y1239963D01*
X2376215D01*
Y2972247D01*
X2179365D01*
D02*
G37*
G36*
X373148Y3720471D02*
X373151Y1279529D01*
X570001D01*
X569999Y3720471D01*
X373148D01*
D02*
G37*
D51*
X1081929Y4028071D02*
G03*
X1081929Y4028071I-4921J0D01*
G01*
X824213Y4097598D02*
G03*
X824213Y4097598I-4921J0D01*
G01*
X1117795Y3564811D02*
G03*
X1117795Y3564811I-4921J0D01*
G01*
X188701Y4735551D02*
G03*
X188701Y4735551I-4921J0D01*
G01*
D52*
X879331Y4015905D02*
G03*
X879331Y4015905I-11811J0D01*
G01*
X1071535Y3644535D02*
G03*
X1071535Y3644535I-11811J0D01*
G01*
X283189Y4785945D02*
G03*
X283189Y4785945I-11811J0D01*
G01*
D53*
X1087836Y3950316D02*
Y3989686D01*
X1209882Y3950316D02*
Y3989686D01*
X1087836D02*
X1209882D01*
X1087836Y3950316D02*
X1209882D01*
X950198Y3964724D02*
Y4055276D01*
X828150Y3964724D02*
Y4055276D01*
Y3964724D02*
X950198D01*
X828150Y4055276D02*
X950198D01*
X1791575Y4027032D02*
Y4030968D01*
X1738425Y4027032D02*
Y4030968D01*
X728598Y3959032D02*
Y3962968D01*
X781748Y3959032D02*
Y3962968D01*
X839252Y3605166D02*
Y3750834D01*
X1099094Y3605166D02*
Y3750834D01*
X839252D02*
X1099094D01*
X839252Y3605166D02*
X1099094D01*
X232008Y4746574D02*
Y4943426D01*
X357992Y4746574D02*
Y4943426D01*
X232008Y4746574D02*
X357992D01*
X232008Y4943426D02*
X357992D01*
D54*
X310321Y3659518D02*
X330000D01*
Y3644759D01*
X320161Y3649679D01*
X315241D01*
X310321Y3644759D01*
Y3634920D01*
X315241Y3630000D01*
X325080D01*
X330000Y3634920D01*
X300482Y3659518D02*
Y3639839D01*
X290642Y3630000D01*
X280803Y3639839D01*
Y3659518D01*
X201913Y4352492D02*
X203319Y4355304D01*
X206131Y4358115D01*
X208942Y4359521D01*
X214565D01*
X217377Y4358115D01*
X220188Y4355304D01*
X221594Y4352492D01*
X223000Y4348275D01*
Y4341246D01*
X221594Y4337029D01*
X220188Y4334217D01*
X217377Y4331406D01*
X214565Y4330000D01*
X208942D01*
X206131Y4331406D01*
X203319Y4334217D01*
X201913Y4337029D01*
X193619Y4359521D02*
Y4330000D01*
Y4359521D02*
X173939Y4330000D01*
Y4359521D02*
Y4330000D01*
X165785Y4353898D02*
X162973Y4355304D01*
X158756Y4359521D01*
Y4330000D01*
X2577913Y4386492D02*
X2579319Y4389304D01*
X2582131Y4392115D01*
X2584942Y4393521D01*
X2590565D01*
X2593377Y4392115D01*
X2596188Y4389304D01*
X2597594Y4386492D01*
X2599000Y4382275D01*
Y4375246D01*
X2597594Y4371029D01*
X2596188Y4368217D01*
X2593377Y4365406D01*
X2590565Y4364000D01*
X2584942D01*
X2582131Y4365406D01*
X2579319Y4368217D01*
X2577913Y4371029D01*
X2569619Y4393521D02*
Y4364000D01*
Y4393521D02*
X2549939Y4364000D01*
Y4393521D02*
Y4364000D01*
X2540379Y4386492D02*
Y4387898D01*
X2538973Y4390710D01*
X2537568Y4392115D01*
X2534756Y4393521D01*
X2529133D01*
X2526322Y4392115D01*
X2524916Y4390710D01*
X2523510Y4387898D01*
Y4385087D01*
X2524916Y4382275D01*
X2527727Y4378058D01*
X2541785Y4364000D01*
X2522104D01*
X320000Y3440000D02*
Y3469518D01*
X300321Y3440000D01*
Y3469518D01*
X270803Y3464598D02*
X275723Y3469518D01*
X285562D01*
X290482Y3464598D01*
Y3444920D01*
X285562Y3440000D01*
X275723D01*
X270803Y3444920D01*
X360000Y3840000D02*
Y3869518D01*
X345241D01*
X340321Y3864598D01*
Y3854759D01*
X345241Y3849839D01*
X360000D01*
X310803Y3864598D02*
X315723Y3869518D01*
X325562D01*
X330482Y3864598D01*
Y3844920D01*
X325562Y3840000D01*
X315723D01*
X310803Y3844920D01*
X300964Y3840000D02*
X291124D01*
X296044D01*
Y3869518D01*
X300964Y3864598D01*
X276365Y3840000D02*
X266526D01*
X271446D01*
Y3869518D01*
X276365Y3864598D01*
X340000Y3730000D02*
Y3759518D01*
X325241D01*
X320321Y3754598D01*
Y3744759D01*
X325241Y3739839D01*
X340000D01*
X310482Y3759518D02*
Y3730000D01*
X295723D01*
X290803Y3734920D01*
Y3754598D01*
X295723Y3759518D01*
X310482D01*
X261285Y3730000D02*
X280964D01*
X261285Y3749679D01*
Y3754598D01*
X266205Y3759518D01*
X276044D01*
X280964Y3754598D01*
X320321Y3554598D02*
X325241Y3559518D01*
X335080D01*
X340000Y3554598D01*
Y3534920D01*
X335080Y3530000D01*
X325241D01*
X320321Y3534920D01*
Y3544759D01*
X330161D01*
X310482Y3530000D02*
Y3559518D01*
X290803Y3530000D01*
Y3559518D01*
X280964D02*
Y3530000D01*
X266205D01*
X261285Y3534920D01*
Y3554598D01*
X266205Y3559518D01*
X280964D01*
X370000Y3344759D02*
X350321D01*
X360161Y3354598D02*
Y3334920D01*
X340482Y3354598D02*
X335562Y3359518D01*
X325723D01*
X320803Y3354598D01*
Y3349679D01*
X325723Y3344759D01*
X330642D01*
X325723D01*
X320803Y3339839D01*
Y3334920D01*
X325723Y3330000D01*
X335562D01*
X340482Y3334920D01*
X310964Y3359518D02*
Y3339839D01*
X301124Y3330000D01*
X291285Y3339839D01*
Y3359518D01*
X281446Y3354598D02*
X276526Y3359518D01*
X266687D01*
X261767Y3354598D01*
Y3349679D01*
X266687Y3344759D01*
X271606D01*
X266687D01*
X261767Y3339839D01*
Y3334920D01*
X266687Y3330000D01*
X276526D01*
X281446Y3334920D01*
X360000Y3230000D02*
Y3259518D01*
X340321Y3230000D01*
Y3259518D01*
X330482Y3230000D02*
Y3259518D01*
X315723D01*
X310803Y3254598D01*
Y3244759D01*
X315723Y3239839D01*
X330482D01*
X320642D02*
X310803Y3230000D01*
X281285Y3254598D02*
X286205Y3259518D01*
X296044D01*
X300964Y3254598D01*
Y3249679D01*
X296044Y3244759D01*
X286205D01*
X281285Y3239839D01*
Y3234920D01*
X286205Y3230000D01*
X296044D01*
X300964Y3234920D01*
X271446Y3259518D02*
X251767D01*
X261606D01*
Y3230000D01*
X340000Y3164598D02*
X335080Y3169518D01*
X325241D01*
X320321Y3164598D01*
Y3159679D01*
X325241Y3154759D01*
X330161D01*
X325241D01*
X320321Y3149839D01*
Y3144920D01*
X325241Y3140000D01*
X335080D01*
X340000Y3144920D01*
X310482Y3169518D02*
Y3149839D01*
X300642Y3140000D01*
X290803Y3149839D01*
Y3169518D01*
X280964Y3164598D02*
X276044Y3169518D01*
X266205D01*
X261285Y3164598D01*
Y3159679D01*
X266205Y3154759D01*
X271124D01*
X266205D01*
X261285Y3149839D01*
Y3144920D01*
X266205Y3140000D01*
X276044D01*
X280964Y3144920D01*
X350000Y3054759D02*
X330321D01*
X340161Y3064598D02*
Y3044920D01*
X300803Y3069518D02*
X320482D01*
Y3054759D01*
X310642Y3059679D01*
X305723D01*
X300803Y3054759D01*
Y3044920D01*
X305723Y3040000D01*
X315562D01*
X320482Y3044920D01*
X290964Y3069518D02*
Y3049839D01*
X281124Y3040000D01*
X271285Y3049839D01*
Y3069518D01*
X320321Y2964598D02*
X325241Y2969518D01*
X335080D01*
X340000Y2964598D01*
Y2944920D01*
X335080Y2940000D01*
X325241D01*
X320321Y2944920D01*
Y2954759D01*
X330161D01*
X310482Y2940000D02*
Y2969518D01*
X290803Y2940000D01*
Y2969518D01*
X280964D02*
Y2940000D01*
X266205D01*
X261285Y2944920D01*
Y2964598D01*
X266205Y2969518D01*
X280964D01*
X320321Y2854598D02*
X325241Y2859518D01*
X335080D01*
X340000Y2854598D01*
Y2834920D01*
X335080Y2830000D01*
X325241D01*
X320321Y2834920D01*
Y2844759D01*
X330161D01*
X310482Y2830000D02*
Y2859518D01*
X290803Y2830000D01*
Y2859518D01*
X280964D02*
Y2830000D01*
X266205D01*
X261285Y2834920D01*
Y2854598D01*
X266205Y2859518D01*
X280964D01*
X347795Y2229956D02*
Y2259474D01*
X333036D01*
X328117Y2254554D01*
Y2244715D01*
X333036Y2239795D01*
X347795D01*
X318277Y2259474D02*
Y2229956D01*
X303518D01*
X298599Y2234875D01*
Y2239795D01*
X303518Y2244715D01*
X318277D01*
X303518D01*
X298599Y2249634D01*
Y2254554D01*
X303518Y2259474D01*
X318277D01*
X288759Y2254554D02*
X283839Y2259474D01*
X274000D01*
X269080Y2254554D01*
Y2234875D01*
X274000Y2229956D01*
X283839D01*
X288759Y2234875D01*
Y2254554D01*
X347807Y2333956D02*
Y2363474D01*
X333048D01*
X328128Y2358554D01*
Y2348715D01*
X333048Y2343795D01*
X347807D01*
X318288Y2333956D02*
Y2353634D01*
X308449Y2363474D01*
X298610Y2353634D01*
Y2333956D01*
Y2348715D01*
X318288D01*
X274011Y2333956D02*
Y2363474D01*
X288770Y2348715D01*
X269092D01*
X335795Y2429956D02*
Y2459474D01*
X321036D01*
X316117Y2454554D01*
Y2444715D01*
X321036Y2439795D01*
X335795D01*
X306277Y2429956D02*
Y2449634D01*
X296438Y2459474D01*
X286599Y2449634D01*
Y2429956D01*
Y2444715D01*
X306277D01*
X276759Y2429956D02*
X266920D01*
X271839D01*
Y2459474D01*
X276759Y2454554D01*
X347795Y2531956D02*
Y2561474D01*
X333036D01*
X328117Y2556554D01*
Y2546715D01*
X333036Y2541795D01*
X347795D01*
X318277Y2531956D02*
Y2551634D01*
X308438Y2561474D01*
X298599Y2551634D01*
Y2531956D01*
Y2546715D01*
X318277D01*
X288759Y2556554D02*
X283839Y2561474D01*
X274000D01*
X269080Y2556554D01*
Y2536875D01*
X274000Y2531956D01*
X283839D01*
X288759Y2536875D01*
Y2556554D01*
X340000Y2769518D02*
Y2749839D01*
X330161Y2740000D01*
X320321Y2749839D01*
Y2769518D01*
X310482D02*
X300642D01*
X305562D01*
Y2740000D01*
X310482D01*
X300642D01*
X285884D02*
Y2769518D01*
X266205Y2740000D01*
Y2769518D01*
X340000Y1530000D02*
Y1559518D01*
X325241D01*
X320321Y1554598D01*
Y1544759D01*
X325241Y1539839D01*
X340000D01*
X290803Y1559518D02*
X310482D01*
Y1530000D01*
X290803D01*
X310482Y1544759D02*
X300642D01*
X261285Y1530000D02*
X280964D01*
X261285Y1549679D01*
Y1554598D01*
X266205Y1559518D01*
X276044D01*
X280964Y1554598D01*
X347795Y1827956D02*
Y1857474D01*
X333036D01*
X328117Y1852554D01*
Y1842715D01*
X333036Y1837795D01*
X347795D01*
X318277Y1857474D02*
Y1827956D01*
X303518D01*
X298599Y1832875D01*
Y1852554D01*
X303518Y1857474D01*
X318277D01*
X288759Y1852554D02*
X283839Y1857474D01*
X274000D01*
X269080Y1852554D01*
Y1847634D01*
X274000Y1842715D01*
X278920D01*
X274000D01*
X269080Y1837795D01*
Y1832875D01*
X274000Y1827956D01*
X283839D01*
X288759Y1832875D01*
X340000Y2030000D02*
Y2059518D01*
X325241D01*
X320321Y2054598D01*
Y2044759D01*
X325241Y2039839D01*
X340000D01*
X290803Y2054598D02*
X295723Y2059518D01*
X305562D01*
X310482Y2054598D01*
Y2034920D01*
X305562Y2030000D01*
X295723D01*
X290803Y2034920D01*
X280964Y2054598D02*
X276044Y2059518D01*
X266205D01*
X261285Y2054598D01*
Y2034920D01*
X266205Y2030000D01*
X276044D01*
X280964Y2034920D01*
Y2054598D01*
X335795Y2126956D02*
Y2156474D01*
X321036D01*
X316117Y2151554D01*
Y2141715D01*
X321036Y2136795D01*
X335795D01*
X286599Y2151554D02*
X291518Y2156474D01*
X301358D01*
X306277Y2151554D01*
Y2131875D01*
X301358Y2126956D01*
X291518D01*
X286599Y2131875D01*
X276759Y2126956D02*
X266920D01*
X271839D01*
Y2156474D01*
X276759Y2151554D01*
X337795Y1028956D02*
Y1058474D01*
X323036D01*
X318117Y1053554D01*
Y1043715D01*
X323036Y1038795D01*
X337795D01*
X288599Y1058474D02*
X308277D01*
Y1043715D01*
X298438D01*
X308277D01*
Y1028956D01*
X278759Y1033875D02*
X273839Y1028956D01*
X264000D01*
X259080Y1033875D01*
Y1053554D01*
X264000Y1058474D01*
X273839D01*
X278759Y1053554D01*
Y1048634D01*
X273839Y1043715D01*
X259080D01*
X337795Y1128956D02*
Y1158474D01*
X323036D01*
X318117Y1153554D01*
Y1143715D01*
X323036Y1138795D01*
X337795D01*
X288599Y1158474D02*
X308277D01*
Y1143715D01*
X298438D01*
X308277D01*
Y1128956D01*
X278759Y1153554D02*
X273839Y1158474D01*
X264000D01*
X259080Y1153554D01*
Y1148634D01*
X264000Y1143715D01*
X259080Y1138795D01*
Y1133875D01*
X264000Y1128956D01*
X273839D01*
X278759Y1133875D01*
Y1138795D01*
X273839Y1143715D01*
X278759Y1148634D01*
Y1153554D01*
X273839Y1143715D02*
X264000D01*
X337807Y1433956D02*
Y1463474D01*
X323048D01*
X318128Y1458554D01*
Y1448715D01*
X323048Y1443795D01*
X337807D01*
X288610Y1463474D02*
X308288D01*
Y1433956D01*
X288610D01*
X308288Y1448715D02*
X298449D01*
X264011Y1433956D02*
Y1463474D01*
X278770Y1448715D01*
X259092D01*
X366964Y337955D02*
Y367474D01*
X352205D01*
X347285Y362554D01*
Y352714D01*
X352205Y347795D01*
X366964D01*
X317767Y362554D02*
X322687Y367474D01*
X332526D01*
X337446Y362554D01*
Y342875D01*
X332526Y337955D01*
X322687D01*
X317767Y342875D01*
Y352714D01*
X327606D01*
X307928Y337955D02*
X298088D01*
X303008D01*
Y367474D01*
X307928Y362554D01*
X283329Y337955D02*
X273490D01*
X278409D01*
Y367474D01*
X283329Y362554D01*
X366964Y432955D02*
Y462474D01*
X352205D01*
X347285Y457554D01*
Y447714D01*
X352205Y442795D01*
X366964D01*
X317767Y457554D02*
X322687Y462474D01*
X332526D01*
X337446Y457554D01*
Y437875D01*
X332526Y432955D01*
X322687D01*
X317767Y437875D01*
Y447714D01*
X327606D01*
X307928Y432955D02*
X298088D01*
X303008D01*
Y462474D01*
X307928Y457554D01*
X283329D02*
X278409Y462474D01*
X268570D01*
X263651Y457554D01*
Y452634D01*
X268570Y447714D01*
X273490D01*
X268570D01*
X263651Y442795D01*
Y437875D01*
X268570Y432955D01*
X278409D01*
X283329Y437875D01*
X366964Y533956D02*
Y563474D01*
X352205D01*
X347285Y558554D01*
Y548715D01*
X352205Y543795D01*
X366964D01*
X317767Y558554D02*
X322687Y563474D01*
X332526D01*
X337446Y558554D01*
Y538875D01*
X332526Y533956D01*
X322687D01*
X317767Y538875D01*
Y548715D01*
X327606D01*
X307928Y533956D02*
X298088D01*
X303008D01*
Y563474D01*
X307928Y558554D01*
X283329D02*
X278409Y563474D01*
X268570D01*
X263651Y558554D01*
Y538875D01*
X268570Y533956D01*
X278409D01*
X283329Y538875D01*
Y558554D01*
X340000Y740000D02*
Y769518D01*
X325241D01*
X320321Y764598D01*
Y754759D01*
X325241Y749839D01*
X340000D01*
X290803Y769518D02*
X310482D01*
Y740000D01*
X290803D01*
X310482Y754759D02*
X300642D01*
X261285Y769518D02*
X271124Y764598D01*
X280964Y754759D01*
Y744920D01*
X276044Y740000D01*
X266205D01*
X261285Y744920D01*
Y749839D01*
X266205Y754759D01*
X280964D01*
X322172Y858428D02*
X327091Y863348D01*
X336931D01*
X341850Y858428D01*
Y838749D01*
X336931Y833830D01*
X327091D01*
X322172Y838749D01*
Y848588D01*
X332011D01*
X312332Y833830D02*
Y863348D01*
X292654Y833830D01*
Y863348D01*
X282814D02*
Y833830D01*
X268055D01*
X263135Y838749D01*
Y858428D01*
X268055Y863348D01*
X282814D01*
X337795Y1322956D02*
Y1352474D01*
X323036D01*
X318117Y1347554D01*
Y1337715D01*
X323036Y1332795D01*
X337795D01*
X288599Y1352474D02*
X308277D01*
Y1322956D01*
X288599D01*
X308277Y1337715D02*
X298438D01*
X259080Y1352474D02*
X278759D01*
Y1337715D01*
X268920Y1342634D01*
X264000D01*
X259080Y1337715D01*
Y1327875D01*
X264000Y1322956D01*
X273839D01*
X278759Y1327875D01*
X2470321Y3354598D02*
X2475241Y3359518D01*
X2485080D01*
X2490000Y3354598D01*
Y3334920D01*
X2485080Y3330000D01*
X2475241D01*
X2470321Y3334920D01*
Y3344759D01*
X2480161D01*
X2460482Y3330000D02*
Y3359518D01*
X2440803Y3330000D01*
Y3359518D01*
X2430964D02*
Y3330000D01*
X2416205D01*
X2411285Y3334920D01*
Y3354598D01*
X2416205Y3359518D01*
X2430964D01*
X2490000Y3459518D02*
Y3439839D01*
X2480161Y3430000D01*
X2470321Y3439839D01*
Y3459518D01*
X2460482Y3430000D02*
Y3459518D01*
X2445723D01*
X2440803Y3454598D01*
Y3444759D01*
X2445723Y3439839D01*
X2460482D01*
X2450642D02*
X2440803Y3430000D01*
X2411285Y3459518D02*
X2430964D01*
Y3430000D01*
X2411285D01*
X2430964Y3444759D02*
X2421124D01*
X2381767Y3459518D02*
X2401446D01*
Y3444759D01*
X2391606D01*
X2401446D01*
Y3430000D01*
X2371928Y3444759D02*
X2352249D01*
X2362088Y3454598D02*
Y3434920D01*
X2490000Y3530000D02*
Y3559518D01*
X2475241D01*
X2470321Y3554598D01*
Y3544759D01*
X2475241Y3539839D01*
X2490000D01*
X2460482Y3559518D02*
Y3530000D01*
X2445723D01*
X2440803Y3534920D01*
Y3539839D01*
X2445723Y3544759D01*
X2460482D01*
X2445723D01*
X2440803Y3549679D01*
Y3554598D01*
X2445723Y3559518D01*
X2460482D01*
X2430964Y3534920D02*
X2426044Y3530000D01*
X2416205D01*
X2411285Y3534920D01*
Y3554598D01*
X2416205Y3559518D01*
X2426044D01*
X2430964Y3554598D01*
Y3549679D01*
X2426044Y3544759D01*
X2411285D01*
X2490000Y3630000D02*
Y3659518D01*
X2475241D01*
X2470321Y3654598D01*
Y3644759D01*
X2475241Y3639839D01*
X2490000D01*
X2460482Y3659518D02*
Y3630000D01*
X2445723D01*
X2440803Y3634920D01*
Y3639839D01*
X2445723Y3644759D01*
X2460482D01*
X2445723D01*
X2440803Y3649679D01*
Y3654598D01*
X2445723Y3659518D01*
X2460482D01*
X2430964Y3654598D02*
X2426044Y3659518D01*
X2416205D01*
X2411285Y3654598D01*
Y3649679D01*
X2416205Y3644759D01*
X2411285Y3639839D01*
Y3634920D01*
X2416205Y3630000D01*
X2426044D01*
X2430964Y3634920D01*
Y3639839D01*
X2426044Y3644759D01*
X2430964Y3649679D01*
Y3654598D01*
X2426044Y3644759D02*
X2416205D01*
X2480000Y3740000D02*
Y3769518D01*
X2465241D01*
X2460321Y3764598D01*
Y3754759D01*
X2465241Y3749839D01*
X2480000D01*
X2430803Y3764598D02*
X2435723Y3769518D01*
X2445562D01*
X2450482Y3764598D01*
Y3744920D01*
X2445562Y3740000D01*
X2435723D01*
X2430803Y3744920D01*
X2420964D02*
X2416044Y3740000D01*
X2406205D01*
X2401285Y3744920D01*
Y3764598D01*
X2406205Y3769518D01*
X2416044D01*
X2420964Y3764598D01*
Y3759679D01*
X2416044Y3754759D01*
X2401285D01*
X2490000Y2840000D02*
Y2869518D01*
X2475241D01*
X2470321Y2864598D01*
Y2854759D01*
X2475241Y2849839D01*
X2490000D01*
X2440803Y2864598D02*
X2445723Y2869518D01*
X2455562D01*
X2460482Y2864598D01*
Y2844920D01*
X2455562Y2840000D01*
X2445723D01*
X2440803Y2844920D01*
X2430964Y2869518D02*
X2411285D01*
Y2864598D01*
X2430964Y2844920D01*
Y2840000D01*
X2490000Y2930000D02*
Y2959518D01*
X2475241D01*
X2470321Y2954598D01*
Y2944759D01*
X2475241Y2939839D01*
X2490000D01*
X2460482Y2959518D02*
Y2930000D01*
X2445723D01*
X2440803Y2934920D01*
Y2939839D01*
X2445723Y2944759D01*
X2460482D01*
X2445723D01*
X2440803Y2949679D01*
Y2954598D01*
X2445723Y2959518D01*
X2460482D01*
X2411285D02*
X2421124Y2954598D01*
X2430964Y2944759D01*
Y2934920D01*
X2426044Y2930000D01*
X2416205D01*
X2411285Y2934920D01*
Y2939839D01*
X2416205Y2944759D01*
X2430964D01*
X2490000Y3030000D02*
Y3059518D01*
X2475241D01*
X2470321Y3054598D01*
Y3044759D01*
X2475241Y3039839D01*
X2490000D01*
X2460482Y3030000D02*
Y3049679D01*
X2450642Y3059518D01*
X2440803Y3049679D01*
Y3030000D01*
Y3044759D01*
X2460482D01*
X2430964Y3059518D02*
X2411285D01*
Y3054598D01*
X2430964Y3034920D01*
Y3030000D01*
X2490000Y3130000D02*
Y3159518D01*
X2475241D01*
X2470321Y3154598D01*
Y3144759D01*
X2475241Y3139839D01*
X2490000D01*
X2460482Y3130000D02*
Y3149679D01*
X2450642Y3159518D01*
X2440803Y3149679D01*
Y3130000D01*
Y3144759D01*
X2460482D01*
X2411285Y3159518D02*
X2421124Y3154598D01*
X2430964Y3144759D01*
Y3134920D01*
X2426044Y3130000D01*
X2416205D01*
X2411285Y3134920D01*
Y3139839D01*
X2416205Y3144759D01*
X2430964D01*
X2490000Y3230000D02*
Y3259518D01*
X2475241D01*
X2470321Y3254598D01*
Y3244759D01*
X2475241Y3239839D01*
X2490000D01*
X2460482Y3230000D02*
Y3249679D01*
X2450642Y3259518D01*
X2440803Y3249679D01*
Y3230000D01*
Y3244759D01*
X2460482D01*
X2411285Y3259518D02*
X2430964D01*
Y3244759D01*
X2421124Y3249679D01*
X2416205D01*
X2411285Y3244759D01*
Y3234920D01*
X2416205Y3230000D01*
X2426044D01*
X2430964Y3234920D01*
X2480000Y2330000D02*
Y2359518D01*
X2465241D01*
X2460321Y2354598D01*
Y2344759D01*
X2465241Y2339839D01*
X2480000D01*
X2450482Y2359518D02*
Y2330000D01*
X2435723D01*
X2430803Y2334920D01*
Y2339839D01*
X2435723Y2344759D01*
X2450482D01*
X2435723D01*
X2430803Y2349679D01*
Y2354598D01*
X2435723Y2359518D01*
X2450482D01*
X2401285D02*
X2420964D01*
Y2344759D01*
X2411124Y2349679D01*
X2406205D01*
X2401285Y2344759D01*
Y2334920D01*
X2406205Y2330000D01*
X2416044D01*
X2420964Y2334920D01*
X2480000Y2430000D02*
Y2459518D01*
X2465241D01*
X2460321Y2454598D01*
Y2444759D01*
X2465241Y2439839D01*
X2480000D01*
X2450482Y2459518D02*
Y2430000D01*
X2435723D01*
X2430803Y2434920D01*
Y2439839D01*
X2435723Y2444759D01*
X2450482D01*
X2435723D01*
X2430803Y2449679D01*
Y2454598D01*
X2435723Y2459518D01*
X2450482D01*
X2406205Y2430000D02*
Y2459518D01*
X2420964Y2444759D01*
X2401285D01*
X2490000Y2530000D02*
Y2559518D01*
X2475241D01*
X2470321Y2554598D01*
Y2544759D01*
X2475241Y2539839D01*
X2490000D01*
X2460482Y2559518D02*
Y2530000D01*
X2445723D01*
X2440803Y2534920D01*
Y2539839D01*
X2445723Y2544759D01*
X2460482D01*
X2445723D01*
X2440803Y2549679D01*
Y2554598D01*
X2445723Y2559518D01*
X2460482D01*
X2430964Y2530000D02*
X2421124D01*
X2426044D01*
Y2559518D01*
X2430964Y2554598D01*
X2406365D02*
X2401446Y2559518D01*
X2391606D01*
X2386687Y2554598D01*
Y2534920D01*
X2391606Y2530000D01*
X2401446D01*
X2406365Y2534920D01*
Y2554598D01*
X2490000Y2630000D02*
Y2659518D01*
X2475241D01*
X2470321Y2654598D01*
Y2644759D01*
X2475241Y2639839D01*
X2490000D01*
X2460482Y2630000D02*
Y2649679D01*
X2450642Y2659518D01*
X2440803Y2649679D01*
Y2630000D01*
Y2644759D01*
X2460482D01*
X2430964Y2654598D02*
X2426044Y2659518D01*
X2416205D01*
X2411285Y2654598D01*
Y2649679D01*
X2416205Y2644759D01*
X2411285Y2639839D01*
Y2634920D01*
X2416205Y2630000D01*
X2426044D01*
X2430964Y2634920D01*
Y2639839D01*
X2426044Y2644759D01*
X2430964Y2649679D01*
Y2654598D01*
X2426044Y2644759D02*
X2416205D01*
X2490000Y2740000D02*
Y2769518D01*
X2475241D01*
X2470321Y2764598D01*
Y2754759D01*
X2475241Y2749839D01*
X2490000D01*
X2460482Y2740000D02*
Y2759679D01*
X2450642Y2769518D01*
X2440803Y2759679D01*
Y2740000D01*
Y2754759D01*
X2460482D01*
X2430964Y2744920D02*
X2426044Y2740000D01*
X2416205D01*
X2411285Y2744920D01*
Y2764598D01*
X2416205Y2769518D01*
X2426044D01*
X2430964Y2764598D01*
Y2759679D01*
X2426044Y2754759D01*
X2411285D01*
X2460321Y1864598D02*
X2465241Y1869518D01*
X2475080D01*
X2480000Y1864598D01*
Y1844920D01*
X2475080Y1840000D01*
X2465241D01*
X2460321Y1844920D01*
Y1854759D01*
X2470161D01*
X2450482Y1840000D02*
Y1869518D01*
X2430803Y1840000D01*
Y1869518D01*
X2420964D02*
Y1840000D01*
X2406205D01*
X2401285Y1844920D01*
Y1864598D01*
X2406205Y1869518D01*
X2420964D01*
X2480000Y1940000D02*
Y1969518D01*
X2465241D01*
X2460321Y1964598D01*
Y1954759D01*
X2465241Y1949839D01*
X2480000D01*
X2450482Y1940000D02*
Y1959679D01*
X2440642Y1969518D01*
X2430803Y1959679D01*
Y1940000D01*
Y1954759D01*
X2450482D01*
X2420964Y1964598D02*
X2416044Y1969518D01*
X2406205D01*
X2401285Y1964598D01*
Y1959679D01*
X2406205Y1954759D01*
X2411124D01*
X2406205D01*
X2401285Y1949839D01*
Y1944920D01*
X2406205Y1940000D01*
X2416044D01*
X2420964Y1944920D01*
X2480000Y2030000D02*
Y2059518D01*
X2465241D01*
X2460321Y2054598D01*
Y2044759D01*
X2465241Y2039839D01*
X2480000D01*
X2450482Y2030000D02*
Y2049679D01*
X2440642Y2059518D01*
X2430803Y2049679D01*
Y2030000D01*
Y2044759D01*
X2450482D01*
X2401285Y2030000D02*
X2420964D01*
X2401285Y2049679D01*
Y2054598D01*
X2406205Y2059518D01*
X2416044D01*
X2420964Y2054598D01*
X2500000Y2130000D02*
Y2159518D01*
X2485241D01*
X2480321Y2154598D01*
Y2144759D01*
X2485241Y2139839D01*
X2500000D01*
X2470482Y2130000D02*
Y2149679D01*
X2460642Y2159518D01*
X2450803Y2149679D01*
Y2130000D01*
Y2144759D01*
X2470482D01*
X2440964Y2130000D02*
X2431124D01*
X2436044D01*
Y2159518D01*
X2440964Y2154598D01*
X2416365D02*
X2411446Y2159518D01*
X2401606D01*
X2396687Y2154598D01*
Y2134920D01*
X2401606Y2130000D01*
X2411446D01*
X2416365Y2134920D01*
Y2154598D01*
X2478795Y2216956D02*
Y2246474D01*
X2464036D01*
X2459117Y2241554D01*
Y2231715D01*
X2464036Y2226795D01*
X2478795D01*
X2449277Y2246474D02*
Y2216956D01*
X2434518D01*
X2429599Y2221875D01*
Y2226795D01*
X2434518Y2231715D01*
X2449277D01*
X2434518D01*
X2429599Y2236634D01*
Y2241554D01*
X2434518Y2246474D01*
X2449277D01*
X2419759Y2241554D02*
X2414839Y2246474D01*
X2405000D01*
X2400080Y2241554D01*
Y2236634D01*
X2405000Y2231715D01*
X2409920D01*
X2405000D01*
X2400080Y2226795D01*
Y2221875D01*
X2405000Y2216956D01*
X2414839D01*
X2419759Y2221875D01*
X2490000Y1330000D02*
Y1359518D01*
X2475241D01*
X2470321Y1354598D01*
Y1344759D01*
X2475241Y1339839D01*
X2490000D01*
X2440803Y1359518D02*
X2460482D01*
Y1330000D01*
X2440803D01*
X2460482Y1344759D02*
X2450642D01*
X2430964Y1330000D02*
X2421124D01*
X2426044D01*
Y1359518D01*
X2430964Y1354598D01*
X2386687Y1330000D02*
X2406365D01*
X2386687Y1349679D01*
Y1354598D01*
X2391606Y1359518D01*
X2401446D01*
X2406365Y1354598D01*
X2490000Y1430000D02*
Y1459518D01*
X2475241D01*
X2470321Y1454598D01*
Y1444759D01*
X2475241Y1439839D01*
X2490000D01*
X2440803Y1459518D02*
X2460482D01*
Y1430000D01*
X2440803D01*
X2460482Y1444759D02*
X2450642D01*
X2430964Y1430000D02*
X2421124D01*
X2426044D01*
Y1459518D01*
X2430964Y1454598D01*
X2406365D02*
X2401446Y1459518D01*
X2391606D01*
X2386687Y1454598D01*
Y1434920D01*
X2391606Y1430000D01*
X2401446D01*
X2406365Y1434920D01*
Y1454598D01*
X2490000Y1530000D02*
Y1559518D01*
X2475241D01*
X2470321Y1554598D01*
Y1544759D01*
X2475241Y1539839D01*
X2490000D01*
X2460482Y1559518D02*
Y1530000D01*
X2445723D01*
X2440803Y1534920D01*
Y1554598D01*
X2445723Y1559518D01*
X2460482D01*
X2430964Y1530000D02*
X2421124D01*
X2426044D01*
Y1559518D01*
X2430964Y1554598D01*
X2406365Y1530000D02*
X2396526D01*
X2401446D01*
Y1559518D01*
X2406365Y1554598D01*
X2490000Y1630000D02*
Y1659518D01*
X2475241D01*
X2470321Y1654598D01*
Y1644759D01*
X2475241Y1639839D01*
X2490000D01*
X2460482Y1659518D02*
Y1630000D01*
X2445723D01*
X2440803Y1634920D01*
Y1654598D01*
X2445723Y1659518D01*
X2460482D01*
X2430964Y1630000D02*
X2421124D01*
X2426044D01*
Y1659518D01*
X2430964Y1654598D01*
X2386687Y1630000D02*
X2406365D01*
X2386687Y1649679D01*
Y1654598D01*
X2391606Y1659518D01*
X2401446D01*
X2406365Y1654598D01*
X2490000Y1730000D02*
Y1759518D01*
X2475241D01*
X2470321Y1754598D01*
Y1744759D01*
X2475241Y1739839D01*
X2490000D01*
X2460482Y1759518D02*
Y1730000D01*
X2445723D01*
X2440803Y1734920D01*
Y1754598D01*
X2445723Y1759518D01*
X2460482D01*
X2430964Y1730000D02*
X2421124D01*
X2426044D01*
Y1759518D01*
X2430964Y1754598D01*
X2406365D02*
X2401446Y1759518D01*
X2391606D01*
X2386687Y1754598D01*
Y1749679D01*
X2391606Y1744759D01*
X2396526D01*
X2391606D01*
X2386687Y1739839D01*
Y1734920D01*
X2391606Y1730000D01*
X2401446D01*
X2406365Y1734920D01*
X2480000Y1030000D02*
Y1059518D01*
X2465241D01*
X2460321Y1054598D01*
Y1044759D01*
X2465241Y1039839D01*
X2480000D01*
X2430803Y1059518D02*
X2450482D01*
Y1030000D01*
X2430803D01*
X2450482Y1044759D02*
X2440642D01*
X2420964Y1030000D02*
X2411124D01*
X2416044D01*
Y1059518D01*
X2420964Y1054598D01*
X2396365D02*
X2391446Y1059518D01*
X2381606D01*
X2376687Y1054598D01*
Y1049679D01*
X2381606Y1044759D01*
X2386526D01*
X2381606D01*
X2376687Y1039839D01*
Y1034920D01*
X2381606Y1030000D01*
X2391446D01*
X2396365Y1034920D01*
X2480000Y1130000D02*
Y1159518D01*
X2465241D01*
X2460321Y1154598D01*
Y1144759D01*
X2465241Y1139839D01*
X2480000D01*
X2430803Y1159518D02*
X2450482D01*
Y1130000D01*
X2430803D01*
X2450482Y1144759D02*
X2440642D01*
X2420964Y1130000D02*
X2411124D01*
X2416044D01*
Y1159518D01*
X2420964Y1154598D01*
X2376687Y1159518D02*
X2396365D01*
Y1144759D01*
X2386526Y1149679D01*
X2381606D01*
X2376687Y1144759D01*
Y1134920D01*
X2381606Y1130000D01*
X2391446D01*
X2396365Y1134920D01*
X2490000Y1230000D02*
Y1259518D01*
X2475241D01*
X2470321Y1254598D01*
Y1244759D01*
X2475241Y1239839D01*
X2490000D01*
X2440803Y1259518D02*
X2460482D01*
Y1230000D01*
X2440803D01*
X2460482Y1244759D02*
X2450642D01*
X2430964Y1230000D02*
X2421124D01*
X2426044D01*
Y1259518D01*
X2430964Y1254598D01*
X2391606Y1230000D02*
Y1259518D01*
X2406365Y1244759D01*
X2386687D01*
X2480000Y730000D02*
Y759518D01*
X2465241D01*
X2460321Y754598D01*
Y744759D01*
X2465241Y739839D01*
X2480000D01*
X2430803Y754598D02*
X2435723Y759518D01*
X2445562D01*
X2450482Y754598D01*
Y734920D01*
X2445562Y730000D01*
X2435723D01*
X2430803Y734920D01*
Y744759D01*
X2440642D01*
X2420964Y730000D02*
X2411124D01*
X2416044D01*
Y759518D01*
X2420964Y754598D01*
X2381606Y730000D02*
Y759518D01*
X2396365Y744759D01*
X2376687D01*
X2460321Y654598D02*
X2465241Y659518D01*
X2475080D01*
X2480000Y654598D01*
Y634920D01*
X2475080Y630000D01*
X2465241D01*
X2460321Y634920D01*
Y644759D01*
X2470161D01*
X2450482Y630000D02*
Y659518D01*
X2430803Y630000D01*
Y659518D01*
X2420964D02*
Y630000D01*
X2406205D01*
X2401285Y634920D01*
Y654598D01*
X2406205Y659518D01*
X2420964D01*
X2480000Y530000D02*
Y559518D01*
X2465241D01*
X2460321Y554598D01*
Y544759D01*
X2465241Y539839D01*
X2480000D01*
X2450482Y559518D02*
Y530000D01*
X2435723D01*
X2430803Y534920D01*
Y554598D01*
X2435723Y559518D01*
X2450482D01*
X2420964Y530000D02*
X2411124D01*
X2416044D01*
Y559518D01*
X2420964Y554598D01*
X2396365D02*
X2391446Y559518D01*
X2381606D01*
X2376687Y554598D01*
Y534920D01*
X2381606Y530000D01*
X2391446D01*
X2396365Y534920D01*
Y554598D01*
X2479331Y428039D02*
Y457558D01*
X2464572D01*
X2459652Y452638D01*
Y442798D01*
X2464572Y437879D01*
X2479331D01*
X2430134Y452638D02*
X2435054Y457558D01*
X2444893D01*
X2449813Y452638D01*
Y432959D01*
X2444893Y428039D01*
X2435054D01*
X2430134Y432959D01*
Y442798D01*
X2439973D01*
X2420294Y457558D02*
X2400616D01*
Y452638D01*
X2420294Y432959D01*
Y428039D01*
X320000Y2630000D02*
Y2659518D01*
X300321Y2630000D01*
Y2659518D01*
X270803Y2654598D02*
X275723Y2659518D01*
X285562D01*
X290482Y2654598D01*
Y2634920D01*
X285562Y2630000D01*
X275723D01*
X270803Y2634920D01*
X324291Y1734420D02*
Y1763938D01*
X304613Y1734420D01*
Y1763938D01*
X275095Y1759018D02*
X280014Y1763938D01*
X289854D01*
X294773Y1759018D01*
Y1739340D01*
X289854Y1734420D01*
X280014D01*
X275095Y1739340D01*
X325276Y1636979D02*
Y1666497D01*
X305597Y1636979D01*
Y1666497D01*
X276079Y1661578D02*
X280999Y1666497D01*
X290838D01*
X295758Y1661578D01*
Y1641899D01*
X290838Y1636979D01*
X280999D01*
X276079Y1641899D01*
X317244Y1234420D02*
Y1263938D01*
X297565Y1234420D01*
Y1263938D01*
X268047Y1259018D02*
X272967Y1263938D01*
X282806D01*
X287726Y1259018D01*
Y1239340D01*
X282806Y1234420D01*
X272967D01*
X268047Y1239340D01*
X318228Y937176D02*
Y966694D01*
X298550Y937176D01*
Y966694D01*
X269032Y961774D02*
X273951Y966694D01*
X283791D01*
X288710Y961774D01*
Y942096D01*
X283791Y937176D01*
X273951D01*
X269032Y942096D01*
X362874Y635842D02*
Y665361D01*
X348115D01*
X343195Y660441D01*
Y650601D01*
X348115Y645682D01*
X362874D01*
X313677Y660441D02*
X318597Y665361D01*
X328436D01*
X333356Y660441D01*
Y640762D01*
X328436Y635842D01*
X318597D01*
X313677Y640762D01*
Y650601D01*
X323517D01*
X303838Y635842D02*
X293998D01*
X298918D01*
Y665361D01*
X303838Y660441D01*
X259561Y665361D02*
X279239D01*
Y650601D01*
X269400Y655521D01*
X264480D01*
X259561Y650601D01*
Y640762D01*
X264480Y635842D01*
X274320D01*
X279239Y640762D01*
X2477992Y926223D02*
Y955741D01*
X2458314Y926223D01*
Y955741D01*
X2428795Y950822D02*
X2433715Y955741D01*
X2443554D01*
X2448474Y950822D01*
Y931143D01*
X2443554Y926223D01*
X2433715D01*
X2428795Y931143D01*
X2479961Y824845D02*
Y854363D01*
X2460282Y824845D01*
Y854363D01*
X2430764Y849444D02*
X2435684Y854363D01*
X2445523D01*
X2450443Y849444D01*
Y829765D01*
X2445523Y824845D01*
X2435684D01*
X2430764Y829765D01*
X2480000Y330000D02*
Y359518D01*
X2465241D01*
X2460321Y354598D01*
Y344759D01*
X2465241Y339839D01*
X2480000D01*
X2430803Y354598D02*
X2435723Y359518D01*
X2445562D01*
X2450482Y354598D01*
Y334920D01*
X2445562Y330000D01*
X2435723D01*
X2430803Y334920D01*
Y344759D01*
X2440642D01*
X2406205Y330000D02*
Y359518D01*
X2420964Y344759D01*
X2401285D01*
X795000Y4119518D02*
Y4094920D01*
X790080Y4090000D01*
X780241D01*
X775321Y4094920D01*
Y4119518D01*
X765482Y4114598D02*
X760562Y4119518D01*
X750723D01*
X745803Y4114598D01*
Y4109679D01*
X750723Y4104759D01*
X755643D01*
X750723D01*
X745803Y4099839D01*
Y4094920D01*
X750723Y4090000D01*
X760562D01*
X765482Y4094920D01*
X859173Y4245000D02*
X888691D01*
Y4259759D01*
X883772Y4264679D01*
X873932D01*
X869013Y4259759D01*
Y4245000D01*
Y4254839D02*
X859173Y4264679D01*
X888691Y4294197D02*
Y4274518D01*
X873932D01*
X878852Y4284358D01*
Y4289277D01*
X873932Y4294197D01*
X864093D01*
X859173Y4289277D01*
Y4279438D01*
X864093Y4274518D01*
X919173Y4245000D02*
X948691D01*
Y4259759D01*
X943772Y4264679D01*
X933932D01*
X929013Y4259759D01*
Y4245000D01*
Y4254839D02*
X919173Y4264679D01*
Y4289277D02*
X948691D01*
X933932Y4274518D01*
Y4294197D01*
X1844598Y3994679D02*
X1849518Y3989759D01*
Y3979920D01*
X1844598Y3975000D01*
X1824920D01*
X1820000Y3979920D01*
Y3989759D01*
X1824920Y3994679D01*
X1820000Y4004518D02*
Y4014358D01*
Y4009438D01*
X1849518D01*
X1844598Y4004518D01*
X1849518Y4048795D02*
X1844598Y4038956D01*
X1834759Y4029117D01*
X1824920D01*
X1820000Y4034036D01*
Y4043876D01*
X1824920Y4048795D01*
X1829839D01*
X1834759Y4043876D01*
Y4029117D01*
X685772Y3949679D02*
X690691Y3944759D01*
Y3934920D01*
X685772Y3930000D01*
X666093D01*
X661173Y3934920D01*
Y3944759D01*
X666093Y3949679D01*
X685772Y3959518D02*
X690691Y3964438D01*
Y3974277D01*
X685772Y3979197D01*
X680852D01*
X675932Y3974277D01*
Y3969358D01*
Y3974277D01*
X671013Y3979197D01*
X666093D01*
X661173Y3974277D01*
Y3964438D01*
X666093Y3959518D01*
X405321Y4654598D02*
X410241Y4659518D01*
X420080D01*
X425000Y4654598D01*
Y4634920D01*
X420080Y4630000D01*
X410241D01*
X405321Y4634920D01*
X375803Y4659518D02*
X395482D01*
Y4644759D01*
X385642Y4649679D01*
X380723D01*
X375803Y4644759D01*
Y4634920D01*
X380723Y4630000D01*
X390562D01*
X395482Y4634920D01*
X63598Y4557679D02*
X68518Y4552759D01*
Y4542920D01*
X63598Y4538000D01*
X43920D01*
X39000Y4542920D01*
Y4552759D01*
X43920Y4557679D01*
X68518Y4587197D02*
X63598Y4577358D01*
X53759Y4567518D01*
X43920D01*
X39000Y4572438D01*
Y4582277D01*
X43920Y4587197D01*
X48839D01*
X53759Y4582277D01*
Y4567518D01*
X334598Y4549679D02*
X339518Y4544759D01*
Y4534920D01*
X334598Y4530000D01*
X314920D01*
X310000Y4534920D01*
Y4544759D01*
X314920Y4549679D01*
X310000Y4574277D02*
X339518D01*
X324759Y4559518D01*
Y4579197D01*
X799173Y4246000D02*
X828691D01*
Y4260759D01*
X823772Y4265679D01*
X813932D01*
X809013Y4260759D01*
Y4246000D01*
Y4255839D02*
X799173Y4265679D01*
X828691Y4275518D02*
Y4295197D01*
X823772D01*
X804093Y4275518D01*
X799173D01*
X75000Y4850000D02*
X104518D01*
Y4864759D01*
X99598Y4869679D01*
X89759D01*
X84839Y4864759D01*
Y4850000D01*
Y4859839D02*
X75000Y4869679D01*
X79920Y4879518D02*
X75000Y4884438D01*
Y4894277D01*
X79920Y4899197D01*
X99598D01*
X104518Y4894277D01*
Y4884438D01*
X99598Y4879518D01*
X94679D01*
X89759Y4884438D01*
Y4899197D01*
X557000Y4860000D02*
Y4889518D01*
X542241D01*
X537321Y4884598D01*
Y4874759D01*
X542241Y4869839D01*
X557000D01*
X547161D02*
X537321Y4860000D01*
X527482D02*
X517643D01*
X522562D01*
Y4889518D01*
X527482Y4884598D01*
X502884D02*
X497964Y4889518D01*
X488125D01*
X483205Y4884598D01*
Y4864920D01*
X488125Y4860000D01*
X497964D01*
X502884Y4864920D01*
Y4884598D01*
X181000Y4588000D02*
Y4617518D01*
X166241D01*
X161321Y4612598D01*
Y4602759D01*
X166241Y4597839D01*
X181000D01*
X171161D02*
X161321Y4588000D01*
X151482D02*
X141643D01*
X146562D01*
Y4617518D01*
X151482Y4612598D01*
X126883Y4588000D02*
X117044D01*
X121964D01*
Y4617518D01*
X126883Y4612598D01*
X641000Y4744000D02*
Y4714482D01*
X655759D01*
X660679Y4719402D01*
Y4729241D01*
X655759Y4734161D01*
X641000D01*
X650839D02*
X660679Y4744000D01*
X670518D02*
X680357D01*
X675438D01*
Y4714482D01*
X670518Y4719402D01*
X695116D02*
X700036Y4714482D01*
X709875D01*
X714795Y4719402D01*
Y4724321D01*
X709875Y4729241D01*
X704956D01*
X709875D01*
X714795Y4734161D01*
Y4739080D01*
X709875Y4744000D01*
X700036D01*
X695116Y4739080D01*
X1517957Y4907366D02*
Y4877848D01*
X1532716D01*
X1537635Y4882768D01*
Y4892607D01*
X1532716Y4897527D01*
X1517957D01*
X1527796D02*
X1537635Y4907366D01*
X1567153D02*
X1547475D01*
X1567153Y4887688D01*
Y4882768D01*
X1562234Y4877848D01*
X1552394D01*
X1547475Y4882768D01*
X1576993Y4902447D02*
X1581912Y4907366D01*
X1591752D01*
X1596671Y4902447D01*
Y4882768D01*
X1591752Y4877848D01*
X1581912D01*
X1576993Y4882768D01*
Y4887688D01*
X1581912Y4892607D01*
X1596671D01*
X1870000Y4913071D02*
Y4883553D01*
X1884759D01*
X1889679Y4888472D01*
Y4898312D01*
X1884759Y4903231D01*
X1870000D01*
X1879839D02*
X1889679Y4913071D01*
X1899518Y4888472D02*
X1904438Y4883553D01*
X1914277D01*
X1919197Y4888472D01*
Y4893392D01*
X1914277Y4898312D01*
X1909358D01*
X1914277D01*
X1919197Y4903231D01*
Y4908151D01*
X1914277Y4913071D01*
X1904438D01*
X1899518Y4908151D01*
X1929036D02*
X1933956Y4913071D01*
X1943795D01*
X1948715Y4908151D01*
Y4888472D01*
X1943795Y4883553D01*
X1933956D01*
X1929036Y4888472D01*
Y4893392D01*
X1933956Y4898312D01*
X1948715D01*
X805000Y3694518D02*
Y3669920D01*
X800080Y3665000D01*
X790241D01*
X785321Y3669920D01*
Y3694518D01*
X775482Y3665000D02*
X765643D01*
X770562D01*
Y3694518D01*
X775482Y3689598D01*
X265000Y5014518D02*
Y4989920D01*
X260080Y4985000D01*
X250241D01*
X245321Y4989920D01*
Y5014518D01*
X220723Y4985000D02*
Y5014518D01*
X235482Y4999759D01*
X215803D01*
X1165000Y4104518D02*
Y4079920D01*
X1160080Y4075000D01*
X1150241D01*
X1145321Y4079920D01*
Y4104518D01*
X1115803D02*
X1135482D01*
Y4089759D01*
X1125642Y4094679D01*
X1120723D01*
X1115803Y4089759D01*
Y4079920D01*
X1120723Y4075000D01*
X1130562D01*
X1135482Y4079920D01*
X1250321Y3834598D02*
X1255241Y3839518D01*
X1265080D01*
X1270000Y3834598D01*
Y3814920D01*
X1265080Y3810000D01*
X1255241D01*
X1250321Y3814920D01*
X1240482Y3834598D02*
X1235562Y3839518D01*
X1225723D01*
X1220803Y3834598D01*
Y3829679D01*
X1225723Y3824759D01*
X1220803Y3819839D01*
Y3814920D01*
X1225723Y3810000D01*
X1235562D01*
X1240482Y3814920D01*
Y3819839D01*
X1235562Y3824759D01*
X1240482Y3829679D01*
Y3834598D01*
X1235562Y3824759D02*
X1225723D01*
X895000Y3115000D02*
X924518D01*
Y3129759D01*
X919598Y3134679D01*
X909759D01*
X904839Y3129759D01*
Y3115000D01*
Y3124839D02*
X895000Y3134679D01*
Y3159277D02*
X924518D01*
X909759Y3144518D01*
Y3164197D01*
X919598Y3174036D02*
X924518Y3178956D01*
Y3188795D01*
X919598Y3193715D01*
X914679D01*
X909759Y3188795D01*
Y3183876D01*
Y3188795D01*
X904839Y3193715D01*
X899920D01*
X895000Y3188795D01*
Y3178956D01*
X899920Y3174036D01*
X1270000Y4173000D02*
X1299518D01*
Y4187759D01*
X1294598Y4192679D01*
X1284759D01*
X1279839Y4187759D01*
Y4173000D01*
Y4182839D02*
X1270000Y4192679D01*
Y4202518D02*
Y4212358D01*
Y4207438D01*
X1299518D01*
X1294598Y4202518D01*
X1299518Y4246795D02*
Y4227117D01*
X1284759D01*
X1289679Y4236956D01*
Y4241876D01*
X1284759Y4246795D01*
X1274920D01*
X1270000Y4241876D01*
Y4232036D01*
X1274920Y4227117D01*
X195000Y4625000D02*
X224518D01*
Y4639759D01*
X219598Y4644679D01*
X209759D01*
X204839Y4639759D01*
Y4625000D01*
Y4634839D02*
X195000Y4644679D01*
X224518Y4674197D02*
Y4654518D01*
X209759D01*
X214679Y4664358D01*
Y4669277D01*
X209759Y4674197D01*
X199920D01*
X195000Y4669277D01*
Y4659438D01*
X199920Y4654518D01*
X219598Y4684036D02*
X224518Y4688956D01*
Y4698795D01*
X219598Y4703715D01*
X199920D01*
X195000Y4698795D01*
Y4688956D01*
X199920Y4684036D01*
X219598D01*
X1115000Y4180000D02*
X1144518D01*
Y4194759D01*
X1139598Y4199679D01*
X1129759D01*
X1124839Y4194759D01*
Y4180000D01*
Y4189839D02*
X1115000Y4199679D01*
Y4209518D02*
Y4219358D01*
Y4214438D01*
X1144518D01*
X1139598Y4209518D01*
X1115000Y4248876D02*
X1144518D01*
X1129759Y4234117D01*
Y4253795D01*
%TF.MD5,5588a739e3f8e8bba2dcaa300160d991*%
M02*
