%TF.GenerationSoftware,Altium Limited,Altium Designer,19.1.6 (110)*%
G04 Layer_Color=8388736*
%FSLAX26Y26*%
%MOIN*%
%TF.FileFunction,Soldermask,Top*%
%TF.Part,Single*%
G01*
G75*
%TA.AperFunction,SMDPad,CuDef*%
%ADD56R,0.037528X0.033591*%
%ADD57R,0.029654X0.029654*%
%ADD59R,0.033591X0.029654*%
G04:AMPARAMS|DCode=60|XSize=33.591mil|YSize=55.244mil|CornerRadius=5.919mil|HoleSize=0mil|Usage=FLASHONLY|Rotation=180.000|XOffset=0mil|YOffset=0mil|HoleType=Round|Shape=RoundedRectangle|*
%AMROUNDEDRECTD60*
21,1,0.033591,0.043406,0,0,180.0*
21,1,0.021752,0.055244,0,0,180.0*
1,1,0.011839,-0.010876,0.021703*
1,1,0.011839,0.010876,0.021703*
1,1,0.011839,0.010876,-0.021703*
1,1,0.011839,-0.010876,-0.021703*
%
%ADD60ROUNDEDRECTD60*%
%ADD61O,0.027685X0.061150*%
%ADD62R,0.069024X0.061150*%
%ADD63R,0.028472X0.028472*%
%ADD64R,0.028472X0.028472*%
%ADD65R,0.033591X0.037528*%
%ADD66O,0.021779X0.063118*%
%TA.AperFunction,ComponentPad*%
%ADD68C,0.069024*%
%ADD69C,0.048000*%
%ADD70C,0.067055*%
%ADD71R,0.067055X0.067055*%
%ADD72C,0.057087*%
%ADD73C,0.008000*%
%TA.AperFunction,ViaPad*%
%ADD74C,0.023000*%
%ADD75C,0.025716*%
%ADD76C,0.058000*%
%TA.AperFunction,SMDPad,CuDef*%
%ADD81R,0.029654X0.031622*%
%ADD82R,0.029654X0.029654*%
%ADD83R,0.033591X0.033591*%
%ADD84R,0.025716X0.025716*%
%ADD85R,0.025716X0.025716*%
%ADD86O,0.063118X0.021779*%
%ADD87R,0.065087X0.053276*%
%ADD88O,0.061150X0.025716*%
%ADD89R,0.045402X0.061150*%
%ADD90R,0.061150X0.045402*%
%ADD91R,0.061150X0.069024*%
G04:AMPARAMS|DCode=92|XSize=33.591mil|YSize=55.244mil|CornerRadius=5.919mil|HoleSize=0mil|Usage=FLASHONLY|Rotation=270.000|XOffset=0mil|YOffset=0mil|HoleType=Round|Shape=RoundedRectangle|*
%AMROUNDEDRECTD92*
21,1,0.033591,0.043406,0,0,270.0*
21,1,0.021752,0.055244,0,0,270.0*
1,1,0.011839,-0.021703,-0.010876*
1,1,0.011839,-0.021703,0.010876*
1,1,0.011839,0.021703,0.010876*
1,1,0.011839,0.021703,-0.010876*
%
%ADD92ROUNDEDRECTD92*%
%ADD93O,0.021779X0.074929*%
%ADD94R,0.023622X0.053150*%
%ADD95R,0.053150X0.068898*%
%ADD96R,0.031622X0.047370*%
D56*
X875000Y2141654D02*
D03*
Y2098347D02*
D03*
Y2046654D02*
D03*
Y2003347D02*
D03*
X1059174Y4173346D02*
D03*
Y4216654D02*
D03*
X1004174D02*
D03*
Y4173346D02*
D03*
X1700000Y3023347D02*
D03*
Y3066654D02*
D03*
X1710000Y2803347D02*
D03*
Y2846654D02*
D03*
X1635000Y2846653D02*
D03*
Y2803346D02*
D03*
X1885000Y3066653D02*
D03*
Y3023346D02*
D03*
X563000Y3954347D02*
D03*
Y3997654D02*
D03*
X819174Y4168152D02*
D03*
Y4211459D02*
D03*
D57*
X1852284Y4630000D02*
D03*
X1887717D02*
D03*
X1977716Y4500000D02*
D03*
X1942283D02*
D03*
X1497284Y4630000D02*
D03*
X1532717D02*
D03*
X1482716Y4380000D02*
D03*
X1447283D02*
D03*
D59*
X1645000Y3112315D02*
D03*
Y3151685D02*
D03*
X915551Y4165315D02*
D03*
Y4204685D02*
D03*
D60*
X1967402Y4701930D02*
D03*
X1892598D02*
D03*
Y4818072D02*
D03*
X1930000D02*
D03*
X1967402D02*
D03*
X2451930Y4711576D02*
D03*
X2377126D02*
D03*
Y4827716D02*
D03*
X2414528D02*
D03*
X2451930D02*
D03*
X1607402Y4701930D02*
D03*
X1532598D02*
D03*
Y4818072D02*
D03*
X1570000D02*
D03*
X1607402D02*
D03*
X1543888Y3218740D02*
D03*
X1581290D02*
D03*
X1618692D02*
D03*
Y3334882D02*
D03*
X1543888D02*
D03*
X2255080Y4711576D02*
D03*
X2180276D02*
D03*
Y4827716D02*
D03*
X2217678D02*
D03*
X2255080D02*
D03*
X1787402Y2728072D02*
D03*
X1750000D02*
D03*
X1712598D02*
D03*
Y2611930D02*
D03*
X1787402D02*
D03*
X716576Y3998072D02*
D03*
X679174D02*
D03*
X641772D02*
D03*
Y3881930D02*
D03*
X716576D02*
D03*
D61*
X1027560Y4097598D02*
D03*
X1001968D02*
D03*
X976378D02*
D03*
X950788D02*
D03*
X1027560Y3922402D02*
D03*
X1001968D02*
D03*
X976378D02*
D03*
X950788D02*
D03*
D62*
X1129174Y4009370D02*
D03*
Y3930630D02*
D03*
D63*
X1189252Y2905000D02*
D03*
X1220748D02*
D03*
X1555748Y1960000D02*
D03*
X1524252D02*
D03*
X1555748Y2000000D02*
D03*
X1524252D02*
D03*
X1210748Y2215000D02*
D03*
X1179252D02*
D03*
X1555748Y2120000D02*
D03*
X1524252D02*
D03*
X1555748Y2080000D02*
D03*
X1524252D02*
D03*
X1555748Y2040000D02*
D03*
X1524252D02*
D03*
X978748Y3707000D02*
D03*
X947252D02*
D03*
X279252Y4873000D02*
D03*
X310748D02*
D03*
X1057252Y2785134D02*
D03*
X1088748D02*
D03*
X1089748Y2567134D02*
D03*
X1058252D02*
D03*
D64*
X1890000Y4575748D02*
D03*
Y4544252D02*
D03*
X1535000Y4590748D02*
D03*
Y4559252D02*
D03*
X785000Y2695748D02*
D03*
Y2664252D02*
D03*
X1787000Y2504252D02*
D03*
Y2535748D02*
D03*
X2039000Y4788748D02*
D03*
Y4757252D02*
D03*
X2454000Y4606252D02*
D03*
Y4637748D02*
D03*
X2254000Y4606252D02*
D03*
Y4637748D02*
D03*
X1691000Y4723252D02*
D03*
Y4754748D02*
D03*
X1580000Y3119252D02*
D03*
Y3150748D02*
D03*
X1480000Y3304252D02*
D03*
Y3335748D02*
D03*
X789000Y3880748D02*
D03*
Y3849252D02*
D03*
D65*
X2166654Y4915000D02*
D03*
X2123347D02*
D03*
X2123346Y4985000D02*
D03*
X2166653D02*
D03*
X2366654Y4915000D02*
D03*
X2323347D02*
D03*
X2323346Y4985000D02*
D03*
X2366653D02*
D03*
D66*
X1564842Y3661812D02*
D03*
X1590434D02*
D03*
X1616024D02*
D03*
X1641614D02*
D03*
X1667206D02*
D03*
X1692796D02*
D03*
X1718386D02*
D03*
X1743976D02*
D03*
X1769568D02*
D03*
X1795158D02*
D03*
X1564842Y3888190D02*
D03*
X1590434D02*
D03*
X1616024D02*
D03*
X1641614D02*
D03*
X1667206D02*
D03*
X1692796D02*
D03*
X1718386D02*
D03*
X1743976D02*
D03*
X1769568D02*
D03*
X1795158D02*
D03*
D68*
X593000Y203000D02*
D03*
X2300000Y5095000D02*
D03*
X2340000Y1040000D02*
D03*
X1240000Y4360000D02*
D03*
X520000Y4200000D02*
D03*
X730000Y4210000D02*
D03*
X1215000Y4665000D02*
D03*
X1340000Y3955000D02*
D03*
X1960000Y3660000D02*
D03*
X1160000Y3500000D02*
D03*
X1460000Y2940000D02*
D03*
X1965000Y2865000D02*
D03*
X730000Y3210000D02*
D03*
X1040000D02*
D03*
X1420000Y4080000D02*
D03*
X2105000Y5100000D02*
D03*
D69*
X1650000Y5050000D02*
D03*
X1850000D02*
D03*
X1750000Y5150000D02*
D03*
D70*
X2627796Y348972D02*
D03*
Y448972D02*
D03*
Y548972D02*
D03*
Y648972D02*
D03*
Y748972D02*
D03*
Y848972D02*
D03*
Y948972D02*
D03*
Y1048972D02*
D03*
Y1148972D02*
D03*
Y1248972D02*
D03*
Y1348972D02*
D03*
Y1448972D02*
D03*
Y1548972D02*
D03*
Y1648972D02*
D03*
Y1748972D02*
D03*
Y1848972D02*
D03*
Y1948972D02*
D03*
Y2048972D02*
D03*
Y2148972D02*
D03*
Y2248972D02*
D03*
Y2348972D02*
D03*
Y2448972D02*
D03*
Y2548972D02*
D03*
Y2648972D02*
D03*
Y2748972D02*
D03*
Y2848972D02*
D03*
Y2948972D02*
D03*
Y3048972D02*
D03*
Y3148972D02*
D03*
Y3248972D02*
D03*
Y3348972D02*
D03*
Y3448972D02*
D03*
Y3548972D02*
D03*
Y3648972D02*
D03*
Y3748972D02*
D03*
Y3848972D02*
D03*
Y3948972D02*
D03*
Y4048972D02*
D03*
Y4148972D02*
D03*
Y4248972D02*
D03*
X227796Y349956D02*
D03*
Y449956D02*
D03*
Y549956D02*
D03*
Y649956D02*
D03*
Y749956D02*
D03*
Y849956D02*
D03*
Y949956D02*
D03*
Y1049956D02*
D03*
Y1149956D02*
D03*
Y1249956D02*
D03*
Y1349956D02*
D03*
Y1449956D02*
D03*
Y1549956D02*
D03*
Y1649956D02*
D03*
Y1749956D02*
D03*
Y1849956D02*
D03*
Y1949956D02*
D03*
Y2049956D02*
D03*
Y2149956D02*
D03*
Y2249956D02*
D03*
Y2349956D02*
D03*
Y2449956D02*
D03*
Y2549956D02*
D03*
Y2649956D02*
D03*
Y2749956D02*
D03*
Y2849956D02*
D03*
Y2949956D02*
D03*
Y3049956D02*
D03*
Y3149956D02*
D03*
Y3249956D02*
D03*
Y3349956D02*
D03*
Y3449956D02*
D03*
Y3549956D02*
D03*
Y3649956D02*
D03*
Y3749956D02*
D03*
Y3849956D02*
D03*
Y3949956D02*
D03*
Y4049956D02*
D03*
Y4149956D02*
D03*
Y4249956D02*
D03*
D71*
X2527796Y348972D02*
D03*
Y448972D02*
D03*
Y548972D02*
D03*
Y648972D02*
D03*
Y748972D02*
D03*
Y848972D02*
D03*
Y948972D02*
D03*
Y1048972D02*
D03*
Y1148972D02*
D03*
Y1248972D02*
D03*
Y1348972D02*
D03*
Y1448972D02*
D03*
Y1548972D02*
D03*
Y1648972D02*
D03*
Y1748972D02*
D03*
Y1848972D02*
D03*
Y1948972D02*
D03*
Y2048972D02*
D03*
Y2148972D02*
D03*
Y2248972D02*
D03*
Y2348972D02*
D03*
Y2448972D02*
D03*
Y2548972D02*
D03*
Y2648972D02*
D03*
Y2748972D02*
D03*
Y2848972D02*
D03*
Y2948972D02*
D03*
Y3048972D02*
D03*
Y3148972D02*
D03*
Y3248972D02*
D03*
Y3348972D02*
D03*
Y3448972D02*
D03*
Y3548972D02*
D03*
Y3648972D02*
D03*
Y3748972D02*
D03*
Y3848972D02*
D03*
Y3948972D02*
D03*
Y4048972D02*
D03*
Y4148972D02*
D03*
Y4248972D02*
D03*
X127796Y349956D02*
D03*
Y449956D02*
D03*
Y549956D02*
D03*
Y649956D02*
D03*
Y749956D02*
D03*
Y849956D02*
D03*
Y949956D02*
D03*
Y1049956D02*
D03*
Y1149956D02*
D03*
Y1249956D02*
D03*
Y1349956D02*
D03*
Y1449956D02*
D03*
Y1549956D02*
D03*
Y1649956D02*
D03*
Y1749956D02*
D03*
Y1849956D02*
D03*
Y1949956D02*
D03*
Y2049956D02*
D03*
Y2149956D02*
D03*
Y2249956D02*
D03*
Y2349956D02*
D03*
Y2449956D02*
D03*
Y2549956D02*
D03*
Y2649956D02*
D03*
Y2749956D02*
D03*
Y2849956D02*
D03*
Y2949956D02*
D03*
Y3049956D02*
D03*
Y3149956D02*
D03*
Y3249956D02*
D03*
Y3349956D02*
D03*
Y3449956D02*
D03*
Y3549956D02*
D03*
Y3649956D02*
D03*
Y3749956D02*
D03*
Y3849956D02*
D03*
Y3949956D02*
D03*
Y4049956D02*
D03*
Y4149956D02*
D03*
Y4249956D02*
D03*
D72*
X1062165Y4673740D02*
D03*
X547992D02*
D03*
D73*
X1015709Y4551693D02*
D03*
X594449D02*
D03*
D74*
X718931Y3100484D02*
D03*
X1315000Y2070000D02*
D03*
X2595159Y5073839D02*
D03*
X2496734Y4876988D02*
D03*
X2595159Y4680138D02*
D03*
X2496734Y4483288D02*
D03*
X2595159Y4286437D02*
D03*
Y3892736D02*
D03*
X2496734Y3695886D02*
D03*
X2595159Y3499035D02*
D03*
X2496734Y3302185D02*
D03*
X2595159Y3105335D02*
D03*
Y2711634D02*
D03*
Y2317933D02*
D03*
X2496734Y152579D02*
D03*
X2398309Y5073839D02*
D03*
Y3499035D02*
D03*
Y3105335D02*
D03*
Y2711634D02*
D03*
X2299884Y2514784D02*
D03*
X2398309Y2317933D02*
D03*
X2299884Y2121083D02*
D03*
X2398309Y1924232D02*
D03*
X2299884Y1727382D02*
D03*
X2398309Y1530532D02*
D03*
X2299884Y1333681D02*
D03*
Y939980D02*
D03*
X2398309Y743130D02*
D03*
X2299884Y546279D02*
D03*
X2398309Y349429D02*
D03*
X2299884Y152579D02*
D03*
X2201458Y5073839D02*
D03*
X2103033Y4483288D02*
D03*
X2201458Y4286437D02*
D03*
X2103033Y3695886D02*
D03*
X2201458Y3499035D02*
D03*
X2103033Y3302185D02*
D03*
Y2908484D02*
D03*
X2201458Y2711634D02*
D03*
X2103033Y2514784D02*
D03*
X2201458Y2317933D02*
D03*
X2103033Y2121083D02*
D03*
X2201458Y1924232D02*
D03*
X2103033Y1727382D02*
D03*
X2201458Y1530532D02*
D03*
X2103033Y1333681D02*
D03*
X2201458Y1136831D02*
D03*
X2103033Y939980D02*
D03*
X2201458Y743130D02*
D03*
X2103033Y546279D02*
D03*
X2201458Y349429D02*
D03*
X2103033Y152579D02*
D03*
X2004608Y5073839D02*
D03*
Y4680138D02*
D03*
X1906183Y3695886D02*
D03*
X2004608Y3499035D02*
D03*
Y3105335D02*
D03*
Y2711634D02*
D03*
Y2317933D02*
D03*
Y1924232D02*
D03*
X1906183Y1727382D02*
D03*
X2004608Y1530532D02*
D03*
X1906183Y1333681D02*
D03*
X2004608Y1136831D02*
D03*
X1906183Y939980D02*
D03*
X2004608Y743130D02*
D03*
X1906183Y546279D02*
D03*
X2004608Y349429D02*
D03*
X1906183Y152579D02*
D03*
X1807758Y5073839D02*
D03*
Y4680138D02*
D03*
X1709332Y4483288D02*
D03*
X1807758Y4286437D02*
D03*
Y1530532D02*
D03*
X1709332Y1333681D02*
D03*
X1807758Y1136831D02*
D03*
X1709332Y939980D02*
D03*
X1807758Y743130D02*
D03*
X1709332Y546279D02*
D03*
X1807758Y349429D02*
D03*
X1709332Y152579D02*
D03*
X1610907Y5073839D02*
D03*
Y4286437D02*
D03*
X1512482Y3695886D02*
D03*
Y1727382D02*
D03*
X1610907Y1530532D02*
D03*
X1512482Y1333681D02*
D03*
X1610907Y1136831D02*
D03*
X1512482Y939980D02*
D03*
X1610907Y743130D02*
D03*
X1512482Y546279D02*
D03*
X1610907Y349429D02*
D03*
X1512482Y152579D02*
D03*
X1414057Y5073839D02*
D03*
Y4680138D02*
D03*
X1315632Y4483288D02*
D03*
X1414057Y4286437D02*
D03*
X1315632Y4089587D02*
D03*
X1414057Y1530532D02*
D03*
X1315632Y1333681D02*
D03*
X1414057Y1136831D02*
D03*
X1315632Y939980D02*
D03*
X1414057Y743130D02*
D03*
X1315632Y546279D02*
D03*
X1414057Y349429D02*
D03*
X1315632Y152579D02*
D03*
X1217206Y5073839D02*
D03*
Y4286437D02*
D03*
Y1530532D02*
D03*
X1118781Y1333681D02*
D03*
X1217206Y1136831D02*
D03*
X1118781Y939980D02*
D03*
X1217206Y743130D02*
D03*
X1118781Y546279D02*
D03*
X1217206Y349429D02*
D03*
X1118781Y152579D02*
D03*
X1020356Y5073839D02*
D03*
X921931Y4876988D02*
D03*
Y4483288D02*
D03*
X1020356Y4286437D02*
D03*
Y1530532D02*
D03*
X921931Y1333681D02*
D03*
X1020356Y1136831D02*
D03*
X921931Y939980D02*
D03*
X1020356Y743130D02*
D03*
X921931Y546279D02*
D03*
X1020356Y349429D02*
D03*
X921931Y152579D02*
D03*
X823506Y5073839D02*
D03*
X725080Y4876988D02*
D03*
X823506Y1530532D02*
D03*
X725080Y1333681D02*
D03*
X823506Y1136831D02*
D03*
X725080Y939980D02*
D03*
X823506Y743130D02*
D03*
X725080Y546279D02*
D03*
X823506Y349429D02*
D03*
X725080Y152579D02*
D03*
X626655Y5073839D02*
D03*
X528230Y3695886D02*
D03*
X626655Y1530532D02*
D03*
X528230Y1333681D02*
D03*
X626655Y1136831D02*
D03*
X528230Y939980D02*
D03*
X626655Y743130D02*
D03*
X528230Y546279D02*
D03*
X626655Y349429D02*
D03*
X528230Y152579D02*
D03*
X429805Y5073839D02*
D03*
Y4680138D02*
D03*
X331380Y4483288D02*
D03*
X429805Y4286437D02*
D03*
X331380Y4089587D02*
D03*
Y3695886D02*
D03*
X429805Y3499035D02*
D03*
X331380Y3302185D02*
D03*
X429805Y3105335D02*
D03*
X331380Y2908484D02*
D03*
X429805Y2711634D02*
D03*
X331380Y2514784D02*
D03*
X429805Y2317933D02*
D03*
Y1924232D02*
D03*
X331380Y1727382D02*
D03*
X429805Y1530532D02*
D03*
X331380Y1333681D02*
D03*
X429805Y1136831D02*
D03*
X331380Y939980D02*
D03*
Y546279D02*
D03*
X429805Y349429D02*
D03*
X331380Y152579D02*
D03*
X232954Y5073839D02*
D03*
X134529Y4876988D02*
D03*
X232954Y4680138D02*
D03*
Y3892736D02*
D03*
X134529Y3695886D02*
D03*
X232954Y3499035D02*
D03*
X134529Y3302185D02*
D03*
X232954Y3105335D02*
D03*
X134529Y152579D02*
D03*
X1807758Y3105335D02*
D03*
Y2317933D02*
D03*
X1512482Y3302185D02*
D03*
Y2908484D02*
D03*
X1610907Y2711634D02*
D03*
X1512482Y2514784D02*
D03*
X1610907Y2317933D02*
D03*
X1315632Y3302185D02*
D03*
X1414057Y3105335D02*
D03*
X1315632Y2908484D02*
D03*
Y2514784D02*
D03*
Y2121083D02*
D03*
Y1727382D02*
D03*
X1217206Y3105335D02*
D03*
Y2711634D02*
D03*
X1118781Y2121083D02*
D03*
Y1727382D02*
D03*
X1020356Y3105335D02*
D03*
X921931Y2908484D02*
D03*
X1020356Y2711634D02*
D03*
X921931Y2514784D02*
D03*
X1020356Y2317933D02*
D03*
X921931Y2121083D02*
D03*
X1020356Y1924232D02*
D03*
X921931Y1727382D02*
D03*
X725080Y2514784D02*
D03*
X823506Y2317933D02*
D03*
X725080Y2121083D02*
D03*
X823506Y1924232D02*
D03*
X725080Y1727382D02*
D03*
X528230Y3302185D02*
D03*
Y2908484D02*
D03*
Y2514784D02*
D03*
X626655Y2317933D02*
D03*
X528230Y2121083D02*
D03*
X626655Y1924232D02*
D03*
X528230Y1727382D02*
D03*
X606996Y4798269D02*
D03*
X646366Y4719529D02*
D03*
X606996Y4640788D02*
D03*
X646366Y4562048D02*
D03*
X606996Y4483308D02*
D03*
X646366Y4404568D02*
D03*
X567626Y4877009D02*
D03*
Y4719529D02*
D03*
Y4404568D02*
D03*
X528256Y4325828D02*
D03*
X488885Y4877009D02*
D03*
Y4719529D02*
D03*
D75*
X498278Y2586806D02*
D03*
D76*
X1344000Y3673000D02*
D03*
D81*
X1817000Y2034732D02*
D03*
Y2001268D02*
D03*
X1755000Y4333268D02*
D03*
Y4366732D02*
D03*
X1675000Y4333268D02*
D03*
Y4366732D02*
D03*
X1500000Y3656732D02*
D03*
Y3623268D02*
D03*
X1425000Y3656732D02*
D03*
Y3623268D02*
D03*
D82*
X1615551Y3485551D02*
D03*
Y3450118D02*
D03*
D83*
X1705000Y3249685D02*
D03*
Y3210315D02*
D03*
X1160000Y3764685D02*
D03*
Y3725315D02*
D03*
D84*
X1890000Y4500748D02*
D03*
Y4469252D02*
D03*
X1700000Y3325748D02*
D03*
Y3294252D02*
D03*
D85*
X1585748Y4380000D02*
D03*
X1554252D02*
D03*
X315748Y4920000D02*
D03*
X284252D02*
D03*
D86*
X1412795Y1868504D02*
D03*
Y1894094D02*
D03*
Y1919685D02*
D03*
Y1945275D02*
D03*
Y1970866D02*
D03*
Y1996457D02*
D03*
Y2022047D02*
D03*
Y2047638D02*
D03*
Y2073228D02*
D03*
Y2098819D02*
D03*
Y2124409D02*
D03*
Y2150000D02*
D03*
X1180512Y1868504D02*
D03*
Y1894094D02*
D03*
Y1919685D02*
D03*
Y1945275D02*
D03*
Y1970866D02*
D03*
Y1996457D02*
D03*
Y2022047D02*
D03*
Y2047638D02*
D03*
Y2073228D02*
D03*
Y2098819D02*
D03*
Y2124409D02*
D03*
Y2150000D02*
D03*
D87*
X878000Y2696434D02*
D03*
Y2625568D02*
D03*
D88*
X1796614Y4051418D02*
D03*
Y4077008D02*
D03*
Y4102598D02*
D03*
Y4128190D02*
D03*
Y4153780D02*
D03*
Y4179370D02*
D03*
Y4204960D02*
D03*
Y4230552D02*
D03*
X1566300Y4051418D02*
D03*
Y4077008D02*
D03*
Y4102598D02*
D03*
Y4128190D02*
D03*
Y4153780D02*
D03*
Y4179370D02*
D03*
Y4204960D02*
D03*
Y4230552D02*
D03*
D89*
X1711496Y2910000D02*
D03*
X1648504D02*
D03*
D90*
X1885000Y3123504D02*
D03*
Y3186496D02*
D03*
X1775001Y3258504D02*
D03*
Y3321496D02*
D03*
D91*
X1685630Y3571000D02*
D03*
X1764370D02*
D03*
D92*
X1302756Y2999622D02*
D03*
Y3037024D02*
D03*
Y3074426D02*
D03*
X1186614D02*
D03*
Y2999622D02*
D03*
D93*
X732228Y2798330D02*
D03*
X757820D02*
D03*
X783410D02*
D03*
X809000D02*
D03*
X834590D02*
D03*
X860182D02*
D03*
X885772D02*
D03*
X732228Y3022740D02*
D03*
X757820D02*
D03*
X783410D02*
D03*
X809000D02*
D03*
X834590D02*
D03*
X860182D02*
D03*
X885772D02*
D03*
D94*
X946811Y4359370D02*
D03*
X915315D02*
D03*
X883819D02*
D03*
X852323D02*
D03*
X820827D02*
D03*
X789331D02*
D03*
X757835D02*
D03*
X726338D02*
D03*
X694842D02*
D03*
X663346D02*
D03*
D95*
X1116299Y4442441D02*
D03*
X493858D02*
D03*
D96*
X1057792Y2619552D02*
D03*
X1095194D02*
D03*
X1132596D02*
D03*
Y2727820D02*
D03*
X1095194D02*
D03*
X1057792D02*
D03*
%TF.MD5,08f20b09b308a78ee997813c659ed271*%
M02*
