%TF.GenerationSoftware,Altium Limited,Altium Designer,19.1.6 (110)*%
G04 Layer_Color=32768*
%FSLAX26Y26*%
%MOIN*%
%TF.FileFunction,Other,M15-Bottom_Assembly*%
%TF.Part,Single*%
G01*
G75*
%TA.AperFunction,NonConductor*%
%ADD78C,0.003937*%
%ADD97C,0.001968*%
D78*
X1817000Y2007173D02*
Y2028827D01*
X1806173Y2018000D02*
X1827827D01*
X1755000Y4339173D02*
Y4360827D01*
X1744173Y4350000D02*
X1765827D01*
X1675000Y4339173D02*
Y4360827D01*
X1664173Y4350000D02*
X1685827D01*
X1500000Y3629173D02*
Y3650827D01*
X1489173Y3640000D02*
X1510827D01*
X1425000Y3629173D02*
Y3650827D01*
X1414173Y3640000D02*
X1435827D01*
X1859173Y4630000D02*
X1880827D01*
X1870000Y4619173D02*
Y4640827D01*
X1949173Y4500000D02*
X1970827D01*
X1960000Y4489173D02*
Y4510827D01*
X1504173Y4630000D02*
X1525827D01*
X1515000Y4619173D02*
Y4640827D01*
X1454173Y4380000D02*
X1475827D01*
X1465000Y4369173D02*
Y4390827D01*
X1615551Y3457008D02*
Y3478661D01*
X1604724Y3467835D02*
X1626378D01*
X1705000Y3219173D02*
Y3240827D01*
X1694173Y3230000D02*
X1715827D01*
X1149173Y3745000D02*
X1170827D01*
X1160000Y3734173D02*
Y3755827D01*
X1890000Y4474173D02*
Y4495827D01*
X1879173Y4485000D02*
X1900827D01*
X1559173Y4380000D02*
X1580827D01*
X1570000Y4369173D02*
Y4390827D01*
X1700000Y3299173D02*
Y3320827D01*
X1689173Y3310000D02*
X1710827D01*
X289173Y4920000D02*
X310827D01*
X300000Y4909173D02*
Y4930827D01*
X573315Y203000D02*
X612685D01*
X593000Y183315D02*
Y222685D01*
X573315Y203000D02*
X612685D01*
X593000Y183315D02*
Y222685D01*
X1296653Y1989567D02*
Y2028937D01*
X1276968Y2009252D02*
X1316339D01*
X2300000Y5075315D02*
Y5114685D01*
X2280315Y5095000D02*
X2319685D01*
X2300000Y5075315D02*
Y5114685D01*
X2280315Y5095000D02*
X2319685D01*
X858314Y2661000D02*
X897684D01*
X878000Y2641316D02*
Y2680686D01*
X1910316Y4760000D02*
X1949686D01*
X1930000Y4740316D02*
Y4779686D01*
X2394844Y4769646D02*
X2434214D01*
X2414528Y4749960D02*
Y4789330D01*
X1661772Y4140984D02*
X1701142D01*
X1681458Y4121300D02*
Y4160670D01*
X1680000Y2890316D02*
Y2929686D01*
X1660316Y2910000D02*
X1699686D01*
X1865316Y3155000D02*
X1904686D01*
X1885000Y3135316D02*
Y3174686D01*
X1725000Y3551315D02*
Y3590685D01*
X1705315Y3571000D02*
X1744685D01*
X1755314Y3290000D02*
X1794685D01*
X1775001Y3270316D02*
Y3309686D01*
X1225000Y3037024D02*
X1264370D01*
X1244686Y3017338D02*
Y3056708D01*
X1660316Y3775000D02*
X1699686D01*
X1680000Y3755316D02*
Y3794686D01*
X1550316Y4760000D02*
X1589686D01*
X1570000Y4740316D02*
Y4779686D01*
X1581290Y3257126D02*
Y3296496D01*
X1561604Y3276812D02*
X1600976D01*
X809000Y2890850D02*
Y2930220D01*
X789316Y2910536D02*
X828686D01*
X2197992Y4769646D02*
X2237362D01*
X2217678Y4749960D02*
Y4789330D01*
X1750000Y2650316D02*
Y2689686D01*
X1730316Y2670000D02*
X1769686D01*
X989174Y3990316D02*
Y4029686D01*
X969488Y4010000D02*
X1008858D01*
X1109488Y3970000D02*
X1148858D01*
X1129174Y3950316D02*
Y3989686D01*
X679174Y3920316D02*
Y3959686D01*
X659488Y3940000D02*
X698858D01*
X1095194Y2654000D02*
Y2693370D01*
X1075510Y2673686D02*
X1114880D01*
X2320315Y1040000D02*
X2359685D01*
X2340000Y1020315D02*
Y1059685D01*
X2320315Y1040000D02*
X2359685D01*
X2340000Y1020315D02*
Y1059685D01*
X1220315Y4360000D02*
X1259685D01*
X1240000Y4340315D02*
Y4379685D01*
X1220315Y4360000D02*
X1259685D01*
X1240000Y4340315D02*
Y4379685D01*
X500315Y4200000D02*
X539685D01*
X520000Y4180315D02*
Y4219685D01*
X500315Y4200000D02*
X539685D01*
X520000Y4180315D02*
Y4219685D01*
X710315Y4210000D02*
X749685D01*
X730000Y4190315D02*
Y4229685D01*
X710315Y4210000D02*
X749685D01*
X730000Y4190315D02*
Y4229685D01*
X1195315Y4665000D02*
X1234685D01*
X1215000Y4645315D02*
Y4684685D01*
X1195315Y4665000D02*
X1234685D01*
X1215000Y4645315D02*
Y4684685D01*
X1320315Y3955000D02*
X1359685D01*
X1340000Y3935315D02*
Y3974685D01*
X1320315Y3955000D02*
X1359685D01*
X1340000Y3935315D02*
Y3974685D01*
X1940315Y3660000D02*
X1979685D01*
X1960000Y3640315D02*
Y3679685D01*
X1940315Y3660000D02*
X1979685D01*
X1960000Y3640315D02*
Y3679685D01*
X1140315Y3500000D02*
X1179685D01*
X1160000Y3480315D02*
Y3519685D01*
X1140315Y3500000D02*
X1179685D01*
X1160000Y3480315D02*
Y3519685D01*
X1460000Y2920315D02*
Y2959685D01*
X1440315Y2940000D02*
X1479685D01*
X1460000Y2920315D02*
Y2959685D01*
X1440315Y2940000D02*
X1479685D01*
X1965000Y2845315D02*
Y2884685D01*
X1945315Y2865000D02*
X1984685D01*
X1965000Y2845315D02*
Y2884685D01*
X1945315Y2865000D02*
X1984685D01*
X730000Y3190315D02*
Y3229685D01*
X710315Y3210000D02*
X749685D01*
X730000Y3190315D02*
Y3229685D01*
X710315Y3210000D02*
X749685D01*
X1040000Y3190315D02*
Y3229685D01*
X1020315Y3210000D02*
X1059685D01*
X1040000Y3190315D02*
Y3229685D01*
X1020315Y3210000D02*
X1059685D01*
X1420000Y4060315D02*
Y4099685D01*
X1400315Y4080000D02*
X1439685D01*
X1420000Y4060315D02*
Y4099685D01*
X1400315Y4080000D02*
X1439685D01*
X2105000Y5080315D02*
Y5119685D01*
X2085315Y5100000D02*
X2124685D01*
X2105000Y5080315D02*
Y5119685D01*
X2085315Y5100000D02*
X2124685D01*
D97*
X646937Y203000D02*
G03*
X646937Y203000I-53937J0D01*
G01*
X2353937Y5095000D02*
G03*
X2353937Y5095000I-53937J0D01*
G01*
X2393937Y1040000D02*
G03*
X2393937Y1040000I-53937J0D01*
G01*
X1293937Y4360000D02*
G03*
X1293937Y4360000I-53937J0D01*
G01*
X573937Y4200000D02*
G03*
X573937Y4200000I-53937J0D01*
G01*
X783937Y4210000D02*
G03*
X783937Y4210000I-53937J0D01*
G01*
X1268937Y4665000D02*
G03*
X1268937Y4665000I-53937J0D01*
G01*
X1393937Y3955000D02*
G03*
X1393937Y3955000I-53937J0D01*
G01*
X2013937Y3660000D02*
G03*
X2013937Y3660000I-53937J0D01*
G01*
X1213937Y3500000D02*
G03*
X1213937Y3500000I-53937J0D01*
G01*
X1513937Y2940000D02*
G03*
X1513937Y2940000I-53937J0D01*
G01*
X2018937Y2865000D02*
G03*
X2018937Y2865000I-53937J0D01*
G01*
X783937Y3210000D02*
G03*
X783937Y3210000I-53937J0D01*
G01*
X1093937D02*
G03*
X1093937Y3210000I-53937J0D01*
G01*
X1473937Y4080000D02*
G03*
X1473937Y4080000I-53937J0D01*
G01*
X2158937Y5100000D02*
G03*
X2158937Y5100000I-53937J0D01*
G01*
X1799284Y2053433D02*
X1834717D01*
X1799284Y1982567D02*
X1834717D01*
Y2053433D01*
X1799284Y1982567D02*
Y2053433D01*
X1737283Y4314567D02*
X1772716D01*
X1737283Y4385433D02*
X1772716D01*
X1737283Y4314567D02*
Y4385433D01*
X1772716Y4314567D02*
Y4385433D01*
X1657283Y4314567D02*
X1692716D01*
X1657283Y4385433D02*
X1692716D01*
X1657283Y4314567D02*
Y4385433D01*
X1692716Y4314567D02*
Y4385433D01*
X1482284Y3675433D02*
X1517717D01*
X1482284Y3604567D02*
X1517717D01*
Y3675433D01*
X1482284Y3604567D02*
Y3675433D01*
X1407284D02*
X1442717D01*
X1407284Y3604567D02*
X1442717D01*
Y3675433D01*
X1407284Y3604567D02*
Y3675433D01*
X1834567Y4612283D02*
Y4647717D01*
X1905433Y4612283D02*
Y4647717D01*
X1834567D02*
X1905433D01*
X1834567Y4612283D02*
X1905433D01*
X1995433Y4482283D02*
Y4517717D01*
X1924567Y4482283D02*
Y4517717D01*
Y4482283D02*
X1995433D01*
X1924567Y4517717D02*
X1995433D01*
X1479567Y4612283D02*
Y4647717D01*
X1550433Y4612283D02*
Y4647717D01*
X1479567D02*
X1550433D01*
X1479567Y4612283D02*
X1550433D01*
X1500433Y4362283D02*
Y4397717D01*
X1429567Y4362283D02*
Y4397717D01*
Y4362283D02*
X1500433D01*
X1429567Y4397717D02*
X1500433D01*
X1597835Y3503268D02*
X1633268D01*
X1597835Y3432401D02*
X1633268D01*
Y3503268D01*
X1597835Y3432401D02*
Y3503268D01*
X1683347Y3271338D02*
X1726654D01*
X1683347Y3188661D02*
X1726654D01*
Y3271338D01*
X1683347Y3188661D02*
Y3271338D01*
X1181653Y3703662D02*
Y3786339D01*
X1138346Y3703662D02*
Y3786339D01*
X1181653D01*
X1138346Y3703662D02*
X1181653D01*
X1874252Y4514528D02*
X1905748D01*
X1874252Y4455472D02*
X1905748D01*
Y4514528D01*
X1874252Y4455472D02*
Y4514528D01*
X1599527Y4364252D02*
Y4395748D01*
X1540472Y4364252D02*
Y4395748D01*
Y4364252D02*
X1599527D01*
X1540472Y4395748D02*
X1599527D01*
X1684252Y3339528D02*
X1715748D01*
X1684252Y3280472D02*
X1715748D01*
Y3339528D01*
X1684252Y3280472D02*
Y3339528D01*
X1625315Y3094599D02*
X1664685D01*
X1625315Y3169402D02*
X1664685D01*
X1625315Y3094599D02*
Y3169402D01*
X1664685Y3094599D02*
Y3169402D01*
X1645000Y3121173D02*
Y3142827D01*
X1634173Y3132000D02*
X1655827D01*
X2145000Y4904173D02*
Y4925827D01*
X2134173Y4915000D02*
X2155827D01*
X2101693Y4891378D02*
X2188307D01*
X2101693Y4938622D02*
X2188307D01*
Y4891378D02*
Y4938622D01*
X2101693Y4891378D02*
Y4938622D01*
X2145000Y4974173D02*
Y4995827D01*
X2134173Y4985000D02*
X2155827D01*
X2101693Y5008622D02*
X2188307D01*
X2101693Y4961378D02*
X2188307D01*
X2101693D02*
Y5008622D01*
X2188307Y4961378D02*
Y5008622D01*
X2345000Y4904173D02*
Y4925827D01*
X2334173Y4915000D02*
X2355827D01*
X2301693Y4891378D02*
X2388307D01*
X2301693Y4938622D02*
X2388307D01*
Y4891378D02*
Y4938622D01*
X2301693Y4891378D02*
Y4938622D01*
X2345000Y4974173D02*
Y4995827D01*
X2334173Y4985000D02*
X2355827D01*
X2301693Y5008622D02*
X2388307D01*
X2301693Y4961378D02*
X2388307D01*
X2301693D02*
Y5008622D01*
X2388307Y4961378D02*
Y5008622D01*
X329527Y4904252D02*
Y4935748D01*
X270472Y4904252D02*
Y4935748D01*
Y4904252D02*
X329527D01*
X270472Y4935748D02*
X329527D01*
X895866Y4147599D02*
X935236D01*
X895866Y4222402D02*
X935236D01*
X895866Y4147599D02*
Y4222402D01*
X935236Y4147599D02*
Y4222402D01*
X915551Y4174173D02*
Y4195827D01*
X904724Y4185000D02*
X926378D01*
X1874252Y4591496D02*
X1905748D01*
X1874252Y4528504D02*
X1905748D01*
Y4591496D01*
X1874252Y4528504D02*
Y4591496D01*
X1890000Y4548189D02*
Y4571811D01*
X1878189Y4560000D02*
X1901811D01*
X1519252Y4606496D02*
X1550748D01*
X1519252Y4543504D02*
X1550748D01*
Y4606496D01*
X1519252Y4543504D02*
Y4606496D01*
X1535000Y4563189D02*
Y4586811D01*
X1523189Y4575000D02*
X1546811D01*
X769252Y2711496D02*
X800748D01*
X769252Y2648504D02*
X800748D01*
Y2711496D01*
X769252Y2648504D02*
Y2711496D01*
X785000Y2668189D02*
Y2691811D01*
X773189Y2680000D02*
X796811D01*
X1173504Y2889252D02*
Y2920748D01*
X1236496Y2889252D02*
Y2920748D01*
X1173504D02*
X1236496D01*
X1173504Y2889252D02*
X1236496D01*
X1193189Y2905000D02*
X1216811D01*
X1205000Y2893189D02*
Y2916811D01*
X1771252Y2488504D02*
X1802748D01*
X1771252Y2551496D02*
X1802748D01*
X1771252Y2488504D02*
Y2551496D01*
X1802748Y2488504D02*
Y2551496D01*
X1787000Y2508189D02*
Y2531811D01*
X1775189Y2520000D02*
X1798811D01*
X2023252Y4804496D02*
X2054748D01*
X2023252Y4741504D02*
X2054748D01*
Y4804496D01*
X2023252Y4741504D02*
Y4804496D01*
X2039000Y4761189D02*
Y4784811D01*
X2027189Y4773000D02*
X2050811D01*
X2438252Y4590504D02*
X2469748D01*
X2438252Y4653496D02*
X2469748D01*
X2438252Y4590504D02*
Y4653496D01*
X2469748Y4590504D02*
Y4653496D01*
X2454000Y4610189D02*
Y4633811D01*
X2442189Y4622000D02*
X2465811D01*
X2238252Y4590504D02*
X2269748D01*
X2238252Y4653496D02*
X2269748D01*
X2238252Y4590504D02*
Y4653496D01*
X2269748Y4590504D02*
Y4653496D01*
X2254000Y4610189D02*
Y4633811D01*
X2242189Y4622000D02*
X2265811D01*
X1675252Y4707504D02*
X1706748D01*
X1675252Y4770496D02*
X1706748D01*
X1675252Y4707504D02*
Y4770496D01*
X1706748Y4707504D02*
Y4770496D01*
X1691000Y4727189D02*
Y4750811D01*
X1679189Y4739000D02*
X1702811D01*
X1564252Y3103504D02*
X1595748D01*
X1564252Y3166496D02*
X1595748D01*
X1564252Y3103504D02*
Y3166496D01*
X1595748Y3103504D02*
Y3166496D01*
X1580000Y3123189D02*
Y3146811D01*
X1568189Y3135000D02*
X1591811D01*
X1464252Y3288504D02*
X1495748D01*
X1464252Y3351496D02*
X1495748D01*
X1464252Y3288504D02*
Y3351496D01*
X1495748Y3288504D02*
Y3351496D01*
X1480000Y3308189D02*
Y3331811D01*
X1468189Y3320000D02*
X1491811D01*
X1143110Y1843898D02*
X1450197D01*
X1143110Y2174606D02*
X1450197D01*
Y1843898D02*
Y2174606D01*
X1143110Y1843898D02*
Y2174606D01*
X864173Y2120000D02*
X885827D01*
X875000Y2109173D02*
Y2130827D01*
X898622Y2076693D02*
Y2163307D01*
X851378Y2076693D02*
Y2163307D01*
X898622D01*
X851378Y2076693D02*
X898622D01*
X1571496Y1944252D02*
Y1975748D01*
X1508504Y1944252D02*
Y1975748D01*
Y1944252D02*
X1571496D01*
X1508504Y1975748D02*
X1571496D01*
X1528189Y1960000D02*
X1551811D01*
X1540000Y1948189D02*
Y1971811D01*
X864173Y2025000D02*
X885827D01*
X875000Y2014173D02*
Y2035827D01*
X898622Y1981693D02*
Y2068307D01*
X851378Y1981693D02*
Y2068307D01*
X898622D01*
X851378Y1981693D02*
X898622D01*
X1571496Y1984252D02*
Y2015748D01*
X1508504Y1984252D02*
Y2015748D01*
Y1984252D02*
X1571496D01*
X1508504Y2015748D02*
X1571496D01*
X1528189Y2000000D02*
X1551811D01*
X1540000Y1988189D02*
Y2011811D01*
X1226496Y2199252D02*
Y2230748D01*
X1163504Y2199252D02*
Y2230748D01*
Y2199252D02*
X1226496D01*
X1163504Y2230748D02*
X1226496D01*
X1183189Y2215000D02*
X1206811D01*
X1195000Y2203189D02*
Y2226811D01*
X1571496Y2104252D02*
Y2135748D01*
X1508504Y2104252D02*
Y2135748D01*
Y2104252D02*
X1571496D01*
X1508504Y2135748D02*
X1571496D01*
X1528189Y2120000D02*
X1551811D01*
X1540000Y2108189D02*
Y2131811D01*
X1571496Y2064252D02*
Y2095748D01*
X1508504Y2064252D02*
Y2095748D01*
Y2064252D02*
X1571496D01*
X1508504Y2095748D02*
X1571496D01*
X1528189Y2080000D02*
X1551811D01*
X1540000Y2068189D02*
Y2091811D01*
X1571496Y2024252D02*
Y2055748D01*
X1508504Y2024252D02*
Y2055748D01*
Y2024252D02*
X1571496D01*
X1508504Y2055748D02*
X1571496D01*
X1528189Y2040000D02*
X1551811D01*
X1540000Y2028189D02*
Y2051811D01*
X917370Y2592102D02*
Y2729898D01*
X838630Y2592102D02*
Y2729898D01*
X917370D01*
X838630Y2592102D02*
X917370D01*
X1849292Y4659606D02*
Y4860394D01*
X2010710Y4659606D02*
Y4860394D01*
X1849292Y4659606D02*
X2010710D01*
X1849292Y4860394D02*
X2010710D01*
X2333820Y4669252D02*
Y4870040D01*
X2495236Y4669252D02*
Y4870040D01*
X2333820Y4669252D02*
X2495236D01*
X2333820Y4870040D02*
X2495236D01*
X1832048Y4030748D02*
Y4251220D01*
X1530866Y4030748D02*
Y4251220D01*
Y4030748D02*
X1832048D01*
X1530866Y4251220D02*
X1832048D01*
X1624882Y2878504D02*
X1735118D01*
X1624882Y2941496D02*
X1735118D01*
Y2878504D02*
Y2941496D01*
X1624882Y2878504D02*
Y2941496D01*
X1853504Y3099882D02*
Y3210118D01*
X1916496Y3099882D02*
Y3210118D01*
X1853504Y3099882D02*
X1916496D01*
X1853504Y3210118D02*
X1916496D01*
X1638386Y3622181D02*
X1811614D01*
X1638386Y3519819D02*
X1811614D01*
X1638386D02*
Y3622181D01*
X1811614Y3519819D02*
Y3622181D01*
X1743505Y3234882D02*
Y3345118D01*
X1806496Y3234882D02*
Y3345118D01*
X1743505Y3234882D02*
X1806496D01*
X1743505Y3345118D02*
X1806496D01*
X1048346Y4195000D02*
X1070000D01*
X1059174Y4184174D02*
Y4205826D01*
X1035552Y4151694D02*
Y4238308D01*
X1082796Y4151694D02*
Y4238308D01*
X1035552Y4151694D02*
X1082796D01*
X1035552Y4238308D02*
X1082796D01*
X993346Y4195000D02*
X1015000D01*
X1004174Y4184174D02*
Y4205826D01*
X1027796Y4151694D02*
Y4238308D01*
X980552Y4151694D02*
Y4238308D01*
X1027796D01*
X980552Y4151694D02*
X1027796D01*
X1676378Y3001693D02*
X1723622D01*
X1676378Y3088307D02*
X1723622D01*
X1676378Y3001693D02*
Y3088307D01*
X1723622Y3001693D02*
Y3088307D01*
X1700000Y3034173D02*
Y3055827D01*
X1689173Y3045000D02*
X1710827D01*
X1686378Y2781693D02*
X1733622D01*
X1686378Y2868307D02*
X1733622D01*
X1686378Y2781693D02*
Y2868307D01*
X1733622Y2781693D02*
Y2868307D01*
X1710000Y2814173D02*
Y2835827D01*
X1699173Y2825000D02*
X1720827D01*
X1611378Y2868307D02*
X1658622D01*
X1611378Y2781693D02*
X1658622D01*
Y2868307D01*
X1611378Y2781693D02*
Y2868307D01*
X1635000Y2814173D02*
Y2835827D01*
X1624173Y2825000D02*
X1645827D01*
X1345080Y2956316D02*
Y3117732D01*
X1144292Y2956316D02*
Y3117732D01*
Y2956316D02*
X1345080D01*
X1144292Y3117732D02*
X1345080D01*
X1540236Y3621456D02*
Y3928544D01*
X1819764Y3621456D02*
Y3928544D01*
X1540236Y3621456D02*
X1819764D01*
X1540236Y3928544D02*
X1819764D01*
X1489292Y4659606D02*
Y4860394D01*
X1650710Y4659606D02*
Y4860394D01*
X1489292Y4659606D02*
X1650710D01*
X1489292Y4860394D02*
X1650710D01*
X1500582Y3176418D02*
X1661998D01*
X1500582Y3377204D02*
X1661998D01*
X1500582Y3176418D02*
Y3377204D01*
X1661998Y3176418D02*
Y3377204D01*
X698764Y2755024D02*
X919236D01*
X698764Y3066048D02*
X919236D01*
X698764Y2755024D02*
Y3066048D01*
X919236Y2755024D02*
Y3066048D01*
X2136970Y4669252D02*
Y4870040D01*
X2298386Y4669252D02*
Y4870040D01*
X2136970Y4669252D02*
X2298386D01*
X2136970Y4870040D02*
X2298386D01*
X1669292Y2770394D02*
X1830710D01*
X1669292Y2569606D02*
X1830710D01*
Y2770394D01*
X1669292Y2569606D02*
Y2770394D01*
X916338Y4134016D02*
X1062008D01*
X916338Y3885984D02*
X1062008D01*
Y4134016D01*
X916338Y3885984D02*
Y4134016D01*
X1861378Y3088307D02*
X1908622D01*
X1861378Y3001693D02*
X1908622D01*
Y3088307D01*
X1861378Y3001693D02*
Y3088307D01*
X1885000Y3034173D02*
Y3055827D01*
X1874173Y3045000D02*
X1895827D01*
X1180354Y3883386D02*
Y4056614D01*
X1077992Y3883386D02*
Y4056614D01*
X1180354D01*
X1077992Y3883386D02*
X1180354D01*
X963000Y3695189D02*
Y3718811D01*
X951189Y3707000D02*
X974811D01*
X931504Y3691252D02*
X994496D01*
X931504Y3722748D02*
X994496D01*
Y3691252D02*
Y3722748D01*
X931504Y3691252D02*
Y3722748D01*
X295000Y4861190D02*
Y4884812D01*
X283190Y4873000D02*
X306812D01*
X263504Y4888748D02*
X326496D01*
X263504Y4857252D02*
X326496D01*
X263504D02*
Y4888748D01*
X326496Y4857252D02*
Y4888748D01*
X598466Y4040394D02*
X759882D01*
X598466Y3839606D02*
X759882D01*
Y4040394D01*
X598466Y3839606D02*
Y4040394D01*
X1073000Y2773324D02*
Y2796946D01*
X1061190Y2785134D02*
X1084812D01*
X1041504Y2800882D02*
X1104496D01*
X1041504Y2769386D02*
X1104496D01*
X1041504D02*
Y2800882D01*
X1104496Y2769386D02*
Y2800882D01*
X1074000Y2555324D02*
Y2578946D01*
X1062190Y2567134D02*
X1085812D01*
X1042504Y2551386D02*
X1105496D01*
X1042504Y2582882D02*
X1105496D01*
Y2551386D02*
Y2582882D01*
X1042504Y2551386D02*
Y2582882D01*
X1026296Y2591008D02*
X1164092D01*
X1026296Y2756362D02*
X1164092D01*
X1026296Y2591008D02*
Y2756362D01*
X1164092Y2591008D02*
Y2756362D01*
X777189Y3865000D02*
X800811D01*
X789000Y3853189D02*
Y3876811D01*
X804748Y3833504D02*
Y3896496D01*
X773252Y3833504D02*
Y3896496D01*
X804748D01*
X773252Y3833504D02*
X804748D01*
X539378Y3932693D02*
X586622D01*
X539378Y4019307D02*
X586622D01*
X539378Y3932693D02*
Y4019307D01*
X586622Y3932693D02*
Y4019307D01*
X563000Y3965173D02*
Y3986827D01*
X552173Y3976000D02*
X573827D01*
X795552Y4146499D02*
X842796D01*
X795552Y4233113D02*
X842796D01*
X795552Y4146499D02*
Y4233113D01*
X842796Y4146499D02*
Y4233113D01*
X819174Y4178979D02*
Y4200633D01*
X808347Y4189806D02*
X830000D01*
%TF.MD5,e6fb8c76654fd61ba2a2068f390eb924*%
M02*
