%TF.GenerationSoftware,Altium Limited,Altium Designer,19.1.6 (110)*%
G04 Layer_Color=2752767*
%FSLAX26Y26*%
%MOIN*%
%TF.FileFunction,Drawing*%
%TF.Part,Single*%
G01*
G75*
%TA.AperFunction,NonConductor*%
%ADD112C,0.005000*%
%ADD113C,0.006667*%
D112*
X573000Y183000D02*
Y223000D01*
X613000D01*
Y183000D01*
X573000D01*
X2280000Y5075000D02*
Y5115000D01*
X2320000D01*
Y5075000D01*
X2280000D01*
X2627796Y328972D02*
X2607796Y368972D01*
X2647796D01*
X2627796Y328972D01*
Y428972D02*
X2607796Y468972D01*
X2647796D01*
X2627796Y428972D01*
Y528972D02*
X2607796Y568972D01*
X2647796D01*
X2627796Y528972D01*
Y628972D02*
X2607796Y668972D01*
X2647796D01*
X2627796Y628972D01*
Y728972D02*
X2607796Y768972D01*
X2647796D01*
X2627796Y728972D01*
Y828972D02*
X2607796Y868972D01*
X2647796D01*
X2627796Y828972D01*
Y928972D02*
X2607796Y968972D01*
X2647796D01*
X2627796Y928972D01*
Y1028972D02*
X2607796Y1068972D01*
X2647796D01*
X2627796Y1028972D01*
Y1128972D02*
X2607796Y1168972D01*
X2647796D01*
X2627796Y1128972D01*
Y1228972D02*
X2607796Y1268972D01*
X2647796D01*
X2627796Y1228972D01*
Y1328972D02*
X2607796Y1368972D01*
X2647796D01*
X2627796Y1328972D01*
Y1428972D02*
X2607796Y1468972D01*
X2647796D01*
X2627796Y1428972D01*
Y1528972D02*
X2607796Y1568972D01*
X2647796D01*
X2627796Y1528972D01*
Y1628972D02*
X2607796Y1668972D01*
X2647796D01*
X2627796Y1628972D01*
Y1728972D02*
X2607796Y1768972D01*
X2647796D01*
X2627796Y1728972D01*
Y1828972D02*
X2607796Y1868972D01*
X2647796D01*
X2627796Y1828972D01*
Y1928972D02*
X2607796Y1968972D01*
X2647796D01*
X2627796Y1928972D01*
Y2028972D02*
X2607796Y2068972D01*
X2647796D01*
X2627796Y2028972D01*
Y2128972D02*
X2607796Y2168972D01*
X2647796D01*
X2627796Y2128972D01*
Y2228972D02*
X2607796Y2268972D01*
X2647796D01*
X2627796Y2228972D01*
Y2328972D02*
X2607796Y2368972D01*
X2647796D01*
X2627796Y2328972D01*
Y2428972D02*
X2607796Y2468972D01*
X2647796D01*
X2627796Y2428972D01*
Y2528972D02*
X2607796Y2568972D01*
X2647796D01*
X2627796Y2528972D01*
Y2628972D02*
X2607796Y2668972D01*
X2647796D01*
X2627796Y2628972D01*
Y2728972D02*
X2607796Y2768972D01*
X2647796D01*
X2627796Y2728972D01*
Y2828972D02*
X2607796Y2868972D01*
X2647796D01*
X2627796Y2828972D01*
Y2928972D02*
X2607796Y2968972D01*
X2647796D01*
X2627796Y2928972D01*
Y3028972D02*
X2607796Y3068972D01*
X2647796D01*
X2627796Y3028972D01*
Y3128972D02*
X2607796Y3168972D01*
X2647796D01*
X2627796Y3128972D01*
Y3228972D02*
X2607796Y3268972D01*
X2647796D01*
X2627796Y3228972D01*
Y3328972D02*
X2607796Y3368972D01*
X2647796D01*
X2627796Y3328972D01*
Y3428972D02*
X2607796Y3468972D01*
X2647796D01*
X2627796Y3428972D01*
Y3528972D02*
X2607796Y3568972D01*
X2647796D01*
X2627796Y3528972D01*
Y3628972D02*
X2607796Y3668972D01*
X2647796D01*
X2627796Y3628972D01*
Y3728972D02*
X2607796Y3768972D01*
X2647796D01*
X2627796Y3728972D01*
Y3828972D02*
X2607796Y3868972D01*
X2647796D01*
X2627796Y3828972D01*
Y3928972D02*
X2607796Y3968972D01*
X2647796D01*
X2627796Y3928972D01*
Y4028972D02*
X2607796Y4068972D01*
X2647796D01*
X2627796Y4028972D01*
Y4128972D02*
X2607796Y4168972D01*
X2647796D01*
X2627796Y4128972D01*
Y4228972D02*
X2607796Y4268972D01*
X2647796D01*
X2627796Y4228972D01*
X2527796Y328972D02*
X2507796Y368972D01*
X2547796D01*
X2527796Y328972D01*
Y428972D02*
X2507796Y468972D01*
X2547796D01*
X2527796Y428972D01*
Y528972D02*
X2507796Y568972D01*
X2547796D01*
X2527796Y528972D01*
Y628972D02*
X2507796Y668972D01*
X2547796D01*
X2527796Y628972D01*
Y728972D02*
X2507796Y768972D01*
X2547796D01*
X2527796Y728972D01*
Y828972D02*
X2507796Y868972D01*
X2547796D01*
X2527796Y828972D01*
Y928972D02*
X2507796Y968972D01*
X2547796D01*
X2527796Y928972D01*
Y1028972D02*
X2507796Y1068972D01*
X2547796D01*
X2527796Y1028972D01*
Y1128972D02*
X2507796Y1168972D01*
X2547796D01*
X2527796Y1128972D01*
Y1228972D02*
X2507796Y1268972D01*
X2547796D01*
X2527796Y1228972D01*
Y1328972D02*
X2507796Y1368972D01*
X2547796D01*
X2527796Y1328972D01*
Y1428972D02*
X2507796Y1468972D01*
X2547796D01*
X2527796Y1428972D01*
Y1528972D02*
X2507796Y1568972D01*
X2547796D01*
X2527796Y1528972D01*
Y1628972D02*
X2507796Y1668972D01*
X2547796D01*
X2527796Y1628972D01*
Y1728972D02*
X2507796Y1768972D01*
X2547796D01*
X2527796Y1728972D01*
Y1828972D02*
X2507796Y1868972D01*
X2547796D01*
X2527796Y1828972D01*
Y1928972D02*
X2507796Y1968972D01*
X2547796D01*
X2527796Y1928972D01*
Y2028972D02*
X2507796Y2068972D01*
X2547796D01*
X2527796Y2028972D01*
Y2128972D02*
X2507796Y2168972D01*
X2547796D01*
X2527796Y2128972D01*
Y2228972D02*
X2507796Y2268972D01*
X2547796D01*
X2527796Y2228972D01*
Y2328972D02*
X2507796Y2368972D01*
X2547796D01*
X2527796Y2328972D01*
Y2428972D02*
X2507796Y2468972D01*
X2547796D01*
X2527796Y2428972D01*
Y2528972D02*
X2507796Y2568972D01*
X2547796D01*
X2527796Y2528972D01*
Y2628972D02*
X2507796Y2668972D01*
X2547796D01*
X2527796Y2628972D01*
Y2728972D02*
X2507796Y2768972D01*
X2547796D01*
X2527796Y2728972D01*
Y2828972D02*
X2507796Y2868972D01*
X2547796D01*
X2527796Y2828972D01*
Y2928972D02*
X2507796Y2968972D01*
X2547796D01*
X2527796Y2928972D01*
Y3028972D02*
X2507796Y3068972D01*
X2547796D01*
X2527796Y3028972D01*
Y3128972D02*
X2507796Y3168972D01*
X2547796D01*
X2527796Y3128972D01*
Y3228972D02*
X2507796Y3268972D01*
X2547796D01*
X2527796Y3228972D01*
Y3328972D02*
X2507796Y3368972D01*
X2547796D01*
X2527796Y3328972D01*
Y3428972D02*
X2507796Y3468972D01*
X2547796D01*
X2527796Y3428972D01*
Y3528972D02*
X2507796Y3568972D01*
X2547796D01*
X2527796Y3528972D01*
Y3628972D02*
X2507796Y3668972D01*
X2547796D01*
X2527796Y3628972D01*
Y3728972D02*
X2507796Y3768972D01*
X2547796D01*
X2527796Y3728972D01*
Y3828972D02*
X2507796Y3868972D01*
X2547796D01*
X2527796Y3828972D01*
Y3928972D02*
X2507796Y3968972D01*
X2547796D01*
X2527796Y3928972D01*
Y4028972D02*
X2507796Y4068972D01*
X2547796D01*
X2527796Y4028972D01*
Y4128972D02*
X2507796Y4168972D01*
X2547796D01*
X2527796Y4128972D01*
Y4228972D02*
X2507796Y4268972D01*
X2547796D01*
X2527796Y4228972D01*
X227796Y329956D02*
X207796Y369956D01*
X247796D01*
X227796Y329956D01*
Y429956D02*
X207796Y469956D01*
X247796D01*
X227796Y429956D01*
Y529956D02*
X207796Y569956D01*
X247796D01*
X227796Y529956D01*
Y629956D02*
X207796Y669956D01*
X247796D01*
X227796Y629956D01*
Y729956D02*
X207796Y769956D01*
X247796D01*
X227796Y729956D01*
Y829956D02*
X207796Y869956D01*
X247796D01*
X227796Y829956D01*
Y929956D02*
X207796Y969956D01*
X247796D01*
X227796Y929956D01*
Y1029956D02*
X207796Y1069956D01*
X247796D01*
X227796Y1029956D01*
Y1129956D02*
X207796Y1169956D01*
X247796D01*
X227796Y1129956D01*
Y1229956D02*
X207796Y1269956D01*
X247796D01*
X227796Y1229956D01*
Y1329956D02*
X207796Y1369956D01*
X247796D01*
X227796Y1329956D01*
Y1429956D02*
X207796Y1469956D01*
X247796D01*
X227796Y1429956D01*
Y1529956D02*
X207796Y1569956D01*
X247796D01*
X227796Y1529956D01*
Y1629956D02*
X207796Y1669956D01*
X247796D01*
X227796Y1629956D01*
Y1729956D02*
X207796Y1769956D01*
X247796D01*
X227796Y1729956D01*
Y1829956D02*
X207796Y1869956D01*
X247796D01*
X227796Y1829956D01*
Y1929956D02*
X207796Y1969956D01*
X247796D01*
X227796Y1929956D01*
Y2029956D02*
X207796Y2069956D01*
X247796D01*
X227796Y2029956D01*
Y2129956D02*
X207796Y2169956D01*
X247796D01*
X227796Y2129956D01*
Y2229956D02*
X207796Y2269956D01*
X247796D01*
X227796Y2229956D01*
Y2329956D02*
X207796Y2369956D01*
X247796D01*
X227796Y2329956D01*
Y2429956D02*
X207796Y2469956D01*
X247796D01*
X227796Y2429956D01*
Y2529956D02*
X207796Y2569956D01*
X247796D01*
X227796Y2529956D01*
Y2629956D02*
X207796Y2669956D01*
X247796D01*
X227796Y2629956D01*
Y2729956D02*
X207796Y2769956D01*
X247796D01*
X227796Y2729956D01*
Y2829956D02*
X207796Y2869956D01*
X247796D01*
X227796Y2829956D01*
Y2929956D02*
X207796Y2969956D01*
X247796D01*
X227796Y2929956D01*
Y3029956D02*
X207796Y3069956D01*
X247796D01*
X227796Y3029956D01*
Y3129956D02*
X207796Y3169956D01*
X247796D01*
X227796Y3129956D01*
Y3229956D02*
X207796Y3269956D01*
X247796D01*
X227796Y3229956D01*
Y3329956D02*
X207796Y3369956D01*
X247796D01*
X227796Y3329956D01*
Y3429956D02*
X207796Y3469956D01*
X247796D01*
X227796Y3429956D01*
Y3529956D02*
X207796Y3569956D01*
X247796D01*
X227796Y3529956D01*
Y3629956D02*
X207796Y3669956D01*
X247796D01*
X227796Y3629956D01*
Y3729956D02*
X207796Y3769956D01*
X247796D01*
X227796Y3729956D01*
Y3829956D02*
X207796Y3869956D01*
X247796D01*
X227796Y3829956D01*
Y3929956D02*
X207796Y3969956D01*
X247796D01*
X227796Y3929956D01*
Y4029956D02*
X207796Y4069956D01*
X247796D01*
X227796Y4029956D01*
Y4129956D02*
X207796Y4169956D01*
X247796D01*
X227796Y4129956D01*
Y4229956D02*
X207796Y4269956D01*
X247796D01*
X227796Y4229956D01*
X127796Y329956D02*
X107796Y369956D01*
X147796D01*
X127796Y329956D01*
Y429956D02*
X107796Y469956D01*
X147796D01*
X127796Y429956D01*
Y529956D02*
X107796Y569956D01*
X147796D01*
X127796Y529956D01*
Y629956D02*
X107796Y669956D01*
X147796D01*
X127796Y629956D01*
Y729956D02*
X107796Y769956D01*
X147796D01*
X127796Y729956D01*
Y829956D02*
X107796Y869956D01*
X147796D01*
X127796Y829956D01*
Y929956D02*
X107796Y969956D01*
X147796D01*
X127796Y929956D01*
Y1029956D02*
X107796Y1069956D01*
X147796D01*
X127796Y1029956D01*
Y1129956D02*
X107796Y1169956D01*
X147796D01*
X127796Y1129956D01*
Y1229956D02*
X107796Y1269956D01*
X147796D01*
X127796Y1229956D01*
Y1329956D02*
X107796Y1369956D01*
X147796D01*
X127796Y1329956D01*
Y1429956D02*
X107796Y1469956D01*
X147796D01*
X127796Y1429956D01*
Y1529956D02*
X107796Y1569956D01*
X147796D01*
X127796Y1529956D01*
Y1629956D02*
X107796Y1669956D01*
X147796D01*
X127796Y1629956D01*
Y1729956D02*
X107796Y1769956D01*
X147796D01*
X127796Y1729956D01*
Y1829956D02*
X107796Y1869956D01*
X147796D01*
X127796Y1829956D01*
Y1929956D02*
X107796Y1969956D01*
X147796D01*
X127796Y1929956D01*
Y2029956D02*
X107796Y2069956D01*
X147796D01*
X127796Y2029956D01*
Y2129956D02*
X107796Y2169956D01*
X147796D01*
X127796Y2129956D01*
Y2229956D02*
X107796Y2269956D01*
X147796D01*
X127796Y2229956D01*
Y2329956D02*
X107796Y2369956D01*
X147796D01*
X127796Y2329956D01*
Y2429956D02*
X107796Y2469956D01*
X147796D01*
X127796Y2429956D01*
Y2529956D02*
X107796Y2569956D01*
X147796D01*
X127796Y2529956D01*
Y2629956D02*
X107796Y2669956D01*
X147796D01*
X127796Y2629956D01*
Y2729956D02*
X107796Y2769956D01*
X147796D01*
X127796Y2729956D01*
Y2829956D02*
X107796Y2869956D01*
X147796D01*
X127796Y2829956D01*
Y2929956D02*
X107796Y2969956D01*
X147796D01*
X127796Y2929956D01*
Y3029956D02*
X107796Y3069956D01*
X147796D01*
X127796Y3029956D01*
Y3129956D02*
X107796Y3169956D01*
X147796D01*
X127796Y3129956D01*
Y3229956D02*
X107796Y3269956D01*
X147796D01*
X127796Y3229956D01*
Y3329956D02*
X107796Y3369956D01*
X147796D01*
X127796Y3329956D01*
Y3429956D02*
X107796Y3469956D01*
X147796D01*
X127796Y3429956D01*
Y3529956D02*
X107796Y3569956D01*
X147796D01*
X127796Y3529956D01*
Y3629956D02*
X107796Y3669956D01*
X147796D01*
X127796Y3629956D01*
Y3729956D02*
X107796Y3769956D01*
X147796D01*
X127796Y3729956D01*
Y3829956D02*
X107796Y3869956D01*
X147796D01*
X127796Y3829956D01*
Y3929956D02*
X107796Y3969956D01*
X147796D01*
X127796Y3929956D01*
Y4029956D02*
X107796Y4069956D01*
X147796D01*
X127796Y4029956D01*
Y4129956D02*
X107796Y4169956D01*
X147796D01*
X127796Y4129956D01*
Y4229956D02*
X107796Y4269956D01*
X147796D01*
X127796Y4229956D01*
X1062165Y4653740D02*
X1072165Y4663740D01*
X1082165D01*
X1072165Y4673740D01*
X1082165Y4683740D01*
X1072165D01*
X1062165Y4693740D01*
X1052165Y4683740D01*
X1042165D01*
X1052165Y4673740D01*
X1042165Y4663740D01*
X1052165D01*
X1062165Y4653740D01*
X547992D02*
X557992Y4663740D01*
X567992D01*
X557992Y4673740D01*
X567992Y4683740D01*
X557992D01*
X547992Y4693740D01*
X537992Y4683740D01*
X527992D01*
X537992Y4673740D01*
X527992Y4663740D01*
X537992D01*
X547992Y4653740D01*
X995709Y4531693D02*
X1005709Y4551693D01*
X995709Y4571693D01*
X1015709Y4561693D01*
X1035709Y4571693D01*
X1025709Y4551693D01*
X1035709Y4531693D01*
X1015709Y4541693D01*
X995709Y4531693D01*
X574449D02*
X584449Y4551693D01*
X574449Y4571693D01*
X594449Y4561693D01*
X614449Y4571693D01*
X604449Y4551693D01*
X614449Y4531693D01*
X594449Y4541693D01*
X574449Y4531693D01*
X2320000Y1020000D02*
Y1060000D01*
X2360000D01*
Y1020000D01*
X2320000D01*
X1220000Y4340000D02*
Y4380000D01*
X1260000D01*
Y4340000D01*
X1220000D01*
X500000Y4180000D02*
Y4220000D01*
X540000D01*
Y4180000D01*
X500000D01*
X710000Y4190000D02*
Y4230000D01*
X750000D01*
Y4190000D01*
X710000D01*
X1195000Y4645000D02*
Y4685000D01*
X1235000D01*
Y4645000D01*
X1195000D01*
X1320000Y3935000D02*
Y3975000D01*
X1360000D01*
Y3935000D01*
X1320000D01*
X1940000Y3640000D02*
Y3680000D01*
X1980000D01*
Y3640000D01*
X1940000D01*
X1140000Y3480000D02*
Y3520000D01*
X1180000D01*
Y3480000D01*
X1140000D01*
X1440000Y2920000D02*
Y2960000D01*
X1480000D01*
Y2920000D01*
X1440000D01*
X1945000Y2845000D02*
Y2885000D01*
X1985000D01*
Y2845000D01*
X1945000D01*
X710000Y3190000D02*
Y3230000D01*
X750000D01*
Y3190000D01*
X710000D01*
X1020000D02*
Y3230000D01*
X1060000D01*
Y3190000D01*
X1020000D01*
X1400000Y4060000D02*
Y4100000D01*
X1440000D01*
Y4060000D01*
X1400000D01*
X2085000Y5080000D02*
Y5120000D01*
X2125000D01*
Y5080000D01*
X2085000D01*
X708931Y3090484D02*
Y3080484D01*
X728931D01*
Y3090484D01*
X738931D01*
Y3110484D01*
X728931D01*
Y3120484D01*
X708931D01*
Y3110484D01*
X698931D01*
Y3090484D01*
X708931D01*
X988000Y3750000D02*
X998000D01*
X1008000Y3760000D01*
X1018000Y3750000D01*
X1028000D01*
Y3760000D01*
X1018000Y3770000D01*
X1028000Y3780000D01*
Y3790000D01*
X1018000D01*
X1008000Y3780000D01*
X998000Y3790000D01*
X988000D01*
Y3780000D01*
X998000Y3770000D01*
X988000Y3760000D01*
Y3750000D01*
X860000D02*
X870000D01*
X880000Y3760000D01*
X890000Y3750000D01*
X900000D01*
Y3760000D01*
X890000Y3770000D01*
X900000Y3780000D01*
Y3790000D01*
X890000D01*
X880000Y3780000D01*
X870000Y3790000D01*
X860000D01*
Y3780000D01*
X870000Y3770000D01*
X860000Y3760000D01*
Y3750000D01*
X696576Y3560424D02*
X706576D01*
X716576Y3570424D01*
X726576Y3560424D01*
X736576D01*
Y3570424D01*
X726576Y3580424D01*
X736576Y3590424D01*
Y3600424D01*
X726576D01*
X716576Y3590424D01*
X706576Y3600424D01*
X696576D01*
Y3590424D01*
X706576Y3580424D01*
X696576Y3570424D01*
Y3560424D01*
X1453000Y4236000D02*
X1463000D01*
X1473000Y4246000D01*
X1483000Y4236000D01*
X1493000D01*
Y4246000D01*
X1483000Y4256000D01*
X1493000Y4266000D01*
Y4276000D01*
X1483000D01*
X1473000Y4266000D01*
X1463000Y4276000D01*
X1453000D01*
Y4266000D01*
X1463000Y4256000D01*
X1453000Y4246000D01*
Y4236000D01*
X840000Y3025000D02*
X850000D01*
X860000Y3035000D01*
X870000Y3025000D01*
X880000D01*
Y3035000D01*
X870000Y3045000D01*
X880000Y3055000D01*
Y3065000D01*
X870000D01*
X860000Y3055000D01*
X850000Y3065000D01*
X840000D01*
Y3055000D01*
X850000Y3045000D01*
X840000Y3035000D01*
Y3025000D01*
X1585000Y4825000D02*
X1595000D01*
X1605000Y4835000D01*
X1615000Y4825000D01*
X1625000D01*
Y4835000D01*
X1615000Y4845000D01*
X1625000Y4855000D01*
Y4865000D01*
X1615000D01*
X1605000Y4855000D01*
X1595000Y4865000D01*
X1585000D01*
Y4855000D01*
X1595000Y4845000D01*
X1585000Y4835000D01*
Y4825000D01*
X1305000Y2060000D02*
Y2050000D01*
X1325000D01*
Y2060000D01*
X1335000D01*
Y2080000D01*
X1325000D01*
Y2090000D01*
X1305000D01*
Y2080000D01*
X1295000D01*
Y2060000D01*
X1305000D01*
X712284Y2761000D02*
X722284D01*
X732284Y2771000D01*
X742284Y2761000D01*
X752284D01*
Y2771000D01*
X742284Y2781000D01*
X752284Y2791000D01*
Y2801000D01*
X742284D01*
X732284Y2791000D01*
X722284Y2801000D01*
X712284D01*
Y2791000D01*
X722284Y2781000D01*
X712284Y2771000D01*
Y2761000D01*
X840590Y2760984D02*
X850590D01*
X860590Y2770984D01*
X870590Y2760984D01*
X880590D01*
Y2770984D01*
X870590Y2780984D01*
X880590Y2790984D01*
Y2800984D01*
X870590D01*
X860590Y2790984D01*
X850590Y2800984D01*
X840590D01*
Y2790984D01*
X850590Y2780984D01*
X840590Y2770984D01*
Y2760984D01*
X2585159Y5063839D02*
Y5053839D01*
X2605159D01*
Y5063839D01*
X2615159D01*
Y5083839D01*
X2605159D01*
Y5093839D01*
X2585159D01*
Y5083839D01*
X2575159D01*
Y5063839D01*
X2585159D01*
X2486734Y4866988D02*
Y4856988D01*
X2506734D01*
Y4866988D01*
X2516734D01*
Y4886988D01*
X2506734D01*
Y4896988D01*
X2486734D01*
Y4886988D01*
X2476734D01*
Y4866988D01*
X2486734D01*
X2585159Y4670138D02*
Y4660138D01*
X2605159D01*
Y4670138D01*
X2615159D01*
Y4690138D01*
X2605159D01*
Y4700138D01*
X2585159D01*
Y4690138D01*
X2575159D01*
Y4670138D01*
X2585159D01*
X2486734Y4473288D02*
Y4463288D01*
X2506734D01*
Y4473288D01*
X2516734D01*
Y4493288D01*
X2506734D01*
Y4503288D01*
X2486734D01*
Y4493288D01*
X2476734D01*
Y4473288D01*
X2486734D01*
X2585159Y4276437D02*
Y4266437D01*
X2605159D01*
Y4276437D01*
X2615159D01*
Y4296437D01*
X2605159D01*
Y4306437D01*
X2585159D01*
Y4296437D01*
X2575159D01*
Y4276437D01*
X2585159D01*
Y3882736D02*
Y3872736D01*
X2605159D01*
Y3882736D01*
X2615159D01*
Y3902736D01*
X2605159D01*
Y3912736D01*
X2585159D01*
Y3902736D01*
X2575159D01*
Y3882736D01*
X2585159D01*
X2486734Y3685886D02*
Y3675886D01*
X2506734D01*
Y3685886D01*
X2516734D01*
Y3705886D01*
X2506734D01*
Y3715886D01*
X2486734D01*
Y3705886D01*
X2476734D01*
Y3685886D01*
X2486734D01*
X2585159Y3489035D02*
Y3479035D01*
X2605159D01*
Y3489035D01*
X2615159D01*
Y3509035D01*
X2605159D01*
Y3519035D01*
X2585159D01*
Y3509035D01*
X2575159D01*
Y3489035D01*
X2585159D01*
X2486734Y3292185D02*
Y3282185D01*
X2506734D01*
Y3292185D01*
X2516734D01*
Y3312185D01*
X2506734D01*
Y3322185D01*
X2486734D01*
Y3312185D01*
X2476734D01*
Y3292185D01*
X2486734D01*
X2585159Y3095335D02*
Y3085335D01*
X2605159D01*
Y3095335D01*
X2615159D01*
Y3115335D01*
X2605159D01*
Y3125335D01*
X2585159D01*
Y3115335D01*
X2575159D01*
Y3095335D01*
X2585159D01*
Y2701634D02*
Y2691634D01*
X2605159D01*
Y2701634D01*
X2615159D01*
Y2721634D01*
X2605159D01*
Y2731634D01*
X2585159D01*
Y2721634D01*
X2575159D01*
Y2701634D01*
X2585159D01*
Y2307933D02*
Y2297933D01*
X2605159D01*
Y2307933D01*
X2615159D01*
Y2327933D01*
X2605159D01*
Y2337933D01*
X2585159D01*
Y2327933D01*
X2575159D01*
Y2307933D01*
X2585159D01*
X2486734Y142579D02*
Y132579D01*
X2506734D01*
Y142579D01*
X2516734D01*
Y162579D01*
X2506734D01*
Y172579D01*
X2486734D01*
Y162579D01*
X2476734D01*
Y142579D01*
X2486734D01*
X2388309Y5063839D02*
Y5053839D01*
X2408309D01*
Y5063839D01*
X2418309D01*
Y5083839D01*
X2408309D01*
Y5093839D01*
X2388309D01*
Y5083839D01*
X2378309D01*
Y5063839D01*
X2388309D01*
Y3489035D02*
Y3479035D01*
X2408309D01*
Y3489035D01*
X2418309D01*
Y3509035D01*
X2408309D01*
Y3519035D01*
X2388309D01*
Y3509035D01*
X2378309D01*
Y3489035D01*
X2388309D01*
Y3095335D02*
Y3085335D01*
X2408309D01*
Y3095335D01*
X2418309D01*
Y3115335D01*
X2408309D01*
Y3125335D01*
X2388309D01*
Y3115335D01*
X2378309D01*
Y3095335D01*
X2388309D01*
Y2701634D02*
Y2691634D01*
X2408309D01*
Y2701634D01*
X2418309D01*
Y2721634D01*
X2408309D01*
Y2731634D01*
X2388309D01*
Y2721634D01*
X2378309D01*
Y2701634D01*
X2388309D01*
X2289884Y2504784D02*
Y2494784D01*
X2309884D01*
Y2504784D01*
X2319884D01*
Y2524784D01*
X2309884D01*
Y2534784D01*
X2289884D01*
Y2524784D01*
X2279884D01*
Y2504784D01*
X2289884D01*
X2388309Y2307933D02*
Y2297933D01*
X2408309D01*
Y2307933D01*
X2418309D01*
Y2327933D01*
X2408309D01*
Y2337933D01*
X2388309D01*
Y2327933D01*
X2378309D01*
Y2307933D01*
X2388309D01*
X2289884Y2111083D02*
Y2101083D01*
X2309884D01*
Y2111083D01*
X2319884D01*
Y2131083D01*
X2309884D01*
Y2141083D01*
X2289884D01*
Y2131083D01*
X2279884D01*
Y2111083D01*
X2289884D01*
X2388309Y1914232D02*
Y1904232D01*
X2408309D01*
Y1914232D01*
X2418309D01*
Y1934232D01*
X2408309D01*
Y1944232D01*
X2388309D01*
Y1934232D01*
X2378309D01*
Y1914232D01*
X2388309D01*
X2289884Y1717382D02*
Y1707382D01*
X2309884D01*
Y1717382D01*
X2319884D01*
Y1737382D01*
X2309884D01*
Y1747382D01*
X2289884D01*
Y1737382D01*
X2279884D01*
Y1717382D01*
X2289884D01*
X2388309Y1520532D02*
Y1510532D01*
X2408309D01*
Y1520532D01*
X2418309D01*
Y1540532D01*
X2408309D01*
Y1550532D01*
X2388309D01*
Y1540532D01*
X2378309D01*
Y1520532D01*
X2388309D01*
X2289884Y1323681D02*
Y1313681D01*
X2309884D01*
Y1323681D01*
X2319884D01*
Y1343681D01*
X2309884D01*
Y1353681D01*
X2289884D01*
Y1343681D01*
X2279884D01*
Y1323681D01*
X2289884D01*
Y929980D02*
Y919980D01*
X2309884D01*
Y929980D01*
X2319884D01*
Y949980D01*
X2309884D01*
Y959980D01*
X2289884D01*
Y949980D01*
X2279884D01*
Y929980D01*
X2289884D01*
X2388309Y733130D02*
Y723130D01*
X2408309D01*
Y733130D01*
X2418309D01*
Y753130D01*
X2408309D01*
Y763130D01*
X2388309D01*
Y753130D01*
X2378309D01*
Y733130D01*
X2388309D01*
X2289884Y536279D02*
Y526279D01*
X2309884D01*
Y536279D01*
X2319884D01*
Y556279D01*
X2309884D01*
Y566279D01*
X2289884D01*
Y556279D01*
X2279884D01*
Y536279D01*
X2289884D01*
X2388309Y339429D02*
Y329429D01*
X2408309D01*
Y339429D01*
X2418309D01*
Y359429D01*
X2408309D01*
Y369429D01*
X2388309D01*
Y359429D01*
X2378309D01*
Y339429D01*
X2388309D01*
X2289884Y142579D02*
Y132579D01*
X2309884D01*
Y142579D01*
X2319884D01*
Y162579D01*
X2309884D01*
Y172579D01*
X2289884D01*
Y162579D01*
X2279884D01*
Y142579D01*
X2289884D01*
X2191458Y5063839D02*
Y5053839D01*
X2211458D01*
Y5063839D01*
X2221458D01*
Y5083839D01*
X2211458D01*
Y5093839D01*
X2191458D01*
Y5083839D01*
X2181458D01*
Y5063839D01*
X2191458D01*
X2093033Y4473288D02*
Y4463288D01*
X2113033D01*
Y4473288D01*
X2123033D01*
Y4493288D01*
X2113033D01*
Y4503288D01*
X2093033D01*
Y4493288D01*
X2083033D01*
Y4473288D01*
X2093033D01*
X2191458Y4276437D02*
Y4266437D01*
X2211458D01*
Y4276437D01*
X2221458D01*
Y4296437D01*
X2211458D01*
Y4306437D01*
X2191458D01*
Y4296437D01*
X2181458D01*
Y4276437D01*
X2191458D01*
X2093033Y3685886D02*
Y3675886D01*
X2113033D01*
Y3685886D01*
X2123033D01*
Y3705886D01*
X2113033D01*
Y3715886D01*
X2093033D01*
Y3705886D01*
X2083033D01*
Y3685886D01*
X2093033D01*
X2191458Y3489035D02*
Y3479035D01*
X2211458D01*
Y3489035D01*
X2221458D01*
Y3509035D01*
X2211458D01*
Y3519035D01*
X2191458D01*
Y3509035D01*
X2181458D01*
Y3489035D01*
X2191458D01*
X2093033Y3292185D02*
Y3282185D01*
X2113033D01*
Y3292185D01*
X2123033D01*
Y3312185D01*
X2113033D01*
Y3322185D01*
X2093033D01*
Y3312185D01*
X2083033D01*
Y3292185D01*
X2093033D01*
Y2898484D02*
Y2888484D01*
X2113033D01*
Y2898484D01*
X2123033D01*
Y2918484D01*
X2113033D01*
Y2928484D01*
X2093033D01*
Y2918484D01*
X2083033D01*
Y2898484D01*
X2093033D01*
X2191458Y2701634D02*
Y2691634D01*
X2211458D01*
Y2701634D01*
X2221458D01*
Y2721634D01*
X2211458D01*
Y2731634D01*
X2191458D01*
Y2721634D01*
X2181458D01*
Y2701634D01*
X2191458D01*
X2093033Y2504784D02*
Y2494784D01*
X2113033D01*
Y2504784D01*
X2123033D01*
Y2524784D01*
X2113033D01*
Y2534784D01*
X2093033D01*
Y2524784D01*
X2083033D01*
Y2504784D01*
X2093033D01*
X2191458Y2307933D02*
Y2297933D01*
X2211458D01*
Y2307933D01*
X2221458D01*
Y2327933D01*
X2211458D01*
Y2337933D01*
X2191458D01*
Y2327933D01*
X2181458D01*
Y2307933D01*
X2191458D01*
X2093033Y2111083D02*
Y2101083D01*
X2113033D01*
Y2111083D01*
X2123033D01*
Y2131083D01*
X2113033D01*
Y2141083D01*
X2093033D01*
Y2131083D01*
X2083033D01*
Y2111083D01*
X2093033D01*
X2191458Y1914232D02*
Y1904232D01*
X2211458D01*
Y1914232D01*
X2221458D01*
Y1934232D01*
X2211458D01*
Y1944232D01*
X2191458D01*
Y1934232D01*
X2181458D01*
Y1914232D01*
X2191458D01*
X2093033Y1717382D02*
Y1707382D01*
X2113033D01*
Y1717382D01*
X2123033D01*
Y1737382D01*
X2113033D01*
Y1747382D01*
X2093033D01*
Y1737382D01*
X2083033D01*
Y1717382D01*
X2093033D01*
X2191458Y1520532D02*
Y1510532D01*
X2211458D01*
Y1520532D01*
X2221458D01*
Y1540532D01*
X2211458D01*
Y1550532D01*
X2191458D01*
Y1540532D01*
X2181458D01*
Y1520532D01*
X2191458D01*
X2093033Y1323681D02*
Y1313681D01*
X2113033D01*
Y1323681D01*
X2123033D01*
Y1343681D01*
X2113033D01*
Y1353681D01*
X2093033D01*
Y1343681D01*
X2083033D01*
Y1323681D01*
X2093033D01*
X2191458Y1126831D02*
Y1116831D01*
X2211458D01*
Y1126831D01*
X2221458D01*
Y1146831D01*
X2211458D01*
Y1156831D01*
X2191458D01*
Y1146831D01*
X2181458D01*
Y1126831D01*
X2191458D01*
X2093033Y929980D02*
Y919980D01*
X2113033D01*
Y929980D01*
X2123033D01*
Y949980D01*
X2113033D01*
Y959980D01*
X2093033D01*
Y949980D01*
X2083033D01*
Y929980D01*
X2093033D01*
X2191458Y733130D02*
Y723130D01*
X2211458D01*
Y733130D01*
X2221458D01*
Y753130D01*
X2211458D01*
Y763130D01*
X2191458D01*
Y753130D01*
X2181458D01*
Y733130D01*
X2191458D01*
X2093033Y536279D02*
Y526279D01*
X2113033D01*
Y536279D01*
X2123033D01*
Y556279D01*
X2113033D01*
Y566279D01*
X2093033D01*
Y556279D01*
X2083033D01*
Y536279D01*
X2093033D01*
X2191458Y339429D02*
Y329429D01*
X2211458D01*
Y339429D01*
X2221458D01*
Y359429D01*
X2211458D01*
Y369429D01*
X2191458D01*
Y359429D01*
X2181458D01*
Y339429D01*
X2191458D01*
X2093033Y142579D02*
Y132579D01*
X2113033D01*
Y142579D01*
X2123033D01*
Y162579D01*
X2113033D01*
Y172579D01*
X2093033D01*
Y162579D01*
X2083033D01*
Y142579D01*
X2093033D01*
X1994608Y5063839D02*
Y5053839D01*
X2014608D01*
Y5063839D01*
X2024608D01*
Y5083839D01*
X2014608D01*
Y5093839D01*
X1994608D01*
Y5083839D01*
X1984608D01*
Y5063839D01*
X1994608D01*
Y4670138D02*
Y4660138D01*
X2014608D01*
Y4670138D01*
X2024608D01*
Y4690138D01*
X2014608D01*
Y4700138D01*
X1994608D01*
Y4690138D01*
X1984608D01*
Y4670138D01*
X1994608D01*
X1896183Y3685886D02*
Y3675886D01*
X1916183D01*
Y3685886D01*
X1926183D01*
Y3705886D01*
X1916183D01*
Y3715886D01*
X1896183D01*
Y3705886D01*
X1886183D01*
Y3685886D01*
X1896183D01*
X1994608Y3489035D02*
Y3479035D01*
X2014608D01*
Y3489035D01*
X2024608D01*
Y3509035D01*
X2014608D01*
Y3519035D01*
X1994608D01*
Y3509035D01*
X1984608D01*
Y3489035D01*
X1994608D01*
Y3095335D02*
Y3085335D01*
X2014608D01*
Y3095335D01*
X2024608D01*
Y3115335D01*
X2014608D01*
Y3125335D01*
X1994608D01*
Y3115335D01*
X1984608D01*
Y3095335D01*
X1994608D01*
Y2701634D02*
Y2691634D01*
X2014608D01*
Y2701634D01*
X2024608D01*
Y2721634D01*
X2014608D01*
Y2731634D01*
X1994608D01*
Y2721634D01*
X1984608D01*
Y2701634D01*
X1994608D01*
Y2307933D02*
Y2297933D01*
X2014608D01*
Y2307933D01*
X2024608D01*
Y2327933D01*
X2014608D01*
Y2337933D01*
X1994608D01*
Y2327933D01*
X1984608D01*
Y2307933D01*
X1994608D01*
Y1914232D02*
Y1904232D01*
X2014608D01*
Y1914232D01*
X2024608D01*
Y1934232D01*
X2014608D01*
Y1944232D01*
X1994608D01*
Y1934232D01*
X1984608D01*
Y1914232D01*
X1994608D01*
X1896183Y1717382D02*
Y1707382D01*
X1916183D01*
Y1717382D01*
X1926183D01*
Y1737382D01*
X1916183D01*
Y1747382D01*
X1896183D01*
Y1737382D01*
X1886183D01*
Y1717382D01*
X1896183D01*
X1994608Y1520532D02*
Y1510532D01*
X2014608D01*
Y1520532D01*
X2024608D01*
Y1540532D01*
X2014608D01*
Y1550532D01*
X1994608D01*
Y1540532D01*
X1984608D01*
Y1520532D01*
X1994608D01*
X1896183Y1323681D02*
Y1313681D01*
X1916183D01*
Y1323681D01*
X1926183D01*
Y1343681D01*
X1916183D01*
Y1353681D01*
X1896183D01*
Y1343681D01*
X1886183D01*
Y1323681D01*
X1896183D01*
X1994608Y1126831D02*
Y1116831D01*
X2014608D01*
Y1126831D01*
X2024608D01*
Y1146831D01*
X2014608D01*
Y1156831D01*
X1994608D01*
Y1146831D01*
X1984608D01*
Y1126831D01*
X1994608D01*
X1896183Y929980D02*
Y919980D01*
X1916183D01*
Y929980D01*
X1926183D01*
Y949980D01*
X1916183D01*
Y959980D01*
X1896183D01*
Y949980D01*
X1886183D01*
Y929980D01*
X1896183D01*
X1994608Y733130D02*
Y723130D01*
X2014608D01*
Y733130D01*
X2024608D01*
Y753130D01*
X2014608D01*
Y763130D01*
X1994608D01*
Y753130D01*
X1984608D01*
Y733130D01*
X1994608D01*
X1896183Y536279D02*
Y526279D01*
X1916183D01*
Y536279D01*
X1926183D01*
Y556279D01*
X1916183D01*
Y566279D01*
X1896183D01*
Y556279D01*
X1886183D01*
Y536279D01*
X1896183D01*
X1994608Y339429D02*
Y329429D01*
X2014608D01*
Y339429D01*
X2024608D01*
Y359429D01*
X2014608D01*
Y369429D01*
X1994608D01*
Y359429D01*
X1984608D01*
Y339429D01*
X1994608D01*
X1896183Y142579D02*
Y132579D01*
X1916183D01*
Y142579D01*
X1926183D01*
Y162579D01*
X1916183D01*
Y172579D01*
X1896183D01*
Y162579D01*
X1886183D01*
Y142579D01*
X1896183D01*
X1797758Y5063839D02*
Y5053839D01*
X1817758D01*
Y5063839D01*
X1827758D01*
Y5083839D01*
X1817758D01*
Y5093839D01*
X1797758D01*
Y5083839D01*
X1787758D01*
Y5063839D01*
X1797758D01*
Y4670138D02*
Y4660138D01*
X1817758D01*
Y4670138D01*
X1827758D01*
Y4690138D01*
X1817758D01*
Y4700138D01*
X1797758D01*
Y4690138D01*
X1787758D01*
Y4670138D01*
X1797758D01*
X1699332Y4473288D02*
Y4463288D01*
X1719332D01*
Y4473288D01*
X1729332D01*
Y4493288D01*
X1719332D01*
Y4503288D01*
X1699332D01*
Y4493288D01*
X1689332D01*
Y4473288D01*
X1699332D01*
X1797758Y4276437D02*
Y4266437D01*
X1817758D01*
Y4276437D01*
X1827758D01*
Y4296437D01*
X1817758D01*
Y4306437D01*
X1797758D01*
Y4296437D01*
X1787758D01*
Y4276437D01*
X1797758D01*
Y1520532D02*
Y1510532D01*
X1817758D01*
Y1520532D01*
X1827758D01*
Y1540532D01*
X1817758D01*
Y1550532D01*
X1797758D01*
Y1540532D01*
X1787758D01*
Y1520532D01*
X1797758D01*
X1699332Y1323681D02*
Y1313681D01*
X1719332D01*
Y1323681D01*
X1729332D01*
Y1343681D01*
X1719332D01*
Y1353681D01*
X1699332D01*
Y1343681D01*
X1689332D01*
Y1323681D01*
X1699332D01*
X1797758Y1126831D02*
Y1116831D01*
X1817758D01*
Y1126831D01*
X1827758D01*
Y1146831D01*
X1817758D01*
Y1156831D01*
X1797758D01*
Y1146831D01*
X1787758D01*
Y1126831D01*
X1797758D01*
X1699332Y929980D02*
Y919980D01*
X1719332D01*
Y929980D01*
X1729332D01*
Y949980D01*
X1719332D01*
Y959980D01*
X1699332D01*
Y949980D01*
X1689332D01*
Y929980D01*
X1699332D01*
X1797758Y733130D02*
Y723130D01*
X1817758D01*
Y733130D01*
X1827758D01*
Y753130D01*
X1817758D01*
Y763130D01*
X1797758D01*
Y753130D01*
X1787758D01*
Y733130D01*
X1797758D01*
X1699332Y536279D02*
Y526279D01*
X1719332D01*
Y536279D01*
X1729332D01*
Y556279D01*
X1719332D01*
Y566279D01*
X1699332D01*
Y556279D01*
X1689332D01*
Y536279D01*
X1699332D01*
X1797758Y339429D02*
Y329429D01*
X1817758D01*
Y339429D01*
X1827758D01*
Y359429D01*
X1817758D01*
Y369429D01*
X1797758D01*
Y359429D01*
X1787758D01*
Y339429D01*
X1797758D01*
X1699332Y142579D02*
Y132579D01*
X1719332D01*
Y142579D01*
X1729332D01*
Y162579D01*
X1719332D01*
Y172579D01*
X1699332D01*
Y162579D01*
X1689332D01*
Y142579D01*
X1699332D01*
X1600907Y5063839D02*
Y5053839D01*
X1620907D01*
Y5063839D01*
X1630907D01*
Y5083839D01*
X1620907D01*
Y5093839D01*
X1600907D01*
Y5083839D01*
X1590907D01*
Y5063839D01*
X1600907D01*
Y4276437D02*
Y4266437D01*
X1620907D01*
Y4276437D01*
X1630907D01*
Y4296437D01*
X1620907D01*
Y4306437D01*
X1600907D01*
Y4296437D01*
X1590907D01*
Y4276437D01*
X1600907D01*
X1502482Y3685886D02*
Y3675886D01*
X1522482D01*
Y3685886D01*
X1532482D01*
Y3705886D01*
X1522482D01*
Y3715886D01*
X1502482D01*
Y3705886D01*
X1492482D01*
Y3685886D01*
X1502482D01*
Y1717382D02*
Y1707382D01*
X1522482D01*
Y1717382D01*
X1532482D01*
Y1737382D01*
X1522482D01*
Y1747382D01*
X1502482D01*
Y1737382D01*
X1492482D01*
Y1717382D01*
X1502482D01*
X1600907Y1520532D02*
Y1510532D01*
X1620907D01*
Y1520532D01*
X1630907D01*
Y1540532D01*
X1620907D01*
Y1550532D01*
X1600907D01*
Y1540532D01*
X1590907D01*
Y1520532D01*
X1600907D01*
X1502482Y1323681D02*
Y1313681D01*
X1522482D01*
Y1323681D01*
X1532482D01*
Y1343681D01*
X1522482D01*
Y1353681D01*
X1502482D01*
Y1343681D01*
X1492482D01*
Y1323681D01*
X1502482D01*
X1600907Y1126831D02*
Y1116831D01*
X1620907D01*
Y1126831D01*
X1630907D01*
Y1146831D01*
X1620907D01*
Y1156831D01*
X1600907D01*
Y1146831D01*
X1590907D01*
Y1126831D01*
X1600907D01*
X1502482Y929980D02*
Y919980D01*
X1522482D01*
Y929980D01*
X1532482D01*
Y949980D01*
X1522482D01*
Y959980D01*
X1502482D01*
Y949980D01*
X1492482D01*
Y929980D01*
X1502482D01*
X1600907Y733130D02*
Y723130D01*
X1620907D01*
Y733130D01*
X1630907D01*
Y753130D01*
X1620907D01*
Y763130D01*
X1600907D01*
Y753130D01*
X1590907D01*
Y733130D01*
X1600907D01*
X1502482Y536279D02*
Y526279D01*
X1522482D01*
Y536279D01*
X1532482D01*
Y556279D01*
X1522482D01*
Y566279D01*
X1502482D01*
Y556279D01*
X1492482D01*
Y536279D01*
X1502482D01*
X1600907Y339429D02*
Y329429D01*
X1620907D01*
Y339429D01*
X1630907D01*
Y359429D01*
X1620907D01*
Y369429D01*
X1600907D01*
Y359429D01*
X1590907D01*
Y339429D01*
X1600907D01*
X1502482Y142579D02*
Y132579D01*
X1522482D01*
Y142579D01*
X1532482D01*
Y162579D01*
X1522482D01*
Y172579D01*
X1502482D01*
Y162579D01*
X1492482D01*
Y142579D01*
X1502482D01*
X1404057Y5063839D02*
Y5053839D01*
X1424057D01*
Y5063839D01*
X1434057D01*
Y5083839D01*
X1424057D01*
Y5093839D01*
X1404057D01*
Y5083839D01*
X1394057D01*
Y5063839D01*
X1404057D01*
Y4670138D02*
Y4660138D01*
X1424057D01*
Y4670138D01*
X1434057D01*
Y4690138D01*
X1424057D01*
Y4700138D01*
X1404057D01*
Y4690138D01*
X1394057D01*
Y4670138D01*
X1404057D01*
X1305632Y4473288D02*
Y4463288D01*
X1325632D01*
Y4473288D01*
X1335632D01*
Y4493288D01*
X1325632D01*
Y4503288D01*
X1305632D01*
Y4493288D01*
X1295632D01*
Y4473288D01*
X1305632D01*
X1404057Y4276437D02*
Y4266437D01*
X1424057D01*
Y4276437D01*
X1434057D01*
Y4296437D01*
X1424057D01*
Y4306437D01*
X1404057D01*
Y4296437D01*
X1394057D01*
Y4276437D01*
X1404057D01*
X1305632Y4079587D02*
Y4069587D01*
X1325632D01*
Y4079587D01*
X1335632D01*
Y4099587D01*
X1325632D01*
Y4109587D01*
X1305632D01*
Y4099587D01*
X1295632D01*
Y4079587D01*
X1305632D01*
X1404057Y1520532D02*
Y1510532D01*
X1424057D01*
Y1520532D01*
X1434057D01*
Y1540532D01*
X1424057D01*
Y1550532D01*
X1404057D01*
Y1540532D01*
X1394057D01*
Y1520532D01*
X1404057D01*
X1305632Y1323681D02*
Y1313681D01*
X1325632D01*
Y1323681D01*
X1335632D01*
Y1343681D01*
X1325632D01*
Y1353681D01*
X1305632D01*
Y1343681D01*
X1295632D01*
Y1323681D01*
X1305632D01*
X1404057Y1126831D02*
Y1116831D01*
X1424057D01*
Y1126831D01*
X1434057D01*
Y1146831D01*
X1424057D01*
Y1156831D01*
X1404057D01*
Y1146831D01*
X1394057D01*
Y1126831D01*
X1404057D01*
X1305632Y929980D02*
Y919980D01*
X1325632D01*
Y929980D01*
X1335632D01*
Y949980D01*
X1325632D01*
Y959980D01*
X1305632D01*
Y949980D01*
X1295632D01*
Y929980D01*
X1305632D01*
X1404057Y733130D02*
Y723130D01*
X1424057D01*
Y733130D01*
X1434057D01*
Y753130D01*
X1424057D01*
Y763130D01*
X1404057D01*
Y753130D01*
X1394057D01*
Y733130D01*
X1404057D01*
X1305632Y536279D02*
Y526279D01*
X1325632D01*
Y536279D01*
X1335632D01*
Y556279D01*
X1325632D01*
Y566279D01*
X1305632D01*
Y556279D01*
X1295632D01*
Y536279D01*
X1305632D01*
X1404057Y339429D02*
Y329429D01*
X1424057D01*
Y339429D01*
X1434057D01*
Y359429D01*
X1424057D01*
Y369429D01*
X1404057D01*
Y359429D01*
X1394057D01*
Y339429D01*
X1404057D01*
X1305632Y142579D02*
Y132579D01*
X1325632D01*
Y142579D01*
X1335632D01*
Y162579D01*
X1325632D01*
Y172579D01*
X1305632D01*
Y162579D01*
X1295632D01*
Y142579D01*
X1305632D01*
X1207206Y5063839D02*
Y5053839D01*
X1227206D01*
Y5063839D01*
X1237206D01*
Y5083839D01*
X1227206D01*
Y5093839D01*
X1207206D01*
Y5083839D01*
X1197206D01*
Y5063839D01*
X1207206D01*
Y4276437D02*
Y4266437D01*
X1227206D01*
Y4276437D01*
X1237206D01*
Y4296437D01*
X1227206D01*
Y4306437D01*
X1207206D01*
Y4296437D01*
X1197206D01*
Y4276437D01*
X1207206D01*
Y1520532D02*
Y1510532D01*
X1227206D01*
Y1520532D01*
X1237206D01*
Y1540532D01*
X1227206D01*
Y1550532D01*
X1207206D01*
Y1540532D01*
X1197206D01*
Y1520532D01*
X1207206D01*
X1108781Y1323681D02*
Y1313681D01*
X1128781D01*
Y1323681D01*
X1138781D01*
Y1343681D01*
X1128781D01*
Y1353681D01*
X1108781D01*
Y1343681D01*
X1098781D01*
Y1323681D01*
X1108781D01*
X1207206Y1126831D02*
Y1116831D01*
X1227206D01*
Y1126831D01*
X1237206D01*
Y1146831D01*
X1227206D01*
Y1156831D01*
X1207206D01*
Y1146831D01*
X1197206D01*
Y1126831D01*
X1207206D01*
X1108781Y929980D02*
Y919980D01*
X1128781D01*
Y929980D01*
X1138781D01*
Y949980D01*
X1128781D01*
Y959980D01*
X1108781D01*
Y949980D01*
X1098781D01*
Y929980D01*
X1108781D01*
X1207206Y733130D02*
Y723130D01*
X1227206D01*
Y733130D01*
X1237206D01*
Y753130D01*
X1227206D01*
Y763130D01*
X1207206D01*
Y753130D01*
X1197206D01*
Y733130D01*
X1207206D01*
X1108781Y536279D02*
Y526279D01*
X1128781D01*
Y536279D01*
X1138781D01*
Y556279D01*
X1128781D01*
Y566279D01*
X1108781D01*
Y556279D01*
X1098781D01*
Y536279D01*
X1108781D01*
X1207206Y339429D02*
Y329429D01*
X1227206D01*
Y339429D01*
X1237206D01*
Y359429D01*
X1227206D01*
Y369429D01*
X1207206D01*
Y359429D01*
X1197206D01*
Y339429D01*
X1207206D01*
X1108781Y142579D02*
Y132579D01*
X1128781D01*
Y142579D01*
X1138781D01*
Y162579D01*
X1128781D01*
Y172579D01*
X1108781D01*
Y162579D01*
X1098781D01*
Y142579D01*
X1108781D01*
X1010356Y5063839D02*
Y5053839D01*
X1030356D01*
Y5063839D01*
X1040356D01*
Y5083839D01*
X1030356D01*
Y5093839D01*
X1010356D01*
Y5083839D01*
X1000356D01*
Y5063839D01*
X1010356D01*
X911931Y4866988D02*
Y4856988D01*
X931931D01*
Y4866988D01*
X941931D01*
Y4886988D01*
X931931D01*
Y4896988D01*
X911931D01*
Y4886988D01*
X901931D01*
Y4866988D01*
X911931D01*
Y4473288D02*
Y4463288D01*
X931931D01*
Y4473288D01*
X941931D01*
Y4493288D01*
X931931D01*
Y4503288D01*
X911931D01*
Y4493288D01*
X901931D01*
Y4473288D01*
X911931D01*
X1010356Y4276437D02*
Y4266437D01*
X1030356D01*
Y4276437D01*
X1040356D01*
Y4296437D01*
X1030356D01*
Y4306437D01*
X1010356D01*
Y4296437D01*
X1000356D01*
Y4276437D01*
X1010356D01*
Y1520532D02*
Y1510532D01*
X1030356D01*
Y1520532D01*
X1040356D01*
Y1540532D01*
X1030356D01*
Y1550532D01*
X1010356D01*
Y1540532D01*
X1000356D01*
Y1520532D01*
X1010356D01*
X911931Y1323681D02*
Y1313681D01*
X931931D01*
Y1323681D01*
X941931D01*
Y1343681D01*
X931931D01*
Y1353681D01*
X911931D01*
Y1343681D01*
X901931D01*
Y1323681D01*
X911931D01*
X1010356Y1126831D02*
Y1116831D01*
X1030356D01*
Y1126831D01*
X1040356D01*
Y1146831D01*
X1030356D01*
Y1156831D01*
X1010356D01*
Y1146831D01*
X1000356D01*
Y1126831D01*
X1010356D01*
X911931Y929980D02*
Y919980D01*
X931931D01*
Y929980D01*
X941931D01*
Y949980D01*
X931931D01*
Y959980D01*
X911931D01*
Y949980D01*
X901931D01*
Y929980D01*
X911931D01*
X1010356Y733130D02*
Y723130D01*
X1030356D01*
Y733130D01*
X1040356D01*
Y753130D01*
X1030356D01*
Y763130D01*
X1010356D01*
Y753130D01*
X1000356D01*
Y733130D01*
X1010356D01*
X911931Y536279D02*
Y526279D01*
X931931D01*
Y536279D01*
X941931D01*
Y556279D01*
X931931D01*
Y566279D01*
X911931D01*
Y556279D01*
X901931D01*
Y536279D01*
X911931D01*
X1010356Y339429D02*
Y329429D01*
X1030356D01*
Y339429D01*
X1040356D01*
Y359429D01*
X1030356D01*
Y369429D01*
X1010356D01*
Y359429D01*
X1000356D01*
Y339429D01*
X1010356D01*
X911931Y142579D02*
Y132579D01*
X931931D01*
Y142579D01*
X941931D01*
Y162579D01*
X931931D01*
Y172579D01*
X911931D01*
Y162579D01*
X901931D01*
Y142579D01*
X911931D01*
X813506Y5063839D02*
Y5053839D01*
X833506D01*
Y5063839D01*
X843506D01*
Y5083839D01*
X833506D01*
Y5093839D01*
X813506D01*
Y5083839D01*
X803506D01*
Y5063839D01*
X813506D01*
X715080Y4866988D02*
Y4856988D01*
X735080D01*
Y4866988D01*
X745080D01*
Y4886988D01*
X735080D01*
Y4896988D01*
X715080D01*
Y4886988D01*
X705080D01*
Y4866988D01*
X715080D01*
X813506Y1520532D02*
Y1510532D01*
X833506D01*
Y1520532D01*
X843506D01*
Y1540532D01*
X833506D01*
Y1550532D01*
X813506D01*
Y1540532D01*
X803506D01*
Y1520532D01*
X813506D01*
X715080Y1323681D02*
Y1313681D01*
X735080D01*
Y1323681D01*
X745080D01*
Y1343681D01*
X735080D01*
Y1353681D01*
X715080D01*
Y1343681D01*
X705080D01*
Y1323681D01*
X715080D01*
X813506Y1126831D02*
Y1116831D01*
X833506D01*
Y1126831D01*
X843506D01*
Y1146831D01*
X833506D01*
Y1156831D01*
X813506D01*
Y1146831D01*
X803506D01*
Y1126831D01*
X813506D01*
X715080Y929980D02*
Y919980D01*
X735080D01*
Y929980D01*
X745080D01*
Y949980D01*
X735080D01*
Y959980D01*
X715080D01*
Y949980D01*
X705080D01*
Y929980D01*
X715080D01*
X813506Y733130D02*
Y723130D01*
X833506D01*
Y733130D01*
X843506D01*
Y753130D01*
X833506D01*
Y763130D01*
X813506D01*
Y753130D01*
X803506D01*
Y733130D01*
X813506D01*
X715080Y536279D02*
Y526279D01*
X735080D01*
Y536279D01*
X745080D01*
Y556279D01*
X735080D01*
Y566279D01*
X715080D01*
Y556279D01*
X705080D01*
Y536279D01*
X715080D01*
X813506Y339429D02*
Y329429D01*
X833506D01*
Y339429D01*
X843506D01*
Y359429D01*
X833506D01*
Y369429D01*
X813506D01*
Y359429D01*
X803506D01*
Y339429D01*
X813506D01*
X715080Y142579D02*
Y132579D01*
X735080D01*
Y142579D01*
X745080D01*
Y162579D01*
X735080D01*
Y172579D01*
X715080D01*
Y162579D01*
X705080D01*
Y142579D01*
X715080D01*
X616655Y5063839D02*
Y5053839D01*
X636655D01*
Y5063839D01*
X646655D01*
Y5083839D01*
X636655D01*
Y5093839D01*
X616655D01*
Y5083839D01*
X606655D01*
Y5063839D01*
X616655D01*
X518230Y3685886D02*
Y3675886D01*
X538230D01*
Y3685886D01*
X548230D01*
Y3705886D01*
X538230D01*
Y3715886D01*
X518230D01*
Y3705886D01*
X508230D01*
Y3685886D01*
X518230D01*
X616655Y1520532D02*
Y1510532D01*
X636655D01*
Y1520532D01*
X646655D01*
Y1540532D01*
X636655D01*
Y1550532D01*
X616655D01*
Y1540532D01*
X606655D01*
Y1520532D01*
X616655D01*
X518230Y1323681D02*
Y1313681D01*
X538230D01*
Y1323681D01*
X548230D01*
Y1343681D01*
X538230D01*
Y1353681D01*
X518230D01*
Y1343681D01*
X508230D01*
Y1323681D01*
X518230D01*
X616655Y1126831D02*
Y1116831D01*
X636655D01*
Y1126831D01*
X646655D01*
Y1146831D01*
X636655D01*
Y1156831D01*
X616655D01*
Y1146831D01*
X606655D01*
Y1126831D01*
X616655D01*
X518230Y929980D02*
Y919980D01*
X538230D01*
Y929980D01*
X548230D01*
Y949980D01*
X538230D01*
Y959980D01*
X518230D01*
Y949980D01*
X508230D01*
Y929980D01*
X518230D01*
X616655Y733130D02*
Y723130D01*
X636655D01*
Y733130D01*
X646655D01*
Y753130D01*
X636655D01*
Y763130D01*
X616655D01*
Y753130D01*
X606655D01*
Y733130D01*
X616655D01*
X518230Y536279D02*
Y526279D01*
X538230D01*
Y536279D01*
X548230D01*
Y556279D01*
X538230D01*
Y566279D01*
X518230D01*
Y556279D01*
X508230D01*
Y536279D01*
X518230D01*
X616655Y339429D02*
Y329429D01*
X636655D01*
Y339429D01*
X646655D01*
Y359429D01*
X636655D01*
Y369429D01*
X616655D01*
Y359429D01*
X606655D01*
Y339429D01*
X616655D01*
X518230Y142579D02*
Y132579D01*
X538230D01*
Y142579D01*
X548230D01*
Y162579D01*
X538230D01*
Y172579D01*
X518230D01*
Y162579D01*
X508230D01*
Y142579D01*
X518230D01*
X419805Y5063839D02*
Y5053839D01*
X439805D01*
Y5063839D01*
X449805D01*
Y5083839D01*
X439805D01*
Y5093839D01*
X419805D01*
Y5083839D01*
X409805D01*
Y5063839D01*
X419805D01*
Y4670138D02*
Y4660138D01*
X439805D01*
Y4670138D01*
X449805D01*
Y4690138D01*
X439805D01*
Y4700138D01*
X419805D01*
Y4690138D01*
X409805D01*
Y4670138D01*
X419805D01*
X321380Y4473288D02*
Y4463288D01*
X341380D01*
Y4473288D01*
X351380D01*
Y4493288D01*
X341380D01*
Y4503288D01*
X321380D01*
Y4493288D01*
X311380D01*
Y4473288D01*
X321380D01*
X419805Y4276437D02*
Y4266437D01*
X439805D01*
Y4276437D01*
X449805D01*
Y4296437D01*
X439805D01*
Y4306437D01*
X419805D01*
Y4296437D01*
X409805D01*
Y4276437D01*
X419805D01*
X321380Y4079587D02*
Y4069587D01*
X341380D01*
Y4079587D01*
X351380D01*
Y4099587D01*
X341380D01*
Y4109587D01*
X321380D01*
Y4099587D01*
X311380D01*
Y4079587D01*
X321380D01*
Y3685886D02*
Y3675886D01*
X341380D01*
Y3685886D01*
X351380D01*
Y3705886D01*
X341380D01*
Y3715886D01*
X321380D01*
Y3705886D01*
X311380D01*
Y3685886D01*
X321380D01*
X419805Y3489035D02*
Y3479035D01*
X439805D01*
Y3489035D01*
X449805D01*
Y3509035D01*
X439805D01*
Y3519035D01*
X419805D01*
Y3509035D01*
X409805D01*
Y3489035D01*
X419805D01*
X321380Y3292185D02*
Y3282185D01*
X341380D01*
Y3292185D01*
X351380D01*
Y3312185D01*
X341380D01*
Y3322185D01*
X321380D01*
Y3312185D01*
X311380D01*
Y3292185D01*
X321380D01*
X419805Y3095335D02*
Y3085335D01*
X439805D01*
Y3095335D01*
X449805D01*
Y3115335D01*
X439805D01*
Y3125335D01*
X419805D01*
Y3115335D01*
X409805D01*
Y3095335D01*
X419805D01*
X321380Y2898484D02*
Y2888484D01*
X341380D01*
Y2898484D01*
X351380D01*
Y2918484D01*
X341380D01*
Y2928484D01*
X321380D01*
Y2918484D01*
X311380D01*
Y2898484D01*
X321380D01*
X419805Y2701634D02*
Y2691634D01*
X439805D01*
Y2701634D01*
X449805D01*
Y2721634D01*
X439805D01*
Y2731634D01*
X419805D01*
Y2721634D01*
X409805D01*
Y2701634D01*
X419805D01*
X321380Y2504784D02*
Y2494784D01*
X341380D01*
Y2504784D01*
X351380D01*
Y2524784D01*
X341380D01*
Y2534784D01*
X321380D01*
Y2524784D01*
X311380D01*
Y2504784D01*
X321380D01*
X419805Y2307933D02*
Y2297933D01*
X439805D01*
Y2307933D01*
X449805D01*
Y2327933D01*
X439805D01*
Y2337933D01*
X419805D01*
Y2327933D01*
X409805D01*
Y2307933D01*
X419805D01*
Y1914232D02*
Y1904232D01*
X439805D01*
Y1914232D01*
X449805D01*
Y1934232D01*
X439805D01*
Y1944232D01*
X419805D01*
Y1934232D01*
X409805D01*
Y1914232D01*
X419805D01*
X321380Y1717382D02*
Y1707382D01*
X341380D01*
Y1717382D01*
X351380D01*
Y1737382D01*
X341380D01*
Y1747382D01*
X321380D01*
Y1737382D01*
X311380D01*
Y1717382D01*
X321380D01*
X419805Y1520532D02*
Y1510532D01*
X439805D01*
Y1520532D01*
X449805D01*
Y1540532D01*
X439805D01*
Y1550532D01*
X419805D01*
Y1540532D01*
X409805D01*
Y1520532D01*
X419805D01*
X321380Y1323681D02*
Y1313681D01*
X341380D01*
Y1323681D01*
X351380D01*
Y1343681D01*
X341380D01*
Y1353681D01*
X321380D01*
Y1343681D01*
X311380D01*
Y1323681D01*
X321380D01*
X419805Y1126831D02*
Y1116831D01*
X439805D01*
Y1126831D01*
X449805D01*
Y1146831D01*
X439805D01*
Y1156831D01*
X419805D01*
Y1146831D01*
X409805D01*
Y1126831D01*
X419805D01*
X321380Y929980D02*
Y919980D01*
X341380D01*
Y929980D01*
X351380D01*
Y949980D01*
X341380D01*
Y959980D01*
X321380D01*
Y949980D01*
X311380D01*
Y929980D01*
X321380D01*
Y536279D02*
Y526279D01*
X341380D01*
Y536279D01*
X351380D01*
Y556279D01*
X341380D01*
Y566279D01*
X321380D01*
Y556279D01*
X311380D01*
Y536279D01*
X321380D01*
X419805Y339429D02*
Y329429D01*
X439805D01*
Y339429D01*
X449805D01*
Y359429D01*
X439805D01*
Y369429D01*
X419805D01*
Y359429D01*
X409805D01*
Y339429D01*
X419805D01*
X321380Y142579D02*
Y132579D01*
X341380D01*
Y142579D01*
X351380D01*
Y162579D01*
X341380D01*
Y172579D01*
X321380D01*
Y162579D01*
X311380D01*
Y142579D01*
X321380D01*
X222954Y5063839D02*
Y5053839D01*
X242954D01*
Y5063839D01*
X252954D01*
Y5083839D01*
X242954D01*
Y5093839D01*
X222954D01*
Y5083839D01*
X212954D01*
Y5063839D01*
X222954D01*
X124529Y4866988D02*
Y4856988D01*
X144529D01*
Y4866988D01*
X154529D01*
Y4886988D01*
X144529D01*
Y4896988D01*
X124529D01*
Y4886988D01*
X114529D01*
Y4866988D01*
X124529D01*
X222954Y4670138D02*
Y4660138D01*
X242954D01*
Y4670138D01*
X252954D01*
Y4690138D01*
X242954D01*
Y4700138D01*
X222954D01*
Y4690138D01*
X212954D01*
Y4670138D01*
X222954D01*
Y3882736D02*
Y3872736D01*
X242954D01*
Y3882736D01*
X252954D01*
Y3902736D01*
X242954D01*
Y3912736D01*
X222954D01*
Y3902736D01*
X212954D01*
Y3882736D01*
X222954D01*
X124529Y3685886D02*
Y3675886D01*
X144529D01*
Y3685886D01*
X154529D01*
Y3705886D01*
X144529D01*
Y3715886D01*
X124529D01*
Y3705886D01*
X114529D01*
Y3685886D01*
X124529D01*
X222954Y3489035D02*
Y3479035D01*
X242954D01*
Y3489035D01*
X252954D01*
Y3509035D01*
X242954D01*
Y3519035D01*
X222954D01*
Y3509035D01*
X212954D01*
Y3489035D01*
X222954D01*
X124529Y3292185D02*
Y3282185D01*
X144529D01*
Y3292185D01*
X154529D01*
Y3312185D01*
X144529D01*
Y3322185D01*
X124529D01*
Y3312185D01*
X114529D01*
Y3292185D01*
X124529D01*
X222954Y3095335D02*
Y3085335D01*
X242954D01*
Y3095335D01*
X252954D01*
Y3115335D01*
X242954D01*
Y3125335D01*
X222954D01*
Y3115335D01*
X212954D01*
Y3095335D01*
X222954D01*
X124529Y142579D02*
Y132579D01*
X144529D01*
Y142579D01*
X154529D01*
Y162579D01*
X144529D01*
Y172579D01*
X124529D01*
Y162579D01*
X114529D01*
Y142579D01*
X124529D01*
X1797758Y3095335D02*
Y3085335D01*
X1817758D01*
Y3095335D01*
X1827758D01*
Y3115335D01*
X1817758D01*
Y3125335D01*
X1797758D01*
Y3115335D01*
X1787758D01*
Y3095335D01*
X1797758D01*
Y2307933D02*
Y2297933D01*
X1817758D01*
Y2307933D01*
X1827758D01*
Y2327933D01*
X1817758D01*
Y2337933D01*
X1797758D01*
Y2327933D01*
X1787758D01*
Y2307933D01*
X1797758D01*
X1502482Y3292185D02*
Y3282185D01*
X1522482D01*
Y3292185D01*
X1532482D01*
Y3312185D01*
X1522482D01*
Y3322185D01*
X1502482D01*
Y3312185D01*
X1492482D01*
Y3292185D01*
X1502482D01*
Y2898484D02*
Y2888484D01*
X1522482D01*
Y2898484D01*
X1532482D01*
Y2918484D01*
X1522482D01*
Y2928484D01*
X1502482D01*
Y2918484D01*
X1492482D01*
Y2898484D01*
X1502482D01*
X1600907Y2701634D02*
Y2691634D01*
X1620907D01*
Y2701634D01*
X1630907D01*
Y2721634D01*
X1620907D01*
Y2731634D01*
X1600907D01*
Y2721634D01*
X1590907D01*
Y2701634D01*
X1600907D01*
X1502482Y2504784D02*
Y2494784D01*
X1522482D01*
Y2504784D01*
X1532482D01*
Y2524784D01*
X1522482D01*
Y2534784D01*
X1502482D01*
Y2524784D01*
X1492482D01*
Y2504784D01*
X1502482D01*
X1600907Y2307933D02*
Y2297933D01*
X1620907D01*
Y2307933D01*
X1630907D01*
Y2327933D01*
X1620907D01*
Y2337933D01*
X1600907D01*
Y2327933D01*
X1590907D01*
Y2307933D01*
X1600907D01*
X1305632Y3292185D02*
Y3282185D01*
X1325632D01*
Y3292185D01*
X1335632D01*
Y3312185D01*
X1325632D01*
Y3322185D01*
X1305632D01*
Y3312185D01*
X1295632D01*
Y3292185D01*
X1305632D01*
X1404057Y3095335D02*
Y3085335D01*
X1424057D01*
Y3095335D01*
X1434057D01*
Y3115335D01*
X1424057D01*
Y3125335D01*
X1404057D01*
Y3115335D01*
X1394057D01*
Y3095335D01*
X1404057D01*
X1305632Y2898484D02*
Y2888484D01*
X1325632D01*
Y2898484D01*
X1335632D01*
Y2918484D01*
X1325632D01*
Y2928484D01*
X1305632D01*
Y2918484D01*
X1295632D01*
Y2898484D01*
X1305632D01*
Y2504784D02*
Y2494784D01*
X1325632D01*
Y2504784D01*
X1335632D01*
Y2524784D01*
X1325632D01*
Y2534784D01*
X1305632D01*
Y2524784D01*
X1295632D01*
Y2504784D01*
X1305632D01*
Y2111083D02*
Y2101083D01*
X1325632D01*
Y2111083D01*
X1335632D01*
Y2131083D01*
X1325632D01*
Y2141083D01*
X1305632D01*
Y2131083D01*
X1295632D01*
Y2111083D01*
X1305632D01*
Y1717382D02*
Y1707382D01*
X1325632D01*
Y1717382D01*
X1335632D01*
Y1737382D01*
X1325632D01*
Y1747382D01*
X1305632D01*
Y1737382D01*
X1295632D01*
Y1717382D01*
X1305632D01*
X1207206Y3095335D02*
Y3085335D01*
X1227206D01*
Y3095335D01*
X1237206D01*
Y3115335D01*
X1227206D01*
Y3125335D01*
X1207206D01*
Y3115335D01*
X1197206D01*
Y3095335D01*
X1207206D01*
Y2701634D02*
Y2691634D01*
X1227206D01*
Y2701634D01*
X1237206D01*
Y2721634D01*
X1227206D01*
Y2731634D01*
X1207206D01*
Y2721634D01*
X1197206D01*
Y2701634D01*
X1207206D01*
X1108781Y2111083D02*
Y2101083D01*
X1128781D01*
Y2111083D01*
X1138781D01*
Y2131083D01*
X1128781D01*
Y2141083D01*
X1108781D01*
Y2131083D01*
X1098781D01*
Y2111083D01*
X1108781D01*
Y1717382D02*
Y1707382D01*
X1128781D01*
Y1717382D01*
X1138781D01*
Y1737382D01*
X1128781D01*
Y1747382D01*
X1108781D01*
Y1737382D01*
X1098781D01*
Y1717382D01*
X1108781D01*
X1010356Y3095335D02*
Y3085335D01*
X1030356D01*
Y3095335D01*
X1040356D01*
Y3115335D01*
X1030356D01*
Y3125335D01*
X1010356D01*
Y3115335D01*
X1000356D01*
Y3095335D01*
X1010356D01*
X911931Y2898484D02*
Y2888484D01*
X931931D01*
Y2898484D01*
X941931D01*
Y2918484D01*
X931931D01*
Y2928484D01*
X911931D01*
Y2918484D01*
X901931D01*
Y2898484D01*
X911931D01*
X1010356Y2701634D02*
Y2691634D01*
X1030356D01*
Y2701634D01*
X1040356D01*
Y2721634D01*
X1030356D01*
Y2731634D01*
X1010356D01*
Y2721634D01*
X1000356D01*
Y2701634D01*
X1010356D01*
X911931Y2504784D02*
Y2494784D01*
X931931D01*
Y2504784D01*
X941931D01*
Y2524784D01*
X931931D01*
Y2534784D01*
X911931D01*
Y2524784D01*
X901931D01*
Y2504784D01*
X911931D01*
X1010356Y2307933D02*
Y2297933D01*
X1030356D01*
Y2307933D01*
X1040356D01*
Y2327933D01*
X1030356D01*
Y2337933D01*
X1010356D01*
Y2327933D01*
X1000356D01*
Y2307933D01*
X1010356D01*
X911931Y2111083D02*
Y2101083D01*
X931931D01*
Y2111083D01*
X941931D01*
Y2131083D01*
X931931D01*
Y2141083D01*
X911931D01*
Y2131083D01*
X901931D01*
Y2111083D01*
X911931D01*
X1010356Y1914232D02*
Y1904232D01*
X1030356D01*
Y1914232D01*
X1040356D01*
Y1934232D01*
X1030356D01*
Y1944232D01*
X1010356D01*
Y1934232D01*
X1000356D01*
Y1914232D01*
X1010356D01*
X911931Y1717382D02*
Y1707382D01*
X931931D01*
Y1717382D01*
X941931D01*
Y1737382D01*
X931931D01*
Y1747382D01*
X911931D01*
Y1737382D01*
X901931D01*
Y1717382D01*
X911931D01*
X715080Y2504784D02*
Y2494784D01*
X735080D01*
Y2504784D01*
X745080D01*
Y2524784D01*
X735080D01*
Y2534784D01*
X715080D01*
Y2524784D01*
X705080D01*
Y2504784D01*
X715080D01*
X813506Y2307933D02*
Y2297933D01*
X833506D01*
Y2307933D01*
X843506D01*
Y2327933D01*
X833506D01*
Y2337933D01*
X813506D01*
Y2327933D01*
X803506D01*
Y2307933D01*
X813506D01*
X715080Y2111083D02*
Y2101083D01*
X735080D01*
Y2111083D01*
X745080D01*
Y2131083D01*
X735080D01*
Y2141083D01*
X715080D01*
Y2131083D01*
X705080D01*
Y2111083D01*
X715080D01*
X813506Y1914232D02*
Y1904232D01*
X833506D01*
Y1914232D01*
X843506D01*
Y1934232D01*
X833506D01*
Y1944232D01*
X813506D01*
Y1934232D01*
X803506D01*
Y1914232D01*
X813506D01*
X715080Y1717382D02*
Y1707382D01*
X735080D01*
Y1717382D01*
X745080D01*
Y1737382D01*
X735080D01*
Y1747382D01*
X715080D01*
Y1737382D01*
X705080D01*
Y1717382D01*
X715080D01*
X518230Y3292185D02*
Y3282185D01*
X538230D01*
Y3292185D01*
X548230D01*
Y3312185D01*
X538230D01*
Y3322185D01*
X518230D01*
Y3312185D01*
X508230D01*
Y3292185D01*
X518230D01*
Y2898484D02*
Y2888484D01*
X538230D01*
Y2898484D01*
X548230D01*
Y2918484D01*
X538230D01*
Y2928484D01*
X518230D01*
Y2918484D01*
X508230D01*
Y2898484D01*
X518230D01*
Y2504784D02*
Y2494784D01*
X538230D01*
Y2504784D01*
X548230D01*
Y2524784D01*
X538230D01*
Y2534784D01*
X518230D01*
Y2524784D01*
X508230D01*
Y2504784D01*
X518230D01*
X616655Y2307933D02*
Y2297933D01*
X636655D01*
Y2307933D01*
X646655D01*
Y2327933D01*
X636655D01*
Y2337933D01*
X616655D01*
Y2327933D01*
X606655D01*
Y2307933D01*
X616655D01*
X518230Y2111083D02*
Y2101083D01*
X538230D01*
Y2111083D01*
X548230D01*
Y2131083D01*
X538230D01*
Y2141083D01*
X518230D01*
Y2131083D01*
X508230D01*
Y2111083D01*
X518230D01*
X616655Y1914232D02*
Y1904232D01*
X636655D01*
Y1914232D01*
X646655D01*
Y1934232D01*
X636655D01*
Y1944232D01*
X616655D01*
Y1934232D01*
X606655D01*
Y1914232D01*
X616655D01*
X518230Y1717382D02*
Y1707382D01*
X538230D01*
Y1717382D01*
X548230D01*
Y1737382D01*
X538230D01*
Y1747382D01*
X518230D01*
Y1737382D01*
X508230D01*
Y1717382D01*
X518230D01*
X1162024Y1899645D02*
X1172024D01*
X1182024Y1909645D01*
X1192024Y1899645D01*
X1202024D01*
Y1909645D01*
X1192024Y1919645D01*
X1202024Y1929645D01*
Y1939645D01*
X1192024D01*
X1182024Y1929645D01*
X1172024Y1939645D01*
X1162024D01*
Y1929645D01*
X1172024Y1919645D01*
X1162024Y1909645D01*
Y1899645D01*
X1160512Y1848960D02*
X1170512D01*
X1180512Y1858960D01*
X1190512Y1848960D01*
X1200512D01*
Y1858960D01*
X1190512Y1868960D01*
X1200512Y1878960D01*
Y1888960D01*
X1190512D01*
X1180512Y1878960D01*
X1170512Y1888960D01*
X1160512D01*
Y1878960D01*
X1170512Y1868960D01*
X1160512Y1858960D01*
Y1848960D01*
X2059000Y4737000D02*
X2069000D01*
X2079000Y4747000D01*
X2089000Y4737000D01*
X2099000D01*
Y4747000D01*
X2089000Y4757000D01*
X2099000Y4767000D01*
Y4777000D01*
X2089000D01*
X2079000Y4767000D01*
X2069000Y4777000D01*
X2059000D01*
Y4767000D01*
X2069000Y4757000D01*
X2059000Y4747000D01*
Y4737000D01*
X2124000Y4397000D02*
X2134000D01*
X2144000Y4407000D01*
X2154000Y4397000D01*
X2164000D01*
Y4407000D01*
X2154000Y4417000D01*
X2164000Y4427000D01*
Y4437000D01*
X2154000D01*
X2144000Y4427000D01*
X2134000Y4437000D01*
X2124000D01*
Y4427000D01*
X2134000Y4417000D01*
X2124000Y4407000D01*
Y4397000D01*
X2066000Y3771000D02*
X2076000D01*
X2086000Y3781000D01*
X2096000Y3771000D01*
X2106000D01*
Y3781000D01*
X2096000Y3791000D01*
X2106000Y3801000D01*
Y3811000D01*
X2096000D01*
X2086000Y3801000D01*
X2076000Y3811000D01*
X2066000D01*
Y3801000D01*
X2076000Y3791000D01*
X2066000Y3781000D01*
Y3771000D01*
X855000Y2170000D02*
X865000D01*
X875000Y2180000D01*
X885000Y2170000D01*
X895000D01*
Y2180000D01*
X885000Y2190000D01*
X895000Y2200000D01*
Y2210000D01*
X885000D01*
X875000Y2200000D01*
X865000Y2210000D01*
X855000D01*
Y2200000D01*
X865000Y2190000D01*
X855000Y2180000D01*
Y2170000D01*
X1143000Y2053000D02*
X1153000D01*
X1163000Y2063000D01*
X1173000Y2053000D01*
X1183000D01*
Y2063000D01*
X1173000Y2073000D01*
X1183000Y2083000D01*
Y2093000D01*
X1173000D01*
X1163000Y2083000D01*
X1153000Y2093000D01*
X1143000D01*
Y2083000D01*
X1153000Y2073000D01*
X1143000Y2063000D01*
Y2053000D01*
X1180000Y2080000D02*
X1190000D01*
X1200000Y2090000D01*
X1210000Y2080000D01*
X1220000D01*
Y2090000D01*
X1210000Y2100000D01*
X1220000Y2110000D01*
Y2120000D01*
X1210000D01*
X1200000Y2110000D01*
X1190000Y2120000D01*
X1180000D01*
Y2110000D01*
X1190000Y2100000D01*
X1180000Y2090000D01*
Y2080000D01*
X1440000Y1976457D02*
X1450000D01*
X1460000Y1986457D01*
X1470000Y1976457D01*
X1480000D01*
Y1986457D01*
X1470000Y1996457D01*
X1480000Y2006457D01*
Y2016457D01*
X1470000D01*
X1460000Y2006457D01*
X1450000Y2016457D01*
X1440000D01*
Y2006457D01*
X1450000Y1996457D01*
X1440000Y1986457D01*
Y1976457D01*
X596996Y4788269D02*
Y4778269D01*
X616996D01*
Y4788269D01*
X626996D01*
Y4808269D01*
X616996D01*
Y4818269D01*
X596996D01*
Y4808269D01*
X586996D01*
Y4788269D01*
X596996D01*
X636366Y4709529D02*
Y4699529D01*
X656366D01*
Y4709529D01*
X666366D01*
Y4729529D01*
X656366D01*
Y4739529D01*
X636366D01*
Y4729529D01*
X626366D01*
Y4709529D01*
X636366D01*
X596996Y4630788D02*
Y4620788D01*
X616996D01*
Y4630788D01*
X626996D01*
Y4650788D01*
X616996D01*
Y4660788D01*
X596996D01*
Y4650788D01*
X586996D01*
Y4630788D01*
X596996D01*
X636366Y4552048D02*
Y4542048D01*
X656366D01*
Y4552048D01*
X666366D01*
Y4572048D01*
X656366D01*
Y4582048D01*
X636366D01*
Y4572048D01*
X626366D01*
Y4552048D01*
X636366D01*
X596996Y4473308D02*
Y4463308D01*
X616996D01*
Y4473308D01*
X626996D01*
Y4493308D01*
X616996D01*
Y4503308D01*
X596996D01*
Y4493308D01*
X586996D01*
Y4473308D01*
X596996D01*
X636366Y4394568D02*
Y4384568D01*
X656366D01*
Y4394568D01*
X666366D01*
Y4414568D01*
X656366D01*
Y4424568D01*
X636366D01*
Y4414568D01*
X626366D01*
Y4394568D01*
X636366D01*
X557626Y4867009D02*
Y4857009D01*
X577626D01*
Y4867009D01*
X587626D01*
Y4887009D01*
X577626D01*
Y4897009D01*
X557626D01*
Y4887009D01*
X547626D01*
Y4867009D01*
X557626D01*
Y4709529D02*
Y4699529D01*
X577626D01*
Y4709529D01*
X587626D01*
Y4729529D01*
X577626D01*
Y4739529D01*
X557626D01*
Y4729529D01*
X547626D01*
Y4709529D01*
X557626D01*
Y4394568D02*
Y4384568D01*
X577626D01*
Y4394568D01*
X587626D01*
Y4414568D01*
X577626D01*
Y4424568D01*
X557626D01*
Y4414568D01*
X547626D01*
Y4394568D01*
X557626D01*
X518256Y4315828D02*
Y4305828D01*
X538256D01*
Y4315828D01*
X548256D01*
Y4335828D01*
X538256D01*
Y4345828D01*
X518256D01*
Y4335828D01*
X508256D01*
Y4315828D01*
X518256D01*
X478885Y4867009D02*
Y4857009D01*
X498885D01*
Y4867009D01*
X508885D01*
Y4887009D01*
X498885D01*
Y4897009D01*
X478885D01*
Y4887009D01*
X468885D01*
Y4867009D01*
X478885D01*
Y4709529D02*
Y4699529D01*
X498885D01*
Y4709529D01*
X508885D01*
Y4729529D01*
X498885D01*
Y4739529D01*
X478885D01*
Y4729529D01*
X468885D01*
Y4709529D01*
X478885D01*
X642000Y4351000D02*
X652000D01*
X662000Y4361000D01*
X672000Y4351000D01*
X682000D01*
Y4361000D01*
X672000Y4371000D01*
X682000Y4381000D01*
Y4391000D01*
X672000D01*
X662000Y4381000D01*
X652000Y4391000D01*
X642000D01*
Y4381000D01*
X652000Y4371000D01*
X642000Y4361000D01*
Y4351000D01*
X697000Y3851000D02*
X707000D01*
X717000Y3861000D01*
X727000Y3851000D01*
X737000D01*
Y3861000D01*
X727000Y3871000D01*
X737000Y3881000D01*
Y3891000D01*
X727000D01*
X717000Y3881000D01*
X707000Y3891000D01*
X697000D01*
Y3881000D01*
X707000Y3871000D01*
X697000Y3861000D01*
Y3851000D01*
X1166614Y2979622D02*
X1176614D01*
X1186614Y2989622D01*
X1196614Y2979622D01*
X1206614D01*
Y2989622D01*
X1196614Y2999622D01*
X1206614Y3009622D01*
Y3019622D01*
X1196614D01*
X1186614Y3009622D01*
X1176614Y3019622D01*
X1166614D01*
Y3009622D01*
X1176614Y2999622D01*
X1166614Y2989622D01*
Y2979622D01*
X1843000Y3730000D02*
X1853000D01*
X1863000Y3740000D01*
X1873000Y3730000D01*
X1883000D01*
Y3740000D01*
X1873000Y3750000D01*
X1883000Y3760000D01*
Y3770000D01*
X1873000D01*
X1863000Y3760000D01*
X1853000Y3770000D01*
X1843000D01*
Y3760000D01*
X1853000Y3750000D01*
X1843000Y3740000D01*
Y3730000D01*
X1427528Y3920806D02*
X1437528D01*
X1447528Y3930806D01*
X1457528Y3920806D01*
X1467528D01*
Y3930806D01*
X1457528Y3940806D01*
X1467528Y3950806D01*
Y3960806D01*
X1457528D01*
X1447528Y3950806D01*
X1437528Y3960806D01*
X1427528D01*
Y3950806D01*
X1437528Y3940806D01*
X1427528Y3930806D01*
Y3920806D01*
X478278Y2566806D02*
X488278D01*
X498278Y2576806D01*
X508278Y2566806D01*
X518278D01*
Y2576806D01*
X508278Y2586806D01*
X518278Y2596806D01*
Y2606806D01*
X508278D01*
X498278Y2596806D01*
X488278Y2606806D01*
X478278D01*
Y2596806D01*
X488278Y2586806D01*
X478278Y2576806D01*
Y2566806D01*
X963190Y3720000D02*
X973190D01*
X983190Y3730000D01*
X993190Y3720000D01*
X1003190D01*
Y3730000D01*
X993190Y3740000D01*
X1003190Y3750000D01*
Y3760000D01*
X993190D01*
X983190Y3750000D01*
X973190Y3760000D01*
X963190D01*
Y3750000D01*
X973190Y3740000D01*
X963190Y3730000D01*
Y3720000D01*
X828000Y3902402D02*
X838000D01*
X848000Y3912402D01*
X858000Y3902402D01*
X868000D01*
Y3912402D01*
X858000Y3922402D01*
X868000Y3932402D01*
Y3942402D01*
X858000D01*
X848000Y3932402D01*
X838000Y3942402D01*
X828000D01*
Y3932402D01*
X838000Y3922402D01*
X828000Y3912402D01*
Y3902402D01*
X804000Y4513000D02*
X814000D01*
X824000Y4523000D01*
X834000Y4513000D01*
X844000D01*
Y4523000D01*
X834000Y4533000D01*
X844000Y4543000D01*
Y4553000D01*
X834000D01*
X824000Y4543000D01*
X814000Y4553000D01*
X804000D01*
Y4543000D01*
X814000Y4533000D01*
X804000Y4523000D01*
Y4513000D01*
X834000Y3799000D02*
X844000D01*
X854000Y3809000D01*
X864000Y3799000D01*
X874000D01*
Y3809000D01*
X864000Y3819000D01*
X874000Y3829000D01*
Y3839000D01*
X864000D01*
X854000Y3829000D01*
X844000Y3839000D01*
X834000D01*
Y3829000D01*
X844000Y3819000D01*
X834000Y3809000D01*
Y3799000D01*
X1012000Y3797000D02*
X1022000D01*
X1032000Y3807000D01*
X1042000Y3797000D01*
X1052000D01*
Y3807000D01*
X1042000Y3817000D01*
X1052000Y3827000D01*
Y3837000D01*
X1042000D01*
X1032000Y3827000D01*
X1022000Y3837000D01*
X1012000D01*
Y3827000D01*
X1022000Y3817000D01*
X1012000Y3807000D01*
Y3797000D01*
X885000Y3796000D02*
X895000D01*
X905000Y3806000D01*
X915000Y3796000D01*
X925000D01*
Y3806000D01*
X915000Y3816000D01*
X925000Y3826000D01*
Y3836000D01*
X915000D01*
X905000Y3826000D01*
X895000Y3836000D01*
X885000D01*
Y3826000D01*
X895000Y3816000D01*
X885000Y3806000D01*
Y3796000D01*
X864174Y4319016D02*
X874174D01*
X884174Y4329016D01*
X894174Y4319016D01*
X904174D01*
Y4329016D01*
X894174Y4339016D01*
X904174Y4349016D01*
Y4359016D01*
X894174D01*
X884174Y4349016D01*
X874174Y4359016D01*
X864174D01*
Y4349016D01*
X874174Y4339016D01*
X864174Y4329016D01*
Y4319016D01*
X831174Y4319000D02*
X841174D01*
X851174Y4329000D01*
X861174Y4319000D01*
X871174D01*
Y4329000D01*
X861174Y4339000D01*
X871174Y4349000D01*
Y4359000D01*
X861174D01*
X851174Y4349000D01*
X841174Y4359000D01*
X831174D01*
Y4349000D01*
X841174Y4339000D01*
X831174Y4329000D01*
Y4319000D01*
X1670846Y3949536D02*
X1680846D01*
X1690846Y3959536D01*
X1700846Y3949536D01*
X1710846D01*
Y3959536D01*
X1700846Y3969536D01*
X1710846Y3979536D01*
Y3989536D01*
X1700846D01*
X1690846Y3979536D01*
X1680846Y3989536D01*
X1670846D01*
Y3979536D01*
X1680846Y3969536D01*
X1670846Y3959536D01*
Y3949536D01*
X1323686Y2982488D02*
X1333686D01*
X1343686Y2992488D01*
X1353686Y2982488D01*
X1363686D01*
Y2992488D01*
X1353686Y3002488D01*
X1363686Y3012488D01*
Y3022488D01*
X1353686D01*
X1343686Y3012488D01*
X1333686Y3022488D01*
X1323686D01*
Y3012488D01*
X1333686Y3002488D01*
X1323686Y2992488D01*
Y2982488D01*
X2234000Y4649000D02*
X2244000D01*
X2254000Y4659000D01*
X2264000Y4649000D01*
X2274000D01*
Y4659000D01*
X2264000Y4669000D01*
X2274000Y4679000D01*
Y4689000D01*
X2264000D01*
X2254000Y4679000D01*
X2244000Y4689000D01*
X2234000D01*
Y4679000D01*
X2244000Y4669000D01*
X2234000Y4659000D01*
Y4649000D01*
X2433000D02*
X2443000D01*
X2453000Y4659000D01*
X2463000Y4649000D01*
X2473000D01*
Y4659000D01*
X2463000Y4669000D01*
X2473000Y4679000D01*
Y4689000D01*
X2463000D01*
X2453000Y4679000D01*
X2443000Y4689000D01*
X2433000D01*
Y4679000D01*
X2443000Y4669000D01*
X2433000Y4659000D01*
Y4649000D01*
X1767000Y2550000D02*
X1777000D01*
X1787000Y2560000D01*
X1797000Y2550000D01*
X1807000D01*
Y2560000D01*
X1797000Y2570000D01*
X1807000Y2580000D01*
Y2590000D01*
X1797000D01*
X1787000Y2580000D01*
X1777000Y2590000D01*
X1767000D01*
Y2580000D01*
X1777000Y2570000D01*
X1767000Y2560000D01*
Y2550000D01*
X1564000Y3185000D02*
X1574000D01*
X1584000Y3195000D01*
X1594000Y3185000D01*
X1604000D01*
Y3195000D01*
X1594000Y3205000D01*
X1604000Y3215000D01*
Y3225000D01*
X1594000D01*
X1584000Y3215000D01*
X1574000Y3225000D01*
X1564000D01*
Y3215000D01*
X1574000Y3205000D01*
X1564000Y3195000D01*
Y3185000D01*
X1064574Y3818654D02*
X1074574D01*
X1084574Y3828654D01*
X1094574Y3818654D01*
X1104574D01*
Y3828654D01*
X1094574Y3838654D01*
X1104574Y3848654D01*
Y3858654D01*
X1094574D01*
X1084574Y3848654D01*
X1074574Y3858654D01*
X1064574D01*
Y3848654D01*
X1074574Y3838654D01*
X1064574Y3828654D01*
Y3818654D01*
X1650000Y4390000D02*
X1660000D01*
X1670000Y4400000D01*
X1680000Y4390000D01*
X1690000D01*
Y4400000D01*
X1680000Y4410000D01*
X1690000Y4420000D01*
Y4430000D01*
X1680000D01*
X1670000Y4420000D01*
X1660000Y4430000D01*
X1650000D01*
Y4420000D01*
X1660000Y4410000D01*
X1650000Y4400000D01*
Y4390000D01*
X1733308D02*
X1743308D01*
X1753308Y4400000D01*
X1763308Y4390000D01*
X1773308D01*
Y4400000D01*
X1763308Y4410000D01*
X1773308Y4420000D01*
Y4430000D01*
X1763308D01*
X1753308Y4420000D01*
X1743308Y4430000D01*
X1733308D01*
Y4420000D01*
X1743308Y4410000D01*
X1733308Y4400000D01*
Y4390000D01*
X2280000Y5010000D02*
X2290000D01*
X2300000Y5020000D01*
X2310000Y5010000D01*
X2320000D01*
Y5020000D01*
X2310000Y5030000D01*
X2320000Y5040000D01*
Y5050000D01*
X2310000D01*
X2300000Y5040000D01*
X2290000Y5050000D01*
X2280000D01*
Y5040000D01*
X2290000Y5030000D01*
X2280000Y5020000D01*
Y5010000D01*
X2085000D02*
X2095000D01*
X2105000Y5020000D01*
X2115000Y5010000D01*
X2125000D01*
Y5020000D01*
X2115000Y5030000D01*
X2125000Y5040000D01*
Y5050000D01*
X2115000D01*
X2105000Y5040000D01*
X2095000Y5050000D01*
X2085000D01*
Y5040000D01*
X2095000Y5030000D01*
X2085000Y5020000D01*
Y5010000D01*
X734174Y4425000D02*
X744174D01*
X754174Y4435000D01*
X764174Y4425000D01*
X774174D01*
Y4435000D01*
X764174Y4445000D01*
X774174Y4455000D01*
Y4465000D01*
X764174D01*
X754174Y4455000D01*
X744174Y4465000D01*
X734174D01*
Y4455000D01*
X744174Y4445000D01*
X734174Y4435000D01*
Y4425000D01*
X1945000Y4845000D02*
X1955000D01*
X1965000Y4855000D01*
X1975000Y4845000D01*
X1985000D01*
Y4855000D01*
X1975000Y4865000D01*
X1985000Y4875000D01*
Y4885000D01*
X1975000D01*
X1965000Y4875000D01*
X1955000Y4885000D01*
X1945000D01*
Y4875000D01*
X1955000Y4865000D01*
X1945000Y4855000D01*
Y4845000D01*
X1820000Y4800000D02*
X1830000D01*
X1840000Y4810000D01*
X1850000Y4800000D01*
X1860000D01*
Y4810000D01*
X1850000Y4820000D01*
X1860000Y4830000D01*
Y4840000D01*
X1850000D01*
X1840000Y4830000D01*
X1830000Y4840000D01*
X1820000D01*
Y4830000D01*
X1830000Y4820000D01*
X1820000Y4810000D01*
Y4800000D01*
X957174Y4027000D02*
X967174D01*
X977174Y4037000D01*
X987174Y4027000D01*
X997174D01*
Y4037000D01*
X987174Y4047000D01*
X997174Y4057000D01*
Y4067000D01*
X987174D01*
X977174Y4057000D01*
X967174Y4067000D01*
X957174D01*
Y4057000D01*
X967174Y4047000D01*
X957174Y4037000D01*
Y4027000D01*
X884174Y4001000D02*
X894174D01*
X904174Y4011000D01*
X914174Y4001000D01*
X924174D01*
Y4011000D01*
X914174Y4021000D01*
X924174Y4031000D01*
Y4041000D01*
X914174D01*
X904174Y4031000D01*
X894174Y4041000D01*
X884174D01*
Y4031000D01*
X894174Y4021000D01*
X884174Y4011000D01*
Y4001000D01*
X895316Y4319016D02*
X905316D01*
X915316Y4329016D01*
X925316Y4319016D01*
X935316D01*
Y4329016D01*
X925316Y4339016D01*
X935316Y4349016D01*
Y4359016D01*
X925316D01*
X915316Y4349016D01*
X905316Y4359016D01*
X895316D01*
Y4349016D01*
X905316Y4339016D01*
X895316Y4329016D01*
Y4319016D01*
X865000Y2953528D02*
X875000D01*
X885000Y2963528D01*
X895000Y2953528D01*
X905000D01*
Y2963528D01*
X895000Y2973528D01*
X905000Y2983528D01*
Y2993528D01*
X895000D01*
X885000Y2983528D01*
X875000Y2993528D01*
X865000D01*
Y2983528D01*
X875000Y2973528D01*
X865000Y2963528D01*
Y2953528D01*
X737000Y2735024D02*
X747000D01*
X757000Y2745024D01*
X767000Y2735024D01*
X777000D01*
Y2745024D01*
X767000Y2755024D01*
X777000Y2765024D01*
Y2775024D01*
X767000D01*
X757000Y2765024D01*
X747000Y2775024D01*
X737000D01*
Y2765024D01*
X747000Y2755024D01*
X737000Y2745024D01*
Y2735024D01*
X1091174Y3864000D02*
X1101174D01*
X1111174Y3874000D01*
X1121174Y3864000D01*
X1131174D01*
Y3874000D01*
X1121174Y3884000D01*
X1131174Y3894000D01*
Y3904000D01*
X1121174D01*
X1111174Y3894000D01*
X1101174Y3904000D01*
X1091174D01*
Y3894000D01*
X1101174Y3884000D01*
X1091174Y3874000D01*
Y3864000D01*
X1621614Y3696614D02*
X1631614D01*
X1641614Y3706614D01*
X1651614Y3696614D01*
X1661614D01*
Y3706614D01*
X1651614Y3716614D01*
X1661614Y3726614D01*
Y3736614D01*
X1651614D01*
X1641614Y3726614D01*
X1631614Y3736614D01*
X1621614D01*
Y3726614D01*
X1631614Y3716614D01*
X1621614Y3706614D01*
Y3696614D01*
X1166260Y3891930D02*
X1176260D01*
X1186260Y3901930D01*
X1196260Y3891930D01*
X1206260D01*
Y3901930D01*
X1196260Y3911930D01*
X1206260Y3921930D01*
Y3931930D01*
X1196260D01*
X1186260Y3921930D01*
X1176260Y3931930D01*
X1166260D01*
Y3921930D01*
X1176260Y3911930D01*
X1166260Y3901930D01*
Y3891930D01*
X1523888Y3314882D02*
X1533888D01*
X1543888Y3324882D01*
X1553888Y3314882D01*
X1563888D01*
Y3324882D01*
X1553888Y3334882D01*
X1563888Y3344882D01*
Y3354882D01*
X1553888D01*
X1543888Y3344882D01*
X1533888Y3354882D01*
X1523888D01*
Y3344882D01*
X1533888Y3334882D01*
X1523888Y3324882D01*
Y3314882D01*
X1862000Y2962000D02*
X1872000D01*
X1882000Y2972000D01*
X1892000Y2962000D01*
X1902000D01*
Y2972000D01*
X1892000Y2982000D01*
X1902000Y2992000D01*
Y3002000D01*
X1892000D01*
X1882000Y2992000D01*
X1872000Y3002000D01*
X1862000D01*
Y2992000D01*
X1872000Y2982000D01*
X1862000Y2972000D01*
Y2962000D01*
X737820Y3002740D02*
X747820D01*
X757820Y3012740D01*
X767820Y3002740D01*
X777820D01*
Y3012740D01*
X767820Y3022740D01*
X777820Y3032740D01*
Y3042740D01*
X767820D01*
X757820Y3032740D01*
X747820Y3042740D01*
X737820D01*
Y3032740D01*
X747820Y3022740D01*
X737820Y3012740D01*
Y3002740D01*
X709000Y2974000D02*
X719000D01*
X729000Y2984000D01*
X739000Y2974000D01*
X749000D01*
Y2984000D01*
X739000Y2994000D01*
X749000Y3004000D01*
Y3014000D01*
X739000D01*
X729000Y3004000D01*
X719000Y3014000D01*
X709000D01*
Y3004000D01*
X719000Y2994000D01*
X709000Y2984000D01*
Y2974000D01*
X1095472Y4422442D02*
X1105472D01*
X1115472Y4432442D01*
X1125472Y4422442D01*
X1135472D01*
Y4432442D01*
X1125472Y4442442D01*
X1135472Y4452442D01*
Y4462442D01*
X1125472D01*
X1115472Y4452442D01*
X1105472Y4462442D01*
X1095472D01*
Y4452442D01*
X1105472Y4442442D01*
X1095472Y4432442D01*
Y4422442D01*
X385394Y4850000D02*
X395394D01*
X405394Y4860000D01*
X415394Y4850000D01*
X425394D01*
Y4860000D01*
X415394Y4870000D01*
X425394Y4880000D01*
Y4890000D01*
X415394D01*
X405394Y4880000D01*
X395394Y4890000D01*
X385394D01*
Y4880000D01*
X395394Y4870000D01*
X385394Y4860000D01*
Y4850000D01*
X162954D02*
X172954D01*
X182954Y4860000D01*
X192954Y4850000D01*
X202954D01*
Y4860000D01*
X192954Y4870000D01*
X202954Y4880000D01*
Y4890000D01*
X192954D01*
X182954Y4880000D01*
X172954Y4890000D01*
X162954D01*
Y4880000D01*
X172954Y4870000D01*
X162954Y4860000D01*
Y4850000D01*
X385394Y4750000D02*
X395394D01*
X405394Y4760000D01*
X415394Y4750000D01*
X425394D01*
Y4760000D01*
X415394Y4770000D01*
X425394Y4780000D01*
Y4790000D01*
X415394D01*
X405394Y4780000D01*
X395394Y4790000D01*
X385394D01*
Y4780000D01*
X395394Y4770000D01*
X385394Y4760000D01*
Y4750000D01*
X1525994Y4839927D02*
X1535994D01*
X1545994Y4849927D01*
X1555994Y4839927D01*
X1565994D01*
Y4849927D01*
X1555994Y4859927D01*
X1565994Y4869927D01*
Y4879927D01*
X1555994D01*
X1545994Y4869927D01*
X1535994Y4879927D01*
X1525994D01*
Y4869927D01*
X1535994Y4859927D01*
X1525994Y4849927D01*
Y4839927D01*
X1324000Y3673000D02*
X1344000Y3693000D01*
X1364000Y3673000D01*
X1344000Y3653000D01*
X1324000Y3673000D01*
X841000Y3195000D02*
X851000D01*
X861000Y3205000D01*
X871000Y3195000D01*
X881000D01*
Y3205000D01*
X871000Y3215000D01*
X881000Y3225000D01*
Y3235000D01*
X871000D01*
X861000Y3225000D01*
X851000Y3235000D01*
X841000D01*
Y3225000D01*
X851000Y3215000D01*
X841000Y3205000D01*
Y3195000D01*
X1479000Y3576536D02*
X1489000D01*
X1499000Y3586536D01*
X1509000Y3576536D01*
X1519000D01*
Y3586536D01*
X1509000Y3596536D01*
X1519000Y3606536D01*
Y3616536D01*
X1509000D01*
X1499000Y3606536D01*
X1489000Y3616536D01*
X1479000D01*
Y3606536D01*
X1489000Y3596536D01*
X1479000Y3586536D01*
Y3576536D01*
X1403000Y3575536D02*
X1413000D01*
X1423000Y3585536D01*
X1433000Y3575536D01*
X1443000D01*
Y3585536D01*
X1433000Y3595536D01*
X1443000Y3605536D01*
Y3615536D01*
X1433000D01*
X1423000Y3605536D01*
X1413000Y3615536D01*
X1403000D01*
Y3605536D01*
X1413000Y3595536D01*
X1403000Y3585536D01*
Y3575536D01*
X2004016Y3498952D02*
X2014016D01*
X2024016Y3508952D01*
X2034016Y3498952D01*
X2044016D01*
Y3508952D01*
X2034016Y3518952D01*
X2044016Y3528952D01*
Y3538952D01*
X2034016D01*
X2024016Y3528952D01*
X2014016Y3538952D01*
X2004016D01*
Y3528952D01*
X2014016Y3518952D01*
X2004016Y3508952D01*
Y3498952D01*
X1220000Y3200000D02*
X1230000D01*
X1240000Y3210000D01*
X1250000Y3200000D01*
X1260000D01*
Y3210000D01*
X1250000Y3220000D01*
X1260000Y3230000D01*
Y3240000D01*
X1250000D01*
X1240000Y3230000D01*
X1230000Y3240000D01*
X1220000D01*
Y3230000D01*
X1230000Y3220000D01*
X1220000Y3210000D01*
Y3200000D01*
X1595000Y3590000D02*
X1605000D01*
X1615000Y3600000D01*
X1625000Y3590000D01*
X1635000D01*
Y3600000D01*
X1625000Y3610000D01*
X1635000Y3620000D01*
Y3630000D01*
X1625000D01*
X1615000Y3620000D01*
X1605000Y3630000D01*
X1595000D01*
Y3620000D01*
X1605000Y3610000D01*
X1595000Y3600000D01*
Y3590000D01*
X165000Y4960000D02*
X175000D01*
X185000Y4970000D01*
X195000Y4960000D01*
X205000D01*
Y4970000D01*
X195000Y4980000D01*
X205000Y4990000D01*
Y5000000D01*
X195000D01*
X185000Y4990000D01*
X175000Y5000000D01*
X165000D01*
Y4990000D01*
X175000Y4980000D01*
X165000Y4970000D01*
Y4960000D01*
X1930000Y4060000D02*
X1940000D01*
X1950000Y4070000D01*
X1960000Y4060000D01*
X1970000D01*
Y4070000D01*
X1960000Y4080000D01*
X1970000Y4090000D01*
Y4100000D01*
X1960000D01*
X1950000Y4090000D01*
X1940000Y4100000D01*
X1930000D01*
Y4090000D01*
X1940000Y4080000D01*
X1930000Y4070000D01*
Y4060000D01*
X1830000Y4080000D02*
X1840000D01*
X1850000Y4090000D01*
X1860000Y4080000D01*
X1870000D01*
Y4090000D01*
X1860000Y4100000D01*
X1870000Y4110000D01*
Y4120000D01*
X1860000D01*
X1850000Y4110000D01*
X1840000Y4120000D01*
X1830000D01*
Y4110000D01*
X1840000Y4100000D01*
X1830000Y4090000D01*
Y4080000D01*
X1815000Y4110000D02*
X1825000D01*
X1835000Y4120000D01*
X1845000Y4110000D01*
X1855000D01*
Y4120000D01*
X1845000Y4130000D01*
X1855000Y4140000D01*
Y4150000D01*
X1845000D01*
X1835000Y4140000D01*
X1825000Y4150000D01*
X1815000D01*
Y4140000D01*
X1825000Y4130000D01*
X1815000Y4120000D01*
Y4110000D01*
X2042000Y3220000D02*
X2052000D01*
X2062000Y3230000D01*
X2072000Y3220000D01*
X2082000D01*
Y3230000D01*
X2072000Y3240000D01*
X2082000Y3250000D01*
Y3260000D01*
X2072000D01*
X2062000Y3250000D01*
X2052000Y3260000D01*
X2042000D01*
Y3250000D01*
X2052000Y3240000D01*
X2042000Y3230000D01*
Y3220000D01*
X2288000Y4047000D02*
X2298000D01*
X2308000Y4057000D01*
X2318000Y4047000D01*
X2328000D01*
Y4057000D01*
X2318000Y4067000D01*
X2328000Y4077000D01*
Y4087000D01*
X2318000D01*
X2308000Y4077000D01*
X2298000Y4087000D01*
X2288000D01*
Y4077000D01*
X2298000Y4067000D01*
X2288000Y4057000D01*
Y4047000D01*
X2039000Y3823000D02*
X2049000D01*
X2059000Y3833000D01*
X2069000Y3823000D01*
X2079000D01*
Y3833000D01*
X2069000Y3843000D01*
X2079000Y3853000D01*
Y3863000D01*
X2069000D01*
X2059000Y3853000D01*
X2049000Y3863000D01*
X2039000D01*
Y3853000D01*
X2049000Y3843000D01*
X2039000Y3833000D01*
Y3823000D01*
X2113000Y3156000D02*
X2123000D01*
X2133000Y3166000D01*
X2143000Y3156000D01*
X2153000D01*
Y3166000D01*
X2143000Y3176000D01*
X2153000Y3186000D01*
Y3196000D01*
X2143000D01*
X2133000Y3186000D01*
X2123000Y3196000D01*
X2113000D01*
Y3186000D01*
X2123000Y3176000D01*
X2113000Y3166000D01*
Y3156000D01*
X632725Y3797275D02*
X642725D01*
X652725Y3807275D01*
X662725Y3797275D01*
X672725D01*
Y3807275D01*
X662725Y3817275D01*
X672725Y3827275D01*
Y3837275D01*
X662725D01*
X652725Y3827275D01*
X642725Y3837275D01*
X632725D01*
Y3827275D01*
X642725Y3817275D01*
X632725Y3807275D01*
Y3797275D01*
X458000Y4069000D02*
X468000D01*
X478000Y4079000D01*
X488000Y4069000D01*
X498000D01*
Y4079000D01*
X488000Y4089000D01*
X498000Y4099000D01*
Y4109000D01*
X488000D01*
X478000Y4099000D01*
X468000Y4109000D01*
X458000D01*
Y4099000D01*
X468000Y4089000D01*
X458000Y4079000D01*
Y4069000D01*
X490000Y4029000D02*
X500000D01*
X510000Y4039000D01*
X520000Y4029000D01*
X530000D01*
Y4039000D01*
X520000Y4049000D01*
X530000Y4059000D01*
Y4069000D01*
X520000D01*
X510000Y4059000D01*
X500000Y4069000D01*
X490000D01*
Y4059000D01*
X500000Y4049000D01*
X490000Y4039000D01*
Y4029000D01*
D113*
X1670000Y5050000D02*
G03*
X1670000Y5050000I-20000J0D01*
G01*
X1870000D02*
G03*
X1870000Y5050000I-20000J0D01*
G01*
X1770000Y5150000D02*
G03*
X1770000Y5150000I-20000J0D01*
G01*
%TF.MD5,f68040e8d068f94890e0add2c9fc45a8*%
M02*
