%TF.GenerationSoftware,Altium Limited,Altium Designer,19.1.6 (110)*%
G04 Layer_Color=8421504*
%FSLAX26Y26*%
%MOIN*%
%TF.FileFunction,Paste,Top*%
%TF.Part,Single*%
G01*
G75*
%TA.AperFunction,SMDPad,CuDef*%
%ADD10R,0.021654X0.023622*%
%ADD11R,0.021654X0.021654*%
%ADD12R,0.021654X0.021654*%
%ADD13R,0.025591X0.025591*%
%ADD14R,0.017716X0.017716*%
%ADD15R,0.017716X0.017716*%
%ADD16R,0.025591X0.021654*%
%ADD17R,0.025591X0.029528*%
%ADD18R,0.020472X0.020472*%
%ADD19R,0.020472X0.020472*%
%ADD20O,0.055118X0.013780*%
%ADD21R,0.029528X0.025591*%
%ADD22R,0.057087X0.045276*%
G04:AMPARAMS|DCode=23|XSize=25.591mil|YSize=47.244mil|CornerRadius=1.919mil|HoleSize=0mil|Usage=FLASHONLY|Rotation=0.000|XOffset=0mil|YOffset=0mil|HoleType=Round|Shape=RoundedRectangle|*
%AMROUNDEDRECTD23*
21,1,0.025591,0.043406,0,0,0.0*
21,1,0.021752,0.047244,0,0,0.0*
1,1,0.003839,0.010876,-0.021703*
1,1,0.003839,-0.010876,-0.021703*
1,1,0.003839,-0.010876,0.021703*
1,1,0.003839,0.010876,0.021703*
%
%ADD23ROUNDEDRECTD23*%
%ADD24O,0.053150X0.017716*%
%ADD25R,0.037402X0.053150*%
%ADD26R,0.053150X0.037402*%
%ADD27R,0.053150X0.061024*%
G04:AMPARAMS|DCode=28|XSize=25.591mil|YSize=47.244mil|CornerRadius=1.919mil|HoleSize=0mil|Usage=FLASHONLY|Rotation=270.000|XOffset=0mil|YOffset=0mil|HoleType=Round|Shape=RoundedRectangle|*
%AMROUNDEDRECTD28*
21,1,0.025591,0.043406,0,0,270.0*
21,1,0.021752,0.047244,0,0,270.0*
1,1,0.003839,-0.021703,-0.010876*
1,1,0.003839,-0.021703,0.010876*
1,1,0.003839,0.021703,0.010876*
1,1,0.003839,0.021703,-0.010876*
%
%ADD28ROUNDEDRECTD28*%
%ADD29O,0.013780X0.055118*%
%ADD30O,0.013780X0.066929*%
%ADD31O,0.019685X0.053150*%
%ADD32R,0.061024X0.053150*%
%ADD33R,0.019685X0.049213*%
%ADD34R,0.049213X0.064961*%
%ADD35R,0.023622X0.039370*%
D10*
X1817000Y2034732D02*
D03*
Y2001268D02*
D03*
X1755000Y4333268D02*
D03*
Y4366732D02*
D03*
X1675000Y4333268D02*
D03*
Y4366732D02*
D03*
X1500000Y3656732D02*
D03*
Y3623268D02*
D03*
X1425000Y3656732D02*
D03*
Y3623268D02*
D03*
D11*
X1852284Y4630000D02*
D03*
X1887717D02*
D03*
X1977716Y4500000D02*
D03*
X1942283D02*
D03*
X1497284Y4630000D02*
D03*
X1532717D02*
D03*
X1482716Y4380000D02*
D03*
X1447283D02*
D03*
D12*
X1615551Y3485551D02*
D03*
Y3450118D02*
D03*
D13*
X1705000Y3249685D02*
D03*
Y3210315D02*
D03*
X1160000Y3764685D02*
D03*
Y3725315D02*
D03*
D14*
X1890000Y4500748D02*
D03*
Y4469252D02*
D03*
X1700000Y3325748D02*
D03*
Y3294252D02*
D03*
D15*
X1585748Y4380000D02*
D03*
X1554252D02*
D03*
X315748Y4920000D02*
D03*
X284252D02*
D03*
D16*
X1645000Y3112315D02*
D03*
Y3151685D02*
D03*
X915551Y4165315D02*
D03*
Y4204685D02*
D03*
D17*
X2166654Y4915000D02*
D03*
X2123347D02*
D03*
X2123346Y4985000D02*
D03*
X2166653D02*
D03*
X2366654Y4915000D02*
D03*
X2323347D02*
D03*
X2323346Y4985000D02*
D03*
X2366653D02*
D03*
D18*
X1890000Y4575748D02*
D03*
Y4544252D02*
D03*
X1535000Y4590748D02*
D03*
Y4559252D02*
D03*
X785000Y2695748D02*
D03*
Y2664252D02*
D03*
X1787000Y2504252D02*
D03*
Y2535748D02*
D03*
X2039000Y4788748D02*
D03*
Y4757252D02*
D03*
X2454000Y4606252D02*
D03*
Y4637748D02*
D03*
X2254000Y4606252D02*
D03*
Y4637748D02*
D03*
X1691000Y4723252D02*
D03*
Y4754748D02*
D03*
X1580000Y3119252D02*
D03*
Y3150748D02*
D03*
X1480000Y3304252D02*
D03*
Y3335748D02*
D03*
X789000Y3880748D02*
D03*
Y3849252D02*
D03*
D19*
X1189252Y2905000D02*
D03*
X1220748D02*
D03*
X1555748Y1960000D02*
D03*
X1524252D02*
D03*
X1555748Y2000000D02*
D03*
X1524252D02*
D03*
X1210748Y2215000D02*
D03*
X1179252D02*
D03*
X1555748Y2120000D02*
D03*
X1524252D02*
D03*
X1555748Y2080000D02*
D03*
X1524252D02*
D03*
X1555748Y2040000D02*
D03*
X1524252D02*
D03*
X978748Y3707000D02*
D03*
X947252D02*
D03*
X279252Y4873000D02*
D03*
X310748D02*
D03*
X1057252Y2785134D02*
D03*
X1088748D02*
D03*
X1089748Y2567134D02*
D03*
X1058252D02*
D03*
D20*
X1412795Y1868504D02*
D03*
Y1894094D02*
D03*
Y1919685D02*
D03*
Y1945275D02*
D03*
Y1970866D02*
D03*
Y1996457D02*
D03*
Y2022047D02*
D03*
Y2047638D02*
D03*
Y2073228D02*
D03*
Y2098819D02*
D03*
Y2124409D02*
D03*
Y2150000D02*
D03*
X1180512Y1868504D02*
D03*
Y1894094D02*
D03*
Y1919685D02*
D03*
Y1945275D02*
D03*
Y1970866D02*
D03*
Y1996457D02*
D03*
Y2022047D02*
D03*
Y2047638D02*
D03*
Y2073228D02*
D03*
Y2098819D02*
D03*
Y2124409D02*
D03*
Y2150000D02*
D03*
D21*
X875000Y2141654D02*
D03*
Y2098347D02*
D03*
Y2046654D02*
D03*
Y2003347D02*
D03*
X1059174Y4173346D02*
D03*
Y4216654D02*
D03*
X1004174D02*
D03*
Y4173346D02*
D03*
X1700000Y3023347D02*
D03*
Y3066654D02*
D03*
X1710000Y2803347D02*
D03*
Y2846654D02*
D03*
X1635000Y2846653D02*
D03*
Y2803346D02*
D03*
X1885000Y3066653D02*
D03*
Y3023346D02*
D03*
X563000Y3954347D02*
D03*
Y3997654D02*
D03*
X819174Y4168152D02*
D03*
Y4211459D02*
D03*
D22*
X878000Y2696434D02*
D03*
Y2625568D02*
D03*
D23*
X1967402Y4701930D02*
D03*
X1892598D02*
D03*
Y4818072D02*
D03*
X1930000D02*
D03*
X1967402D02*
D03*
X2451930Y4711576D02*
D03*
X2377126D02*
D03*
Y4827716D02*
D03*
X2414528D02*
D03*
X2451930D02*
D03*
X1607402Y4701930D02*
D03*
X1532598D02*
D03*
Y4818072D02*
D03*
X1570000D02*
D03*
X1607402D02*
D03*
X1543888Y3218740D02*
D03*
X1581290D02*
D03*
X1618692D02*
D03*
Y3334882D02*
D03*
X1543888D02*
D03*
X2255080Y4711576D02*
D03*
X2180276D02*
D03*
Y4827716D02*
D03*
X2217678D02*
D03*
X2255080D02*
D03*
X1787402Y2728072D02*
D03*
X1750000D02*
D03*
X1712598D02*
D03*
Y2611930D02*
D03*
X1787402D02*
D03*
X716576Y3998072D02*
D03*
X679174D02*
D03*
X641772D02*
D03*
Y3881930D02*
D03*
X716576D02*
D03*
D24*
X1796614Y4051418D02*
D03*
Y4077008D02*
D03*
Y4102598D02*
D03*
Y4128190D02*
D03*
Y4153780D02*
D03*
Y4179370D02*
D03*
Y4204960D02*
D03*
Y4230552D02*
D03*
X1566300Y4051418D02*
D03*
Y4077008D02*
D03*
Y4102598D02*
D03*
Y4128190D02*
D03*
Y4153780D02*
D03*
Y4179370D02*
D03*
Y4204960D02*
D03*
Y4230552D02*
D03*
D25*
X1711496Y2910000D02*
D03*
X1648504D02*
D03*
D26*
X1885000Y3123504D02*
D03*
Y3186496D02*
D03*
X1775001Y3258504D02*
D03*
Y3321496D02*
D03*
D27*
X1685630Y3571000D02*
D03*
X1764370D02*
D03*
D28*
X1302756Y2999622D02*
D03*
Y3037024D02*
D03*
Y3074426D02*
D03*
X1186614D02*
D03*
Y2999622D02*
D03*
D29*
X1564842Y3661812D02*
D03*
X1590434D02*
D03*
X1616024D02*
D03*
X1641614D02*
D03*
X1667206D02*
D03*
X1692796D02*
D03*
X1718386D02*
D03*
X1743976D02*
D03*
X1769568D02*
D03*
X1795158D02*
D03*
X1564842Y3888190D02*
D03*
X1590434D02*
D03*
X1616024D02*
D03*
X1641614D02*
D03*
X1667206D02*
D03*
X1692796D02*
D03*
X1718386D02*
D03*
X1743976D02*
D03*
X1769568D02*
D03*
X1795158D02*
D03*
D30*
X732228Y2798330D02*
D03*
X757820D02*
D03*
X783410D02*
D03*
X809000D02*
D03*
X834590D02*
D03*
X860182D02*
D03*
X885772D02*
D03*
X732228Y3022740D02*
D03*
X757820D02*
D03*
X783410D02*
D03*
X809000D02*
D03*
X834590D02*
D03*
X860182D02*
D03*
X885772D02*
D03*
D31*
X1027560Y4097598D02*
D03*
X1001968D02*
D03*
X976378D02*
D03*
X950788D02*
D03*
X1027560Y3922402D02*
D03*
X1001968D02*
D03*
X976378D02*
D03*
X950788D02*
D03*
D32*
X1129174Y4009370D02*
D03*
Y3930630D02*
D03*
D33*
X946811Y4359370D02*
D03*
X915315D02*
D03*
X883819D02*
D03*
X852323D02*
D03*
X820827D02*
D03*
X789331D02*
D03*
X757835D02*
D03*
X726338D02*
D03*
X694842D02*
D03*
X663346D02*
D03*
D34*
X1116299Y4442441D02*
D03*
X493858D02*
D03*
D35*
X1057792Y2619552D02*
D03*
X1095194D02*
D03*
X1132596D02*
D03*
Y2727820D02*
D03*
X1095194D02*
D03*
X1057792D02*
D03*
%TF.MD5,2479d021187fd3c1aa70d866bc0c57e8*%
M02*
