%TF.GenerationSoftware,Altium Limited,Altium Designer,19.1.6 (110)*%
G04 Layer_Color=128*
%FSLAX26Y26*%
%MOIN*%
%TF.FileFunction,Paste,Bot*%
%TF.Part,Single*%
G01*
G75*
%TA.AperFunction,SMDPad,CuDef*%
%ADD11R,0.021654X0.021654*%
%ADD16R,0.025591X0.021654*%
%ADD17R,0.025591X0.029528*%
%ADD18R,0.020472X0.020472*%
%ADD19R,0.020472X0.020472*%
%ADD21R,0.029528X0.025591*%
G04:AMPARAMS|DCode=23|XSize=25.591mil|YSize=47.244mil|CornerRadius=1.919mil|HoleSize=0mil|Usage=FLASHONLY|Rotation=0.000|XOffset=0mil|YOffset=0mil|HoleType=Round|Shape=RoundedRectangle|*
%AMROUNDEDRECTD23*
21,1,0.025591,0.043406,0,0,0.0*
21,1,0.021752,0.047244,0,0,0.0*
1,1,0.003839,0.010876,-0.021703*
1,1,0.003839,-0.010876,-0.021703*
1,1,0.003839,-0.010876,0.021703*
1,1,0.003839,0.010876,0.021703*
%
%ADD23ROUNDEDRECTD23*%
%ADD29O,0.013780X0.055118*%
%ADD31O,0.019685X0.053150*%
%ADD32R,0.061024X0.053150*%
%ADD48R,0.021654X0.025591*%
%ADD49R,0.027559X0.025591*%
G04:AMPARAMS|DCode=50|XSize=25.591mil|YSize=64.961mil|CornerRadius=1.919mil|HoleSize=0mil|Usage=FLASHONLY|Rotation=270.000|XOffset=0mil|YOffset=0mil|HoleType=Round|Shape=RoundedRectangle|*
%AMROUNDEDRECTD50*
21,1,0.025591,0.061122,0,0,270.0*
21,1,0.021752,0.064961,0,0,270.0*
1,1,0.003839,-0.030561,-0.010876*
1,1,0.003839,-0.030561,0.010876*
1,1,0.003839,0.030561,0.010876*
1,1,0.003839,0.030561,-0.010876*
%
%ADD50ROUNDEDRECTD50*%
D11*
X170716Y4544000D02*
D03*
X135283D02*
D03*
D16*
X819173Y4171315D02*
D03*
Y4210685D02*
D03*
D17*
X551654Y4820000D02*
D03*
X508346D02*
D03*
D18*
X95000Y4544252D02*
D03*
Y4575748D02*
D03*
X278000Y4582748D02*
D03*
Y4551252D02*
D03*
D19*
X405748Y4700000D02*
D03*
X374252D02*
D03*
X1168748Y3838000D02*
D03*
X1137252D02*
D03*
D21*
X860000Y3133346D02*
D03*
Y3176653D02*
D03*
X879174Y4211654D02*
D03*
Y4168346D02*
D03*
X939174D02*
D03*
Y4211654D02*
D03*
X95000Y4773346D02*
D03*
Y4816654D02*
D03*
X1241000Y4229654D02*
D03*
Y4186346D02*
D03*
X278000Y4641346D02*
D03*
Y4684654D02*
D03*
X1185000Y4186346D02*
D03*
Y4229654D02*
D03*
D23*
X1111458Y4028072D02*
D03*
X1148858D02*
D03*
X1186260D02*
D03*
Y3911930D02*
D03*
X1111458D02*
D03*
D29*
X854016Y3791190D02*
D03*
X879606D02*
D03*
X905198D02*
D03*
X930788D02*
D03*
X956378D02*
D03*
X981968D02*
D03*
X1007560D02*
D03*
X1033150D02*
D03*
X1058740D02*
D03*
X1084332D02*
D03*
X854016Y3564812D02*
D03*
X879606D02*
D03*
X905198D02*
D03*
X930788D02*
D03*
X956378D02*
D03*
X981968D02*
D03*
X1007560D02*
D03*
X1033150D02*
D03*
X1058740D02*
D03*
X1084332D02*
D03*
D31*
X927560Y3922402D02*
D03*
X901968D02*
D03*
X876378D02*
D03*
X850788D02*
D03*
X927560Y4097598D02*
D03*
X901968D02*
D03*
X876378D02*
D03*
X850788D02*
D03*
D32*
X1765000Y3989630D02*
D03*
Y4068370D02*
D03*
X755174Y4000370D02*
D03*
Y3921630D02*
D03*
D48*
X1939685Y4820000D02*
D03*
X1900315D02*
D03*
X1589679Y4815999D02*
D03*
X1550309D02*
D03*
D49*
X708701Y4780000D02*
D03*
X671299D02*
D03*
D50*
X183780Y4770000D02*
D03*
Y4820000D02*
D03*
Y4870000D02*
D03*
Y4920000D02*
D03*
X406220Y4770000D02*
D03*
Y4820000D02*
D03*
Y4870000D02*
D03*
Y4920000D02*
D03*
%TF.MD5,6baf70198034d5693d55bb3dff6370f0*%
M02*
